<?xml version="1.0" encoding="utf-8"?>
<!-- Generator: Adobe Illustrator 16.0.0, SVG Export Plug-In . SVG Version: 6.00 Build 0)  -->
<!DOCTYPE svg PUBLIC "-//W3C//DTD SVG 1.1//EN" "http://www.w3.org/Graphics/SVG/1.1/DTD/svg11.dtd">
<svg version="1.1" id="Layer_1" xmlns="http://www.w3.org/2000/svg" xmlns:xlink="http://www.w3.org/1999/xlink" x="0px" y="0px"
	 width="43px" height="35px" viewBox="0 0 43 35" enable-background="new 0 0 43 35" xml:space="preserve">
<g>
	<circle fill="#B3B3B3" cx="4.51" cy="23.161" r="1"/>
	<circle fill="#B3B3B3" cx="4.51" cy="26.164" r="1"/>
	<circle fill="#B3B3B3" cx="7.513" cy="23.161" r="1"/>
	<circle fill="#B3B3B3" cx="7.513" cy="26.164" r="1"/>
	<circle fill="#B3B3B3" cx="10.515" cy="23.161" r="1"/>
	<circle fill="#B3B3B3" cx="10.515" cy="26.164" r="1"/>
	<circle fill="#B3B3B3" cx="13.519" cy="23.161" r="1"/>
	<circle fill="#B3B3B3" cx="13.519" cy="26.164" r="1"/>
	<circle fill="#B3B3B3" cx="16.521" cy="23.161" r="1"/>
	<circle fill="#B3B3B3" cx="16.521" cy="26.164" r="1"/>
	<circle fill="#B3B3B3" cx="19.524" cy="23.161" r="1"/>
	<circle fill="#B3B3B3" cx="19.524" cy="26.164" r="1"/>
	<circle fill="#B3B3B3" cx="19.524" cy="29.167" r="1"/>
	<circle fill="#B3B3B3" cx="19.524" cy="32.17" r="1"/>
	<circle fill="#B3B3B3" cx="22.527" cy="29.167" r="1"/>
	<circle fill="#B3B3B3" cx="22.527" cy="32.17" r="1"/>
	<circle fill="#B3B3B3" cx="25.53" cy="26.164" r="1"/>
	<circle fill="#B3B3B3" cx="25.53" cy="29.167" r="1"/>
	<circle fill="#B3B3B3" cx="28.533" cy="26.164" r="1"/>
	<circle fill="#B3B3B3" cx="28.533" cy="29.167" r="1"/>
	<circle fill="#B3B3B3" cx="31.536" cy="23.161" r="1"/>
	<circle fill="#B3B3B3" cx="31.536" cy="26.164" r="1"/>
	<circle fill="#B3B3B3" cx="34.539" cy="20.158" r="1"/>
	<circle fill="#B3B3B3" cx="34.539" cy="23.161" r="1"/>
	<circle fill="#B3B3B3" cx="37.542" cy="17.155" r="1"/>
	<circle fill="#B3B3B3" cx="37.542" cy="20.158" r="1"/>
	<circle fill="#B3B3B3" cx="37.542" cy="23.161" r="1"/>
	<circle fill="#B3B3B3" cx="40.545" cy="17.155" r="1"/>
	<circle fill="#B3B3B3" cx="40.545" cy="20.158" r="1"/>
	<path fill="#FF00E7" d="M40.913,15.712c0-0.518-0.302-0.961-0.735-1.176v-0.012L21.724,1.365v0.046
		c-0.235-0.22-0.548-0.355-0.896-0.355c-0.726,0-1.314,0.589-1.314,1.314c0,0.012,0.002,0.021,0.003,0.032h0v6.256H2.799v0.011
		c-0.944,0.02-1.703,0.767-1.748,1.704H1.033v10.994h0.011l-0.001,0.009c0,0.978,0.783,1.77,1.756,1.79v0.004h16.717v5.902h0.001
		c0,0.015-0.003,0.027-0.003,0.042c0,0.727,0.588,1.315,1.314,1.315c0.405,0,0.762-0.187,1.003-0.474L40.178,16.96v-0.073
		C40.611,16.671,40.913,16.229,40.913,15.712z"/>
</g>
</svg>
