<?xml version="1.0" encoding="utf-8"?>
<!-- Generator: Adobe Illustrator 16.0.0, SVG Export Plug-In . SVG Version: 6.00 Build 0)  -->
<!DOCTYPE svg PUBLIC "-//W3C//DTD SVG 1.1//EN" "http://www.w3.org/Graphics/SVG/1.1/DTD/svg11.dtd">
<svg version="1.1" id="Layer_1" xmlns="http://www.w3.org/2000/svg" xmlns:xlink="http://www.w3.org/1999/xlink" x="0px" y="0px"
	 width="11px" height="11px" viewBox="0 0 11 11" enable-background="new 0 0 11 11" xml:space="preserve">
<path fill="#E0E0E0" d="M6.824,5.412L9.53,2.707c0.391-0.391,0.391-1.023,0-1.414s-1.025-0.391-1.414,0L5.411,3.997L2.708,1.294
	c-0.39-0.391-1.024-0.391-1.414,0c-0.391,0.391-0.391,1.023,0,1.414l2.703,2.704L1.293,8.115c-0.391,0.391-0.391,1.023,0,1.414
	C1.488,9.725,1.745,9.822,2,9.822s0.512-0.098,0.707-0.293l2.703-2.703l2.705,2.703c0.193,0.195,0.451,0.293,0.707,0.293
	S9.334,9.725,9.53,9.529c0.391-0.391,0.391-1.023,0-1.414L6.824,5.412z"/>
</svg>
