<?xml version="1.0" encoding="utf-8"?>
<!-- Generator: Adobe Illustrator 16.0.0, SVG Export Plug-In . SVG Version: 6.00 Build 0)  -->
<!DOCTYPE svg PUBLIC "-//W3C//DTD SVG 1.1//EN" "http://www.w3.org/Graphics/SVG/1.1/DTD/svg11.dtd">
<svg version="1.1" xmlns="http://www.w3.org/2000/svg" xmlns:xlink="http://www.w3.org/1999/xlink" x="0px" y="0px" width="38px"
	 height="37px" viewBox="0 0 38 37" enable-background="new 0 0 38 37" xml:space="preserve">
<g id="Layer_2">
	<rect fill="#FAFAFA" width="38" height="37"/>
</g>
<g id="Layer_1">
	<g>
		<path d="M4.313,32.727L4.29,32.703c-1.652-1.652-1.766-4.346-0.057-6.055c1.109-1.109,2.264-1.336,3.385-1.303l0.033,1.189
			c-0.951-0.023-1.867,0.102-2.66,0.895c-1.188,1.188-1.086,3.102,0.17,4.357l0.023,0.021c1.268,1.268,3.203,1.348,4.426,0.125
			c0.746-0.746,0.951-1.697,0.916-2.66l1.076-0.033c0.066,1.244-0.159,2.422-1.258,3.52C8.635,34.469,5.954,34.367,4.313,32.727z"/>
		<path d="M5.849,20.461l0.872-0.873l8.262,8.263l-0.871,0.871L5.849,20.461z"/>
		<path d="M13.749,23.291l-0.023-0.023c-1.652-1.652-1.766-4.346,0-6.111c1.754-1.754,4.426-1.664,6.078-0.012l0.022,0.022
			c1.652,1.652,1.755,4.358-0.011,6.124C18.06,25.045,15.401,24.943,13.749,23.291z M18.955,18.084l-0.022-0.023
			c-1.257-1.256-3.227-1.347-4.46-0.113c-1.268,1.268-1.109,3.169,0.124,4.403l0.023,0.021c1.256,1.258,3.203,1.348,4.437,0.115
			C20.325,21.219,20.188,19.318,18.955,18.084z"/>
		<path d="M23.083,18.256l-0.182-1.063c1.109-0.159,2.083-0.588,2.773-1.279c0.701-0.702,0.85-1.574,0.283-2.14l-0.022-0.022
			c-0.589-0.589-1.506-0.124-2.491,0.43c-1.177,0.657-2.512,1.358-3.588,0.283l-0.021-0.022c-1.008-1.007-0.838-2.513,0.316-3.667
			c0.713-0.713,1.754-1.256,2.751-1.46l0.26,1.053c-0.895,0.192-1.731,0.6-2.298,1.166c-0.69,0.691-0.77,1.494-0.283,1.98
			l0.023,0.023c0.555,0.554,1.494,0.045,2.513-0.498c1.177-0.634,2.501-1.257,3.554-0.204l0.022,0.022
			c1.11,1.11,0.838,2.672-0.327,3.837C25.528,17.533,24.271,18.133,23.083,18.256z"/>
		<path d="M26.678,10.336l-0.021-0.022c-1.688-1.687-1.856-4.233-0.238-5.852c1.732-1.732,4.109-1.347,5.818,0.362
			c0.112,0.113,0.181,0.181,0.271,0.293l-4.641,4.641c1.393,1.143,2.999,0.962,4.041-0.079c0.803-0.803,1.041-1.698,1.018-2.671
			l1.031-0.057c0.066,1.244-0.205,2.399-1.313,3.508C31.037,12.068,28.49,12.147,26.678,10.336z M30.992,5.345
			c-1.154-0.974-2.694-1.29-3.86-0.124c-1.019,1.019-0.939,2.637,0.091,3.894L30.992,5.345z"/>
	</g>
</g>
</svg>
