<?xml version="1.0" encoding="utf-8"?>
<!-- Generator: Adobe Illustrator 16.0.0, SVG Export Plug-In . SVG Version: 6.00 Build 0)  -->
<!DOCTYPE svg PUBLIC "-//W3C//DTD SVG 1.1//EN" "http://www.w3.org/Graphics/SVG/1.1/DTD/svg11.dtd">
<svg version="1.1" xmlns="http://www.w3.org/2000/svg" xmlns:xlink="http://www.w3.org/1999/xlink" x="0px" y="0px" width="32px"
	 height="29px" viewBox="-0.5 0 32 29" enable-background="new -0.5 0 32 29" xml:space="preserve">
<g id="Layer_2">
	<rect x="-0.5" fill="#FAFAFA" width="32" height="29"/>
</g>
<g id="Layer_1">
	<g id="Layer_1_1_">
		<g>
			<path fill="#00DDFF" d="M3.799,25.877l-0.018-0.02c-1.342-1.342-1.435-3.529-0.047-4.918c0.901-0.9,1.84-1.084,2.749-1.057
				l0.028,0.965c-0.773-0.02-1.518,0.084-2.161,0.727c-0.966,0.965-0.882,2.52,0.138,3.539l0.019,0.02
				c1.03,1.029,2.602,1.094,3.595,0.1c0.606-0.605,0.771-1.379,0.744-2.158l0.873-0.027c0.057,1.012-0.128,1.969-1.02,2.859
				C7.312,27.293,5.133,27.209,3.799,25.877z"/>
			<path fill="#00DDFF" d="M5.049,15.912l0.708-0.709l6.711,6.711l-0.708,0.709L5.049,15.912z"/>
			<path fill="#00DDFF" d="M11.466,18.209l-0.018-0.018c-1.342-1.342-1.434-3.53,0-4.963c1.424-1.425,3.595-1.352,4.937-0.009
				l0.021,0.018c1.343,1.342,1.427,3.54-0.01,4.974C14.969,19.637,12.809,19.553,11.466,18.209z M15.695,13.981l-0.02-0.019
				c-1.021-1.021-2.62-1.094-3.622-0.092c-1.03,1.03-0.901,2.575,0.102,3.577l0.019,0.018c1.02,1.021,2.601,1.094,3.603,0.092
				C16.808,16.527,16.697,14.983,15.695,13.981z"/>
			<path fill="#00DDFF" d="M19.049,14.119l-0.146-0.864c0.898-0.128,1.689-0.478,2.252-1.039c0.57-0.57,0.688-1.278,0.229-1.738
				l-0.019-0.018c-0.478-0.478-1.224-0.101-2.022,0.349c-0.957,0.533-2.041,1.103-2.914,0.23l-0.019-0.019
				c-0.817-0.818-0.681-2.041,0.257-2.978c0.58-0.579,1.426-1.021,2.234-1.186l0.213,0.855c-0.727,0.156-1.406,0.487-1.865,0.947
				c-0.561,0.561-0.625,1.213-0.229,1.608l0.02,0.018c0.449,0.451,1.215,0.037,2.041-0.404c0.955-0.515,2.029-1.02,2.887-0.165
				l0.018,0.018c0.902,0.901,0.682,2.169-0.266,3.116C21.036,13.531,20.016,14.018,19.049,14.119z"/>
			<path fill="#00DDFF" d="M21.974,7.684l-0.019-0.019c-1.371-1.37-1.509-3.438-0.193-4.752c1.406-1.407,3.337-1.094,4.726,0.294
				c0.093,0.092,0.146,0.147,0.22,0.239l-3.769,3.769c1.131,0.929,2.437,0.782,3.28-0.064c0.654-0.653,0.848-1.379,0.828-2.169
				l0.836-0.046c0.057,1.011-0.164,1.949-1.065,2.851C25.512,9.091,23.444,9.155,21.974,7.684z M25.476,3.631
				c-0.938-0.791-2.188-1.048-3.136-0.102c-0.826,0.827-0.764,2.142,0.074,3.163L25.476,3.631z"/>
		</g>
	</g>
</g>
</svg>
