<?xml version="1.0" encoding="utf-8"?>
<!-- Generator: Adobe Illustrator 16.0.0, SVG Export Plug-In . SVG Version: 6.00 Build 0)  -->
<!DOCTYPE svg PUBLIC "-//W3C//DTD SVG 1.1//EN" "http://www.w3.org/Graphics/SVG/1.1/DTD/svg11.dtd">
<svg version="1.1" id="Layer_1" xmlns="http://www.w3.org/2000/svg" xmlns:xlink="http://www.w3.org/1999/xlink" x="0px" y="0px"
	 width="69px" height="40px" viewBox="0 0 69 40" enable-background="new 0 0 69 40" xml:space="preserve">
<path fill="#FFFFFF" d="M68,31.66c0-3.539-2.473-6.49-5.764-7.184c-0.832-6.256-6.111-11.083-12.516-11.083
	c-2.322,0-4.49,0.646-6.359,1.75C41.239,7.007,33.942,1,25.239,1C14.877,1,6.476,9.506,6.476,19.999
	c0,1.278,0.129,2.526,0.367,3.733C3.492,24.556,1,27.605,1,31.252c0,3.976,2.958,7.245,6.765,7.69V39h53.792v-0.049
	C65.182,38.545,68,35.437,68,31.66z"/>
</svg>
