<?xml version="1.0" encoding="utf-8"?>
<!-- Generator: Adobe Illustrator 16.0.0, SVG Export Plug-In . SVG Version: 6.00 Build 0)  -->
<!DOCTYPE svg PUBLIC "-//W3C//DTD SVG 1.1//EN" "http://www.w3.org/Graphics/SVG/1.1/DTD/svg11.dtd">
<svg version="1.1" xmlns="http://www.w3.org/2000/svg" xmlns:xlink="http://www.w3.org/1999/xlink" x="0px" y="0px" width="63px"
	 height="37px" viewBox="0 0 63 37" enable-background="new 0 0 63 37" xml:space="preserve">
<g id="Layer_2">
</g>
<g id="Layer_1">
	<path fill="#FFFFFF" d="M54.887,21.949c-0.225,0-0.447,0.014-0.668,0.033v-0.205c0.172-0.734,0.271-1.494,0.271-2.279
		s-0.1-1.547-0.271-2.28v-0.439h-0.113c-1.205-4.266-5.158-7.4-9.861-7.4c-3.613,0-6.783,1.853-8.607,4.644
		C33.672,6.536,26.804,1,18.61,1C8.884,1,1,8.787,1,18.394c0,9.604,7.884,17.392,17.61,17.392c0.119,0,0.233-0.016,0.351-0.018
		h34.145C53.676,35.914,54.271,36,54.887,36C58.816,36,62,32.855,62,28.975C62,25.096,58.816,21.949,54.887,21.949z"/>
</g>
</svg>
