<?xml version="1.0" encoding="utf-8"?>
<!-- Generator: Adobe Illustrator 16.0.0, SVG Export Plug-In . SVG Version: 6.00 Build 0)  -->
<!DOCTYPE svg PUBLIC "-//W3C//DTD SVG 1.1//EN" "http://www.w3.org/Graphics/SVG/1.1/DTD/svg11.dtd">
<svg version="1.1" id="Layer_1" xmlns="http://www.w3.org/2000/svg" xmlns:xlink="http://www.w3.org/1999/xlink" x="0px" y="0px"
	 width="51px" height="30px" viewBox="0 0 51 30" enable-background="new 0 0 51 30" xml:space="preserve">
<path fill="#FFFFFF" d="M50,19.419c0-5.292-4.203-9.582-9.389-9.582c-1.584,0-3.074,0.404-4.383,1.11C34.525,5.192,29.295,1,23.1,1
	C15.523,1,9.381,7.269,9.381,15c0,0.047,0.006,0.093,0.007,0.139c-0.487-0.11-0.991-0.175-1.511-0.175
	C4.079,14.964,1,18.106,1,21.981c0,3.839,3.019,6.952,6.766,7.013V29h33.326v-0.025C46.053,28.718,50,24.544,50,19.419z"/>
</svg>
