<?xml version="1.0" encoding="utf-8"?>
<!-- Generator: Adobe Illustrator 16.0.0, SVG Export Plug-In . SVG Version: 6.00 Build 0)  -->
<!DOCTYPE svg PUBLIC "-//W3C//DTD SVG 1.1//EN" "http://www.w3.org/Graphics/SVG/1.1/DTD/svg11.dtd">
<svg version="1.1" id="Layer_1" xmlns="http://www.w3.org/2000/svg" xmlns:xlink="http://www.w3.org/1999/xlink" x="0px" y="0px"
	 width="15px" height="76px" viewBox="-0.5 0.5 15 76" enable-background="new -0.5 0.5 15 76" xml:space="preserve">
<g>
	<g>
		<polygon fill="#F2F2F2" points="5319.555,2570.153 5309.555,2570.153 5304.566,2565.148 5319.555,2560.153 		"/>
		<g>
			<polygon fill="#E0E0E0" points="5319.555,2570.153 5314.566,2565.148 5306.885,2527.898 5314.535,2493.164 5319.555,2498.153 			
				"/>
		</g>
		<g>
			<rect x="5304.551" y="2493.148" fill="#FAFAFA" width="10" height="72"/>
		</g>
	</g>
	<g>
		<g>
			<path fill="#E0E0E0" d="M5314.492,2509.508c0-1.322-0.523-2.518-1.363-3.41l0.019-0.019l-2.312-2.312l-0.797,0.795
				c-0.182-0.02-0.358-0.055-0.547-0.055c-1.381,0-2.631,0.561-3.535,1.465l7.07,7.07
				C5313.932,2512.138,5314.492,2510.888,5314.492,2509.508z"/>
			<path fill="#F2F2F2" d="M5304.492,2509.508c0,0.188,0.035,0.365,0.055,0.547l-0.793,0.793l2.312,2.312l0.017-0.015
				c0.895,0.839,2.088,1.362,3.412,1.362c1.381,0,2.631-0.561,3.535-1.466l-7.07-7.069
				C5305.051,2506.877,5304.492,2508.127,5304.492,2509.508z"/>
		</g>
		<circle fill="#FAFAFA" cx="5307.49" cy="2507.506" r="5"/>
	</g>
	<g>
		<g>
			<path fill="#E0E0E0" d="M5314.492,2549.378c0-1.323-0.523-2.519-1.363-3.411l0.019-0.018l-2.312-2.312l-0.797,0.796
				c-0.182-0.02-0.358-0.055-0.547-0.055c-1.381,0-2.631,0.56-3.535,1.465l7.07,7.07
				C5313.932,2552.008,5314.492,2550.758,5314.492,2549.378z"/>
			<path fill="#F2F2F2" d="M5304.492,2549.378c0,0.188,0.035,0.365,0.055,0.547l-0.793,0.793l2.312,2.312l0.017-0.015
				c0.895,0.839,2.088,1.361,3.412,1.361c1.381,0,2.631-0.56,3.535-1.465l-7.07-7.07
				C5305.051,2546.747,5304.492,2547.997,5304.492,2549.378z"/>
		</g>
		<circle fill="#FAFAFA" cx="5307.49" cy="2547.376" r="5"/>
	</g>
	<g>
		<g>
			<path fill="#E0E0E0" d="M5314.492,2529.443c0-1.324-0.523-2.519-1.363-3.412l0.019-0.019l-2.312-2.312l-0.797,0.797
				c-0.182-0.02-0.358-0.055-0.547-0.055c-1.381,0-2.631,0.559-3.535,1.465l7.07,7.07
				C5313.932,2532.072,5314.492,2530.822,5314.492,2529.443z"/>
			<path fill="#F2F2F2" d="M5304.492,2529.443c0,0.188,0.035,0.365,0.055,0.547l-0.793,0.793l2.312,2.312l0.017-0.017
				c0.895,0.84,2.088,1.363,3.412,1.363c1.381,0,2.631-0.562,3.535-1.466l-7.07-7.069
				C5305.051,2526.812,5304.492,2528.062,5304.492,2529.443z"/>
		</g>
		<circle fill="#FAFAFA" cx="5307.49" cy="2527.441" r="5"/>
	</g>
</g>
<g>
	<g>
		<polygon fill="#F2F2F2" points="13.532,74.502 3.585,74.502 2.603,73.498 13.532,64.503 		"/>
		<g>
			<polygon fill="#E0E0E0" points="13.532,74.502 12.549,73.482 4.909,36.235 12.519,1.502 13.532,2.507 			"/>
		</g>
		<g>
			<rect x="2.587" y="1.502" fill="#FAFAFA" width="9.946" height="71.996"/>
		</g>
	</g>
	<g>
		<g>
			<path fill="#E0E0E0" d="M12.476,17.86c0-1.323-0.521-2.518-1.356-3.411l0.019-0.018L8.839,13.12l-0.793-0.204
				c-0.181-0.02-0.357-0.055-0.544-0.055c-1.374,0-2.617,0.56-3.516,1.465l7.033,7.069C11.918,20.49,12.476,19.241,12.476,17.86z"/>
			<path fill="#F2F2F2" d="M2.529,17.86c0,0.188,0.035,0.365,0.055,0.547l0.206,0.793l1.304,2.311l0.016-0.015
				c0.89,0.839,2.077,1.362,3.394,1.362c1.374,0,2.617-0.56,3.517-1.465l-7.033-7.069C3.085,15.23,2.529,16.48,2.529,17.86z"/>
		</g>
		<ellipse fill="#FAFAFA" cx="6.505" cy="16.858" rx="4.973" ry="5"/>
	</g>
	<g>
		<g>
			<path fill="#E0E0E0" d="M12.476,57.728c0-1.322-0.521-2.518-1.356-3.41l0.019-0.019l-2.298-1.312l-0.793-0.204
				c-0.181-0.021-0.357-0.056-0.544-0.056c-1.374,0-2.617,0.561-3.516,1.465l7.033,7.069C11.918,60.357,12.476,59.108,12.476,57.728
				z"/>
			<path fill="#F2F2F2" d="M2.529,57.728c0,0.188,0.035,0.365,0.055,0.547l0.206,0.793l1.304,2.312l0.016-0.015
				c0.89,0.839,2.077,1.362,3.394,1.362c1.374,0,2.617-0.561,3.517-1.465l-7.033-7.069C3.085,55.099,2.529,56.349,2.529,57.728z"/>
		</g>
		<ellipse fill="#FAFAFA" cx="6.505" cy="56.727" rx="4.973" ry="5"/>
	</g>
	<g>
		<g>
			<path fill="#E0E0E0" d="M12.476,37.795c0-1.324-0.521-2.518-1.356-3.412l0.019-0.018l-2.298-1.312l-0.793-0.203
				c-0.181-0.02-0.357-0.055-0.544-0.055c-1.374,0-2.617,0.559-3.516,1.465l7.033,7.07C11.918,40.424,12.476,39.174,12.476,37.795z"
				/>
			<path fill="#F2F2F2" d="M2.529,37.795c0,0.188,0.035,0.365,0.055,0.547l0.206,0.793l1.304,2.312l0.016-0.016
				c0.89,0.84,2.077,1.362,3.394,1.362c1.374,0,2.617-0.562,3.517-1.465l-7.033-7.07C3.085,35.164,2.529,36.414,2.529,37.795z"/>
		</g>
		<ellipse fill="#FAFAFA" cx="6.505" cy="36.793" rx="4.973" ry="5"/>
	</g>
</g>
</svg>
