<?xml version="1.0" encoding="utf-8"?>
<!-- Generator: Adobe Illustrator 16.0.0, SVG Export Plug-In . SVG Version: 6.00 Build 0)  -->
<!DOCTYPE svg PUBLIC "-//W3C//DTD SVG 1.1//EN" "http://www.w3.org/Graphics/SVG/1.1/DTD/svg11.dtd">
<svg version="1.1" id="Layer_1" xmlns="http://www.w3.org/2000/svg" xmlns:xlink="http://www.w3.org/1999/xlink" x="0px" y="0px"
	 width="13px" height="29px" viewBox="0 0 13 29" enable-background="new 0 0 13 29" xml:space="preserve">
<g>
	<path fill="#FFFFFF" d="M2.39,27v-7.319h2.132v4.823h1.391v-4.368h1.989v4.368h1.443v-4.889h2.145V27H2.39z"/>
	<path fill="#FFFFFF" d="M6.212,15.139l-1.755-1.053v-2.6L7.928,13.8l3.562-2.366v2.652l-1.833,1.092l1.833,1.105v2.6l-3.536-2.366
		L4.457,18.83v-2.651L6.212,15.139z"/>
	<path fill="#FFFFFF" d="M2,10.691V8.129h1.82v2.562H2z M4.457,10.639V8.182h7.033v2.457H4.457z"/>
	<path fill="#FFFFFF" d="M9.307,6.31H6.433v0.832H4.457V6.31H2.676V3.853h1.781V2.214h1.976v1.638h2.392
		c0.494,0,0.702-0.221,0.702-0.676c0-0.325-0.092-0.637-0.234-0.936h1.924c0.248,0.442,0.416,1.027,0.416,1.716
		C11.633,5.438,10.983,6.31,9.307,6.31z"/>
</g>
</svg>
