<?xml version="1.0" encoding="utf-8"?>
<!-- Generator: Adobe Illustrator 16.0.0, SVG Export Plug-In . SVG Version: 6.00 Build 0)  -->
<!DOCTYPE svg PUBLIC "-//W3C//DTD SVG 1.1//EN" "http://www.w3.org/Graphics/SVG/1.1/DTD/svg11.dtd">
<svg version="1.1" id="Layer_1" xmlns="http://www.w3.org/2000/svg" xmlns:xlink="http://www.w3.org/1999/xlink" x="0px" y="0px"
	 width="17px" height="50px" viewBox="0 0 17 50" enable-background="new 0 0 17 50" xml:space="preserve">
<polygon fill="#FFFFFF" points="11.002,42 3,42 3,46 11,46 11,48 15,44 11.002,40 "/>
<g>
	<path fill="#FFFFFF" d="M2.031,36.346V26.208h2.953v6.681h1.927v-6.051h2.754v6.051h1.999v-6.771h2.971v10.228H2.031z"/>
	<path fill="#FFFFFF" d="M7.325,19.944l-2.431-1.458v-3.601l4.807,3.205l4.934-3.277v3.673l-2.539,1.513l2.539,1.53v3.601
		l-4.897-3.276l-4.843,3.204v-3.672L7.325,19.944z"/>
	<path fill="#FFFFFF" d="M1.491,13.812v-3.547h2.521v3.547H1.491z M4.894,13.74v-3.403h9.741v3.403H4.894z"/>
	<path fill="#FFFFFF" d="M11.609,7.771H7.631v1.152H4.894V7.771H2.427V4.368h2.467V2.099h2.737v2.269h3.312
		c0.685,0,0.973-0.306,0.973-0.936c0-0.45-0.126-0.882-0.324-1.296h2.665c0.342,0.612,0.576,1.422,0.576,2.376
		C14.833,6.564,13.933,7.771,11.609,7.771z"/>
</g>
</svg>
