<?xml version="1.0" encoding="utf-8"?>
<!-- Generator: Adobe Illustrator 16.0.0, SVG Export Plug-In . SVG Version: 6.00 Build 0)  -->
<!DOCTYPE svg PUBLIC "-//W3C//DTD SVG 1.1//EN" "http://www.w3.org/Graphics/SVG/1.1/DTD/svg11.dtd">
<svg version="1.1" id="Layer_1" xmlns="http://www.w3.org/2000/svg" xmlns:xlink="http://www.w3.org/1999/xlink" x="0px" y="0px"
	 width="41px" height="41px" viewBox="0 0 41 41" enable-background="new 0 0 41 41" xml:space="preserve">
<g>
	<g>
		<path fill="#00DDFF" d="M16.69,27.783c0,2.039-1.654,3.693-3.695,3.693S9.3,29.822,9.3,27.783c0-2.043,1.653-3.695,3.694-3.695
			S16.69,25.74,16.69,27.783z"/>
	</g>
	<g>
		<path fill="#00DDFF" d="M21.469,31.338c-1.102,0-1.997-0.896-1.997-2c0-4.582-3.727-8.309-8.308-8.309c-1.104,0-2-0.895-2-2
			s0.896-2,2-2c6.787,0,12.303,5.521,12.303,12.308C23.467,30.441,22.57,31.338,21.469,31.338z"/>
	</g>
	<g>
		<path fill="#00DDFF" d="M29.02,31.338c-1.105,0-2-0.896-2-2c0-8.746-7.11-15.861-15.855-15.861c-1.104,0-2-0.896-2-2s0.896-2,2-2
			c10.945,0,19.855,8.909,19.855,19.861C31.02,30.441,30.123,31.338,29.02,31.338z"/>
	</g>
	<g>
		<path fill="#00DDFF" d="M37.492,39.496H3.005c-1.104,0-2-0.896-2-2V3.004c0-1.104,0.896-2,2-2h34.487c1.104,0,2,0.896,2,2v34.492
			C39.492,38.6,38.596,39.496,37.492,39.496z M5.005,35.496h30.487V5.004H5.005V35.496z"/>
	</g>
</g>
</svg>
