<?xml version="1.0" encoding="utf-8"?>
<!-- Generator: Adobe Illustrator 16.0.0, SVG Export Plug-In . SVG Version: 6.00 Build 0)  -->
<!DOCTYPE svg PUBLIC "-//W3C//DTD SVG 1.1//EN" "http://www.w3.org/Graphics/SVG/1.1/DTD/svg11.dtd">
<svg version="1.1" id="Layer_1" xmlns="http://www.w3.org/2000/svg" xmlns:xlink="http://www.w3.org/1999/xlink" x="0px" y="0px"
	 width="26px" height="39px" viewBox="0 0 26 39" enable-background="new 0 0 26 39" xml:space="preserve">
<g>
	<g>
		<g>
			<path fill="#FFE100" d="M10.881,29.159l5.902-0.013v-4.586c0-1.243,0.581-2.419,2.133-3.437c1.551-1.019,5.883-3.082,5.883-8.512
				c0-5.428-4.549-9.159-8.372-9.951c-3.823-0.791-7.966-0.271-10.905,2.95C2.889,8.494,2.334,10.776,2.334,15.81h5.898v-1.171
				c0-2.681,0.311-5.513,4.142-6.285c2.091-0.424,4.052,0.233,5.214,1.37c1.33,1.301,1.341,4.23-0.778,5.689l-3.325,2.262
				c-1.938,1.244-2.604,2.629-2.604,4.665V29.159z"/>
		</g>
		<polygon fill="#FFE100" points="10.843,37.552 10.843,31.473 15.485,30.148 16.826,31.473 16.826,37.552 		"/>
	</g>
	<g>
		<g>
			<path fill="#F6FF00" d="M9.546,27.824l5.903-0.013v-4.586c0-1.243,0.58-2.419,2.132-3.436c1.552-1.02,5.884-3.083,5.884-8.512
				c0-5.428-4.549-9.16-8.373-9.952C11.27,0.536,7.126,1.056,4.188,4.277C1.555,7.159,1,9.441,1,14.475h5.898v-1.171
				c0-2.681,0.31-5.512,4.141-6.285c2.092-0.424,4.053,0.233,5.215,1.37c1.33,1.301,1.34,4.231-0.779,5.689L12.15,16.34
				c-1.939,1.244-2.604,2.63-2.604,4.665V27.824z"/>
		</g>
		<rect x="9.508" y="30.138" fill="#F6FF00" width="5.984" height="6.079"/>
	</g>
	<g>
		<path fill="#FFA800" d="M11.035,7.015C9.771,7.27,8.896,7.752,8.283,8.376l1.334,1.335c0.613-0.624,1.488-1.106,2.753-1.362
			c1.659-0.336,3.229,0.015,4.39,0.738c-0.139-0.264-0.307-0.504-0.51-0.703C15.088,7.247,13.127,6.591,11.035,7.015z"/>
		<path fill="#FFA800" d="M18.912,21.12c0.745-0.49,2.131-1.226,3.371-2.455l-1.335-1.334c-1.24,1.229-2.626,1.965-3.371,2.454
			c-0.44,0.289-0.795,0.592-1.088,0.903l1.335,1.335C18.117,21.711,18.471,21.409,18.912,21.12z"/>
	</g>
	<polygon fill="#FFA800" points="8.23,15.82 2.334,15.82 1,14.456 6.896,14.456 	"/>
	<polygon fill="#FFA800" points="16.783,29.175 10.877,29.175 9.543,27.81 15.449,27.81 	"/>
	<polygon fill="#FFA800" points="16.82,37.555 10.83,37.555 9.496,36.211 15.485,36.211 	"/>
</g>
</svg>
