<?xml version="1.0" encoding="utf-8"?>
<!-- Generator: Adobe Illustrator 16.0.0, SVG Export Plug-In . SVG Version: 6.00 Build 0)  -->
<!DOCTYPE svg PUBLIC "-//W3C//DTD SVG 1.1//EN" "http://www.w3.org/Graphics/SVG/1.1/DTD/svg11.dtd">
<svg version="1.1" id="Layer_1" xmlns="http://www.w3.org/2000/svg" xmlns:xlink="http://www.w3.org/1999/xlink" x="0px" y="0px"
	 width="39px" height="57px" viewBox="0 0 39 57" enable-background="new 0 0 39 57" xml:space="preserve">
<g>
	<g>
		<g>
			<path fill="#FFE100" d="M16.226,43.238l8.854-0.019v-6.879c0-1.865,0.871-3.629,3.198-5.154
				c2.327-1.528,8.825-4.624,8.825-12.768c0-8.142-6.823-13.739-12.559-14.927C18.81,2.306,12.596,3.086,8.188,7.917
				c-3.949,4.324-4.781,7.747-4.781,15.297h8.848v-1.756c0-4.021,0.465-8.269,6.212-9.428c3.137-0.636,6.078,0.35,7.821,2.055
				c1.995,1.951,2.011,6.347-1.168,8.534l-4.987,3.393c-2.908,1.866-3.906,3.944-3.906,6.998V43.238z"/>
		</g>
		<polygon fill="#FFE100" points="16.169,55.827 16.169,46.709 23.133,44.723 25.145,46.709 25.145,55.827 		"/>
	</g>
	<g>
		<g>
			<path fill="#F6FF00" d="M14.224,41.236l8.854-0.019v-6.879c0-1.865,0.871-3.629,3.198-5.154
				c2.327-1.528,8.825-4.624,8.825-12.768c0-8.142-6.823-13.739-12.559-14.927C16.808,0.304,10.594,1.084,6.186,5.915
				c-3.949,4.324-4.781,7.747-4.781,15.297h8.848v-1.756c0-4.021,0.465-8.269,6.212-9.428c3.137-0.636,6.078,0.35,7.821,2.055
				c1.995,1.951,2.011,6.347-1.168,8.534L18.13,24.01c-2.908,1.866-3.906,3.944-3.906,6.998V41.236z"/>
		</g>
		<rect x="14.167" y="44.707" fill="#F6FF00" width="8.976" height="9.118"/>
	</g>
	<g>
		<path fill="#FFA800" d="M16.458,10.021c-1.897,0.383-3.21,1.106-4.129,2.043l2.002,2.002c0.919-0.937,2.232-1.66,4.129-2.043
			c2.488-0.504,4.843,0.021,6.585,1.107c-0.209-0.396-0.461-0.756-0.766-1.055C22.536,10.371,19.595,9.386,16.458,10.021z"/>
		<path fill="#FFA800" d="M28.272,31.18c1.118-0.734,3.196-1.838,5.058-3.683l-2.003-2.001c-1.86,1.844-3.938,2.947-5.057,3.682
			c-0.661,0.434-1.192,0.888-1.632,1.355l2.002,2.002C27.08,32.066,27.611,31.613,28.272,31.18z"/>
	</g>
	<polygon fill="#FFA800" points="12.25,23.23 3.407,23.23 1.405,21.184 10.249,21.184 	"/>
	<polygon fill="#FFA800" points="25.08,43.262 16.221,43.262 14.219,41.215 23.078,41.215 	"/>
	<polygon fill="#FFA800" points="25.135,55.832 16.151,55.832 14.149,53.816 23.133,53.816 	"/>
</g>
</svg>
