<?xml version="1.0" encoding="utf-8"?>
<!-- Generator: Adobe Illustrator 16.0.0, SVG Export Plug-In . SVG Version: 6.00 Build 0)  -->
<!DOCTYPE svg PUBLIC "-//W3C//DTD SVG 1.1//EN" "http://www.w3.org/Graphics/SVG/1.1/DTD/svg11.dtd">
<svg version="1.1" id="Layer_1" xmlns="http://www.w3.org/2000/svg" xmlns:xlink="http://www.w3.org/1999/xlink" x="0px" y="0px"
	 width="29px" height="44px" viewBox="0 0 29 44" enable-background="new 0 0 29 44" xml:space="preserve">
<g>
	<g>
		<g>
			<path fill="#FFE100" d="M12.116,32.68l6.641-0.016v-5.158c0-1.398,0.653-2.723,2.399-3.865c1.745-1.147,6.618-3.468,6.618-9.576
				c0-6.106-5.117-10.305-9.419-11.195c-4.301-0.89-8.962-0.305-12.268,3.319c-2.962,3.243-3.586,5.81-3.586,11.473h6.636v-1.317
				c0-3.016,0.349-6.201,4.659-7.07c2.353-0.477,4.559,0.262,5.865,1.541c1.497,1.463,1.509,4.76-0.876,6.4l-3.74,2.545
				c-2.181,1.399-2.93,2.958-2.93,5.249V32.68z"/>
		</g>
		<polygon fill="#FFE100" points="12.074,42.121 12.074,35.281 17.297,33.793 18.806,35.281 18.806,42.121 		"/>
	</g>
	<g>
		<g>
			<path fill="#F6FF00" d="M10.615,31.178l6.641-0.014v-5.16c0-1.398,0.653-2.721,2.398-3.866c1.745-1.146,6.619-3.468,6.619-9.575
				c0-6.106-5.117-10.305-9.419-11.195c-4.301-0.89-8.962-0.305-12.269,3.319C1.624,7.93,1,10.497,1,16.159h6.636v-1.316
				c0-3.016,0.349-6.202,4.659-7.071c2.353-0.477,4.559,0.262,5.866,1.541c1.496,1.463,1.508,4.76-0.876,6.401l-3.74,2.544
				c-2.182,1.399-2.93,2.958-2.93,5.249V31.178z"/>
		</g>
		<rect x="10.572" y="33.781" fill="#F6FF00" width="6.731" height="6.838"/>
	</g>
	<g>
		<path fill="#FFA800" d="M12.291,7.766c-1.424,0.287-2.408,0.83-3.097,1.532l1.501,1.501c0.689-0.702,1.674-1.245,3.097-1.532
			c1.866-0.378,3.632,0.016,4.938,0.831c-0.156-0.297-0.346-0.567-0.574-0.791C16.85,8.028,14.644,7.29,12.291,7.766z"/>
		<path fill="#FFA800" d="M21.151,23.635c0.839-0.551,2.397-1.378,3.793-2.762l-1.502-1.5c-1.396,1.383-2.954,2.21-3.792,2.761
			c-0.496,0.325-0.895,0.666-1.225,1.017l1.502,1.502C20.257,24.301,20.655,23.961,21.151,23.635z"/>
	</g>
	<polygon fill="#FFA800" points="9.135,17.673 2.502,17.673 1,16.138 7.633,16.138 	"/>
	<polygon fill="#FFA800" points="18.757,32.697 12.112,32.697 10.611,31.162 17.256,31.162 	"/>
	<polygon fill="#FFA800" points="18.798,42.125 12.06,42.125 10.559,40.613 17.297,40.613 	"/>
</g>
</svg>
