<?xml version="1.0" encoding="utf-8"?>
<!-- Generator: Adobe Illustrator 16.0.0, SVG Export Plug-In . SVG Version: 6.00 Build 0)  -->
<!DOCTYPE svg PUBLIC "-//W3C//DTD SVG 1.1//EN" "http://www.w3.org/Graphics/SVG/1.1/DTD/svg11.dtd">
<svg version="1.1" id="Layer_1" xmlns="http://www.w3.org/2000/svg" xmlns:xlink="http://www.w3.org/1999/xlink" x="0px" y="0px"
	 width="18px" height="18px" viewBox="0 0 18 18" enable-background="new 0 0 18 18" xml:space="preserve">
<path fill="#353535" d="M16.343,12.272L17,9.776l-1.804-0.78c0-0.013,0-0.026,0-0.038c0-0.477-0.058-0.941-0.156-1.387l1.597-1.387
	l-1.311-2.181l-1.887,0.622c-0.347-0.355-0.733-0.671-1.156-0.937V1.749L9.889,1L9.01,2.743c0,0-0.003,0-0.004,0
	c-0.53,0-1.043,0.067-1.533,0.193L6.294,1.482L4.015,2.731l0.542,1.91c-0.33,0.344-0.621,0.725-0.868,1.137L1.677,5.619L1,8.104
	l1.814,0.862c0,0.486,0.06,0.961,0.165,1.418l-1.548,1.333l1.187,2.225l2-0.601c0.357,0.359,0.756,0.673,1.188,0.938l-0.083,2.004
	L8.091,17l0.877-1.826c0.013,0,0.025,0.001,0.038,0.001c0.479,0,0.945-0.059,1.396-0.162l1.325,1.533l2.349-1.273l-0.637-1.982
	c0.34-0.351,0.637-0.741,0.889-1.163L16.343,12.272z M5.459,8.959c0-1.973,1.588-3.57,3.546-3.57c1.957,0,3.544,1.597,3.544,3.57
	c0,1.97-1.587,3.569-3.544,3.569C7.048,12.528,5.459,10.929,5.459,8.959z"/>
</svg>
