<?xml version="1.0" encoding="utf-8"?>
<!-- Generator: Adobe Illustrator 16.0.0, SVG Export Plug-In . SVG Version: 6.00 Build 0)  -->
<!DOCTYPE svg PUBLIC "-//W3C//DTD SVG 1.1//EN" "http://www.w3.org/Graphics/SVG/1.1/DTD/svg11.dtd">
<svg version="1.1" id="Layer_1" xmlns="http://www.w3.org/2000/svg" xmlns:xlink="http://www.w3.org/1999/xlink" x="0px" y="0px"
	 width="420px" height="64px" viewBox="0 0 420 64" enable-background="new 0 0 420 64" xml:space="preserve">
<g>
	<path fill="#FFFFFF" d="M403.344,63.999h2.002V51.506c7.542-0.9,13.409-7.353,13.409-15.154c0-4.279-1.819-8.388-4.992-11.281
		l-19.03-19.087c-2.886-3.168-6.977-4.984-11.23-4.984l0,0L381.5,0.944v0.151H15.342h-0.045l-0.045,0.002
		C7.123,1.464,0.755,8.138,0.755,16.289c0,4.267,1.81,8.357,4.97,11.244c1.033,1.138,2.218,2.102,3.532,2.876v33.59h2.002V29.204
		c-1.571-0.755-2.966-1.808-4.117-3.093c-2.686-2.419-4.385-5.917-4.385-9.822c0-7.098,5.583-12.87,12.585-13.186
		c0,0,368.009,0,368.011,0s0.064,0.004,0.148,0.008V3.007 M383.502,3.007c3.883,0,7.363,1.69,9.781,4.363l19.098,19.154
		c2.679,2.425,4.372,5.924,4.372,9.827c0,7.319-5.917,13.253-13.216,13.253v-0.138l-0.193-0.194v14.727"/>
	<rect x="31.296" y="28.808" fill="#FFA800" width="372.05" height="35.168"/>
	<rect x="11.26" y="21.814" fill="#FFE100" width="372.049" height="42.161"/>
	<g>
		<path fill="#FF8400" d="M385.027,4.122c0,0-0.665-0.037-0.67-0.037c-0.003,0-368.012,0-368.012,0
			C9.344,4.4,3.76,10.172,3.76,17.271c0,7.29,5.887,13.202,13.157,13.213v0.003c0.005,0,0.01,0,0.015,0c0.002,0,0.004,0,0.007,0
			c5.695-0.003,10.961-0.913,15.269-2.456c3.299-0.748,6.948-1.175,10.806-1.175c4.099,0,7.973,0.475,11.431,1.312
			c4.241,1.463,9.377,2.319,14.915,2.319c5.378,0,10.377-0.809,14.546-2.194c3.576-0.913,7.611-1.437,11.898-1.437
			c4.099,0,7.973,0.475,11.431,1.312c4.241,1.463,9.377,2.319,14.915,2.319c4.75,0,9.203-0.633,13.052-1.735v0.003
			c3.845-1.101,8.285-1.737,13.029-1.737c4.676,0,9.059,0.618,12.866,1.686v-0.003c3.913,1.153,8.467,1.816,13.335,1.816
			c4.875,0,9.438-0.665,13.354-1.822c-0.038,0.011-0.073,0.024-0.112,0.035v0.025c3.845-1.101,8.286-1.737,13.03-1.737
			c4.676,0,9.059,0.618,12.866,1.686v-0.003c3.912,1.153,8.467,1.816,13.334,1.816c4.891,0,9.465-0.669,13.391-1.833
			c3.783-1.055,8.126-1.666,12.762-1.666c4.677,0,9.059,0.618,12.866,1.686v-0.003c3.913,1.153,8.468,1.816,13.335,1.816
			c4.875,0,9.438-0.665,13.354-1.822c-0.038,0.011-0.073,0.024-0.112,0.035v0.025c3.846-1.101,8.286-1.737,13.03-1.737
			c4.677,0,9.059,0.618,12.866,1.686v-0.003c3.912,1.153,8.467,1.816,13.334,1.816c5.121,0,9.896-0.734,13.94-2
			c3.692-0.989,7.896-1.563,12.376-1.563c4.465,0,8.656,0.567,12.341,1.548c4.048,1.274,8.831,2.014,13.962,2.016
			c0.004,0,0.005,0,0.008,0c0.005,0,0.01,0,0.015,0c7.269-0.014,13.157-5.923,13.157-13.216
			C397.529,10.232,391.99,4.477,385.027,4.122z"/>
	</g>
	<g>
		<path fill="#00FF0C" d="M384.025,3.117c0,0-0.665-0.037-0.67-0.037c-0.003,0-368.012,0-368.012,0
			C8.341,3.396,2.758,9.168,2.758,16.266c0,7.29,5.887,13.202,13.156,13.213v0.003c0.005,0,0.01,0,0.015,0c0.002,0,0.004,0,0.007,0
			c5.695-0.003,10.962-0.913,15.269-2.455c3.299-0.749,6.948-1.176,10.805-1.176c4.1,0,7.973,0.475,11.432,1.312
			c4.241,1.463,9.377,2.319,14.915,2.319c5.378,0,10.377-0.809,14.546-2.194c3.576-0.913,7.611-1.437,11.898-1.437
			c4.099,0,7.973,0.475,11.431,1.312c4.241,1.463,9.377,2.319,14.915,2.319c4.75,0,9.203-0.633,13.052-1.735v0.003
			c3.845-1.101,8.285-1.736,13.029-1.736c4.676,0,9.059,0.617,12.866,1.685v-0.003c3.913,1.154,8.467,1.816,13.334,1.816
			c4.876,0,9.438-0.665,13.355-1.822c-0.038,0.011-0.074,0.024-0.112,0.035v0.025c3.845-1.101,8.286-1.736,13.03-1.736
			c4.676,0,9.059,0.617,12.866,1.685v-0.003c3.912,1.154,8.467,1.816,13.334,1.816c4.891,0,9.465-0.669,13.391-1.833
			c3.783-1.055,8.125-1.665,12.762-1.665c4.677,0,9.059,0.617,12.866,1.685v-0.003c3.912,1.154,8.468,1.816,13.335,1.816
			c4.875,0,9.438-0.665,13.354-1.822c-0.038,0.011-0.073,0.024-0.112,0.035v0.025c3.846-1.101,8.286-1.736,13.03-1.736
			c4.677,0,9.059,0.617,12.866,1.685v-0.003c3.912,1.154,8.467,1.816,13.334,1.816c5.121,0,9.896-0.734,13.939-2
			c3.693-0.989,7.896-1.563,12.377-1.563c4.465,0,8.656,0.568,12.341,1.548c4.048,1.274,8.831,2.014,13.962,2.016
			c0.004,0,0.005,0,0.008,0c0.005,0,0.01,0,0.015,0c7.269-0.014,13.157-5.923,13.157-13.216
			C396.527,9.228,390.988,3.472,384.025,3.117z"/>
	</g>
	<rect x="383.304" y="29.386" fill="#FFA800" width="1.548" height="1.191"/>
	<g>
		<polygon fill="#00F20C" points="403.164,35.745 383.625,16.153 392.844,6.906 412.383,26.5 		"/>
		<path fill="#00FF0C" d="M383.502,2.983c7.299,0,13.216,5.934,13.216,13.252c0,7.319-5.917,13.253-13.216,13.253"/>
		<path fill="#00F20C" d="M403.539,23.076c7.299,0,13.215,5.933,13.215,13.252s-5.916,13.253-13.215,13.253"/>
		<path fill="#00E60B" d="M403.539,49.581c7.299,0,13.215-5.934,13.215-13.253H403.51"/>
		<polygon fill="#00E60B" points="416.738,36.37 396.798,16.374 383.617,29.593 403.211,49.241 403.344,49.374 403.558,49.587 		"/>
		<path fill="#00FF0C" d="M383.502,29.488c7.299,0,13.216-5.934,13.216-13.253h-13.244"/>
	</g>
	<g>
		<path fill="#03DD08" d="M383.448,29.521c-5.024-0.002-9.903-0.706-14.134-2.039c-3.797-1.01-7.906-1.524-12.191-1.524
			c-4.299,0-8.42,0.521-12.247,1.547c-4.208,1.318-9.079,2.017-14.069,2.017c-4.718,0-9.358-0.63-13.424-1.821
			c-0.016-0.003-0.03-0.007-0.045-0.011c-7.837-2.196-17.834-2.179-25.623,0.051c-0.053,0.017-0.107,0.026-0.162,0.019
			c-4.016,1.154-8.579,1.763-13.219,1.763c-4.718,0-9.358-0.63-13.424-1.821c-0.016-0.003-0.031-0.007-0.046-0.011
			c-7.737-2.169-17.589-2.185-25.359-0.02c-4.083,1.211-8.763,1.852-13.524,1.852c-4.718,0-9.358-0.63-13.424-1.821
			c-0.016-0.003-0.03-0.007-0.045-0.011c-7.837-2.196-17.833-2.179-25.624,0.051c-0.052,0.017-0.108,0.026-0.162,0.019
			c-4.016,1.154-8.579,1.763-13.219,1.763c-4.718,0-9.358-0.63-13.424-1.821c-0.015-0.003-0.03-0.007-0.045-0.011
			c-7.836-2.196-17.833-2.179-25.623,0.051c-0.017,0.005-0.035,0.009-0.052,0.012c-3.997,1.139-8.538,1.74-13.137,1.74
			c-5.412,0-10.626-0.812-15.078-2.347c-3.512-0.847-7.318-1.284-11.269-1.284c-4.12,0-8.082,0.479-11.775,1.421
			c-4.335,1.442-9.419,2.21-14.669,2.21c-5.412,0-10.626-0.812-15.078-2.347c-3.511-0.847-7.318-1.284-11.268-1.284
			c-3.698,0-7.296,0.391-10.695,1.163c-4.475,1.606-9.813,2.465-15.379,2.468c-0.133,0-0.271-0.053-0.365-0.146
			c-0.094-0.095-0.158-0.222-0.158-0.355c0-0.29,0.252-0.518,0.539-0.502c5.46-0.007,10.668-0.846,15.084-2.426
			c3.529-0.805,7.202-1.205,10.974-1.205c4.029,0,7.915,0.446,11.548,1.325c4.394,1.513,9.495,2.306,14.798,2.306
			c5.145,0,10.12-0.75,14.388-2.169c3.808-0.974,7.853-1.462,12.056-1.462c4.029,0,7.915,0.446,11.548,1.325
			c4.394,1.513,9.495,2.306,14.798,2.306c4.528,0,8.993-0.593,12.915-1.715c0.017-0.005,0.035-0.01,0.052-0.014
			c7.939-2.261,18.078-2.278,26.063-0.052c0.02,0.003,0.039,0.008,0.058,0.014c3.987,1.175,8.55,1.796,13.193,1.796
			c4.652,0,9.222-0.623,13.213-1.802l0.004,0.015c0.017-0.002,0.034-0.004,0.051-0.002c7.921-2.23,18.004-2.237,25.952-0.021
			c0.02,0.003,0.039,0.008,0.059,0.014c3.988,1.175,8.55,1.796,13.193,1.796c4.668,0,9.249-0.626,13.248-1.812
			c7.941-2.214,17.951-2.199,25.854,0.003c0.02,0.003,0.039,0.008,0.059,0.014c3.987,1.175,8.55,1.796,13.193,1.796
			c4.652,0,9.222-0.623,13.213-1.802l0.004,0.015c0.017-0.002,0.033-0.004,0.052-0.002c7.921-2.23,18.004-2.237,25.952-0.021
			c0.02,0.003,0.039,0.008,0.059,0.014c3.988,1.175,8.55,1.796,13.193,1.796c4.89,0,9.658-0.683,13.791-1.977
			c3.932-1.055,8.139-1.587,12.525-1.587c4.372,0,8.567,0.526,12.47,1.565c4.156,1.308,8.933,1.996,13.833,1.998
			c0.277,0,0.512,0.225,0.512,0.502S383.725,29.521,383.448,29.521z"/>
	</g>
</g>
</svg>
