<?xml version="1.0" encoding="utf-8"?>
<!-- Generator: Adobe Illustrator 16.0.0, SVG Export Plug-In . SVG Version: 6.00 Build 0)  -->
<!DOCTYPE svg PUBLIC "-//W3C//DTD SVG 1.1//EN" "http://www.w3.org/Graphics/SVG/1.1/DTD/svg11.dtd">
<svg version="1.1" id="Layer_1" xmlns="http://www.w3.org/2000/svg" xmlns:xlink="http://www.w3.org/1999/xlink" x="0px" y="0px"
	 width="77px" height="77px" viewBox="0 0 77 77" enable-background="new 0 0 77 77" xml:space="preserve">
<g>
	<polyline fill="#EBEBEB" points="65.756,13.398 68.875,16.203 65.756,7.922 60.612,8.665 	"/>
	<g>
		<path fill="none" d="M4.037,41.107c0,9.486,3.556,18.135,9.399,24.697c6.551,5.854,15.187,9.416,24.655,9.416
			c20.469,0,37.063-16.623,37.063-37.125c0-9.485-3.557-18.135-9.398-24.697C59.203,7.545,50.568,3.983,41.1,3.983
			C20.63,3.983,4.037,20.604,4.037,41.107z"/>
		<path fill="#EBEBEB" d="M4.037,41.107C4.037,20.604,20.63,3.983,41.1,3.983c9.469,0,18.104,3.562,24.656,9.415
			C58.967,5.775,49.092,0.971,38.091,0.971c-20.469,0-37.062,16.621-37.062,37.125c0,11.018,4.797,20.91,12.407,27.709
			C7.592,59.242,4.037,50.594,4.037,41.107z"/>
	</g>
	<line fill="none" x1="11.542" y1="11.577" x2="14.981" y2="15.016"/>
	<g>
		<path fill="none" d="M65.756,13.398C59.203,7.545,50.568,3.983,41.1,3.983c-10.404,0-19.8,4.3-26.532,11.214
			C14.568,15.197,71.598,19.961,65.756,13.398z"/>
		<path fill="#E0E0E0" d="M13.436,65.805c-5.844-6.562-9.399-15.211-9.399-24.697c0-10.082,4.019-19.221,10.531-25.91l-3.01-3.01
			C5.046,18.877,1.029,28.014,1.029,38.096C1.029,49.113,5.826,59.006,13.436,65.805z"/>
	</g>
	<g>
		<circle fill="none" cx="38.926" cy="38.646" r="37"/>
		<path fill="#FAFAFA" d="M77,0H0v77h77V0z M38.926,75.646c-20.435,0-37-16.564-37-37c0-20.434,16.565-37,37-37
			c20.435,0,37,16.566,37,37C75.926,59.082,59.361,75.646,38.926,75.646z"/>
	</g>
</g>
</svg>
