<?xml version="1.0" encoding="utf-8"?>
<!-- Generator: Adobe Illustrator 16.0.0, SVG Export Plug-In . SVG Version: 6.00 Build 0)  -->
<!DOCTYPE svg PUBLIC "-//W3C//DTD SVG 1.1//EN" "http://www.w3.org/Graphics/SVG/1.1/DTD/svg11.dtd">
<svg version="1.1" id="Layer_1" xmlns="http://www.w3.org/2000/svg" xmlns:xlink="http://www.w3.org/1999/xlink" x="0px" y="0px"
	 width="58px" height="58px" viewBox="0 0 58 58" enable-background="new 0 0 58 58" xml:space="preserve">
<g>
	<polyline fill="#EBEBEB" points="49.113,9.599 51.98,12.001 50.547,6.271 45.646,5.438 45.73,6.605 	"/>
	<g>
		<path fill="none" d="M2.824,30.381c0,7.115,2.667,13.602,7.049,18.523c4.913,4.391,11.39,7.062,18.492,7.062
			c15.352,0,27.797-12.469,27.797-27.845c0-7.114-2.667-13.601-7.049-18.523c-4.914-4.39-11.391-7.061-18.492-7.061
			C15.27,2.538,2.824,15.004,2.824,30.381z"/>
		<path fill="#EBEBEB" d="M2.824,30.381c0-15.377,12.445-27.843,27.797-27.843c7.102,0,13.578,2.671,18.492,7.061
			c-5.092-5.717-12.498-9.321-20.748-9.321c-15.352,0-27.797,12.466-27.797,27.844c0,8.263,3.598,15.683,9.305,20.782
			C5.491,43.982,2.824,37.496,2.824,30.381z"/>
	</g>
	<line fill="none" x1="8.453" y1="8.233" x2="11.032" y2="10.812"/>
	<g>
		<path fill="none" d="M49.113,9.599c-4.914-4.39-11.391-7.061-18.492-7.061c-7.803,0-14.85,3.225-19.898,8.41
			C10.723,10.948,53.495,14.521,49.113,9.599z"/>
		<path fill="#E0E0E0" d="M9.874,48.904c-4.383-4.922-7.049-11.408-7.049-18.523c0-7.562,3.014-14.416,7.898-19.433L8.465,8.691
			c-4.884,5.017-7.897,11.87-7.897,19.431C0.568,36.385,4.166,43.805,9.874,48.904z"/>
	</g>
	<g>
		<circle fill="none" cx="28.991" cy="28.535" r="27.75"/>
		<path fill="#FAFAFA" d="M0,58h58V0H0V58z M28.991,0.785c15.326,0,27.75,12.425,27.75,27.75c0,15.326-12.424,27.75-27.75,27.75
			c-15.326,0-27.75-12.424-27.75-27.75C1.241,13.21,13.666,0.785,28.991,0.785z"/>
	</g>
</g>
</svg>
