<?xml version="1.0" encoding="utf-8"?>
<!-- Generator: Adobe Illustrator 16.0.0, SVG Export Plug-In . SVG Version: 6.00 Build 0)  -->
<!DOCTYPE svg PUBLIC "-//W3C//DTD SVG 1.1//EN" "http://www.w3.org/Graphics/SVG/1.1/DTD/svg11.dtd">
<svg version="1.1" id="Layer_1" xmlns="http://www.w3.org/2000/svg" xmlns:xlink="http://www.w3.org/1999/xlink" x="0px" y="0px"
	 width="52px" height="53px" viewBox="0 0 52 53" enable-background="new 0 0 52 53" xml:space="preserve">
<g>
	<polyline fill="#EBEBEB" points="44.145,9.6 47,12.016 46.219,7.453 39.844,4.766 39.766,6.172 	"/>
	<g>
		<path fill="none" d="M2.999,28.072c0,6.324,2.371,12.09,6.267,16.465c4.367,3.902,10.124,6.277,16.436,6.277
			c13.646,0,24.709-11.082,24.709-24.75c0-6.324-2.371-12.09-6.266-16.465C39.776,5.697,34.02,3.323,27.707,3.323
			C14.061,3.323,2.999,14.403,2.999,28.072z"/>
		<path fill="#EBEBEB" d="M2.999,28.072c0-13.669,11.062-24.749,24.708-24.749c6.312,0,12.069,2.374,16.438,6.276
			c-4.525-5.082-11.109-8.286-18.443-8.286c-13.645,0-24.708,11.082-24.708,24.751c0,7.345,3.198,13.94,8.271,18.473
			C5.369,40.162,2.999,34.396,2.999,28.072z"/>
	</g>
	<line fill="none" x1="8.002" y1="8.385" x2="10.295" y2="10.678"/>
	<g>
		<path fill="none" d="M44.145,9.6C39.776,5.697,34.02,3.323,27.707,3.323c-6.936,0-13.2,2.866-17.688,7.476
			C10.02,10.799,48.039,13.975,44.145,9.6z"/>
		<path fill="#E0E0E0" d="M9.265,44.537c-3.896-4.375-6.267-10.141-6.267-16.465c0-6.722,2.679-12.813,7.021-17.273L8.013,8.792
			c-4.341,4.46-7.02,10.551-7.02,17.272C0.994,33.409,4.191,40.005,9.265,44.537z"/>
	</g>
	<g>
		<circle fill="none" cx="26.258" cy="26.432" r="24.667"/>
		<path fill="#FAFAFA" d="M0,53h52V0H0V53z M26.258,1.765c13.623,0,24.667,11.045,24.667,24.667
			c0,13.624-11.044,24.667-24.667,24.667c-13.623,0-24.666-11.043-24.666-24.667C1.592,12.81,12.635,1.765,26.258,1.765z"/>
	</g>
</g>
</svg>
