<?xml version="1.0" encoding="utf-8"?>
<!-- Generator: Adobe Illustrator 16.0.0, SVG Export Plug-In . SVG Version: 6.00 Build 0)  -->
<!DOCTYPE svg PUBLIC "-//W3C//DTD SVG 1.1//EN" "http://www.w3.org/Graphics/SVG/1.1/DTD/svg11.dtd">
<svg version="1.1" id="Layer_1" xmlns="http://www.w3.org/2000/svg" xmlns:xlink="http://www.w3.org/1999/xlink" x="0px" y="0px"
	 width="52px" height="52px" viewBox="0 0 52 52" enable-background="new 0 0 52 52" xml:space="preserve">
<g>
	<path fill="#00DDFF" d="M50.135,24.691c0-13.038-10.606-23.646-23.646-23.646c-13.039,0-23.646,10.607-23.646,23.646
		s10.607,23.646,23.646,23.646C39.528,48.337,50.135,37.729,50.135,24.691z M19.575,36.785c-0.054,0.576-0.116,1.23-0.188,1.967
		c-0.073,0.737-0.144,1.48-0.215,2.236c-0.073,0.754-0.127,1.418-0.163,1.993c-2.439-1.008-4.583-2.441-6.431-4.311
		C10.73,36.805,9.304,34.63,8.3,32.152c-0.719-1.795-1.177-3.616-1.372-5.466c-0.199-1.851-0.154-3.691,0.134-5.522
		c0.321,0.537,0.717,1.024,1.183,1.452c0.466,0.432,0.934,0.809,1.4,1.132c0.465,0.326,0.914,0.596,1.345,0.808
		c0.43,0.217,0.771,0.378,1.023,0.486c0.608,0.287,1.271,0.511,1.989,0.671c0.718,0.163,1.399,0.407,2.045,0.729
		c0.144,0.108,0.341,0.287,0.593,0.54c0.142,0.106,0.34,0.286,0.591,0.538c0.073,0.035,0.134,0.074,0.189,0.108
		c0.052,0.035,0.115,0.09,0.189,0.16c0,0.183-0.028,0.433-0.081,0.753c-0.056,0.326-0.064,0.848-0.028,1.565
		c0.036,0.791,0.207,1.473,0.512,2.046c0.305,0.575,0.601,1.096,0.888,1.564l0.323,0.481c0.357,0.54,0.519,1.008,0.483,1.402
		C19.672,35.815,19.627,36.212,19.575,36.785z M32.652,43.467c-3.213,1.078-6.521,1.293-9.93,0.646
		c0.144-0.252,0.287-0.557,0.43-0.917c0.144-0.286,0.305-0.628,0.485-1.021c0.18-0.397,0.412-0.827,0.701-1.294
		c0-0.538,0.08-0.997,0.24-1.374c0.162-0.376,0.333-0.691,0.513-0.943c0.214-0.286,0.448-0.538,0.698-0.753
		c0.719-0.465,1.346-0.98,1.885-1.536c0.538-0.558,0.842-0.997,0.914-1.32c0.108-0.285,0.206-0.779,0.297-1.48
		c0.089-0.701,0.135-1.409,0.135-2.128c0-0.358-0.135-0.676-0.404-0.943c-0.27-0.271-0.618-0.537-1.05-0.807
		c-0.431-0.271-0.914-0.583-1.452-0.942c-0.539-0.361-1.061-0.81-1.562-1.351c-0.503-0.573-1.031-0.967-1.587-1.182
		c-0.557-0.217-1.113-0.342-1.669-0.378c-0.556-0.037-1.094-0.029-1.613,0.027c-0.521,0.052-0.979,0.08-1.373,0.08
		c-0.073,0-0.126-0.008-0.161-0.028c-0.037-0.019-0.09-0.026-0.161-0.026c-0.072-0.106-0.216-0.231-0.432-0.376l-0.322-0.162
		c0-0.036,0.009-0.071,0.028-0.109c0.017-0.032,0.062-0.123,0.134-0.27c0.106-0.105,0.125-0.25,0.054-0.429
		c-0.073-0.145-0.198-0.215-0.377-0.215c-0.072,0-0.153,0.009-0.242,0.025c-0.091,0.02-0.188,0.027-0.296,0.027
		c-0.037-0.181-0.09-0.342-0.162-0.483c-0.072-0.145-0.134-0.296-0.187-0.46c-0.055-0.161-0.102-0.328-0.136-0.512
		c0.502,0.397,0.933,0.693,1.292,0.89c0.359,0.198,0.664,0.335,0.915,0.404c0.25,0.108,0.466,0.144,0.646,0.108
		c0.395-0.072,0.619-0.467,0.673-1.187c0.053-0.718,0.026-1.545-0.082-2.479c0.108-0.143,0.179-0.287,0.215-0.429
		c0.108-0.573,0.271-0.972,0.486-1.186c0.106-0.143,0.233-0.233,0.375-0.271c0.108-0.035,0.161-0.071,0.161-0.107
		c0.073-0.106,0.198-0.18,0.377-0.214c0.18-0.038,0.359-0.071,0.539-0.11c0.358,0,0.681-0.071,0.968-0.213
		c0.252-0.146,0.304-0.323,0.163-0.541c0-0.034-0.01-0.053-0.027-0.053c-0.019,0-0.027-0.017-0.027-0.055
		c0.144-0.068,0.269-0.141,0.376-0.213c0.108-0.075,0.198-0.146,0.27-0.217c0.143-0.18,0.286-0.359,0.43-0.538
		c0.287-0.36,0.539-0.72,0.753-1.079c-0.18-0.287-0.385-0.537-0.619-0.753c-0.234-0.216-0.441-0.396-0.619-0.537
		c-0.216-0.146-0.431-0.271-0.646-0.381c-0.252-0.321-0.592-0.412-1.022-0.268l-0.484-0.161c-0.073-0.035-0.127-0.072-0.162-0.108
		c-0.036-0.035-0.072-0.055-0.107-0.055c-0.324-0.249-0.521-0.394-0.593-0.429c-0.288-0.038-0.502-0.09-0.646-0.163
		c-0.502-0.323-0.968-0.69-1.398-1.104c-0.431-0.412-0.754-0.853-0.969-1.32c-0.215-0.499-0.637-0.779-1.264-0.834
		c-0.629-0.055-1.248-0.046-1.856,0.025c1.829-1.47,3.821-2.566,5.973-3.286c0.933,0.507,2.036,0.981,3.309,1.429
		c1.274,0.448,2.539,0.675,3.795,0.675c0.179,0,0.35-0.01,0.511-0.029C27.916,8.027,28.086,8,28.267,7.963
		c0.287-0.034,0.564-0.116,0.832-0.24c0.271-0.125,0.53-0.279,0.781-0.458c0.18-0.107,0.351-0.208,0.511-0.297
		c0.162-0.09,0.333-0.171,0.512-0.242c0.467-0.18,0.95-0.242,1.453-0.19c0.502,0.057,1.004,0.137,1.507,0.242
		c0.251,0.073,0.512,0.136,0.78,0.19c0.27,0.052,0.547,0.082,0.834,0.082c1.328,0.72,2.619,1.613,3.875,2.691
		c-0.61,0.036-1.256,0.101-1.938,0.188c-0.683,0.094-1.346,0.227-1.99,0.405c-0.646,0.182-1.239,0.412-1.776,0.701
		c-0.54,0.288-0.934,0.646-1.186,1.078c-0.395,0.647-0.671,1.193-0.832,1.642c-0.162,0.448-0.27,0.836-0.324,1.158
		c-0.053,0.322-0.091,0.594-0.107,0.807c-0.017,0.218-0.081,0.433-0.188,0.646c-0.108,0.218-0.242,0.377-0.404,0.485
		c-0.161,0.109-0.297,0.234-0.403,0.379c-0.107,0.143-0.153,0.331-0.134,0.565c0.017,0.233,0.134,0.566,0.35,0.996
		c0.106,0.251,0.195,0.558,0.268,0.916c0.216,0,0.449-0.019,0.699-0.055c0.182-0.035,0.396-0.078,0.646-0.134
		c0.251-0.054,0.467-0.17,0.646-0.351l3.552,0.325c0.323-0.397,0.663-0.649,1.022-0.755c0.18-0.072,0.377-0.127,0.591-0.163
		c0.18,0.036,0.378,0.129,0.593,0.269c0.18,0.146,0.413,0.363,0.699,0.649c0.287,0.285,0.593,0.717,0.916,1.293l-1.507,1.021
		c-0.359-0.107-0.791-0.323-1.292-0.645c-0.251-0.144-0.502-0.304-0.753-0.486c-0.289-0.144-0.674-0.226-1.157-0.244
		c-0.484-0.017-1.014,0-1.588,0.055c-0.574,0.054-1.131,0.127-1.668,0.216c-0.539,0.093-1.005,0.156-1.4,0.191l-0.215,0.429
		c-0.071,0.106-0.152,0.207-0.241,0.296c-0.09,0.092-0.226,0.152-0.404,0.188c-0.036,0.109-0.054,0.288-0.054,0.539
		c0,0.107-0.018,0.196-0.054,0.269c-0.682,1.078-0.914,2.21-0.699,3.393c0.395,1.869,1.362,2.805,2.906,2.805h0.161h0.43
		c0.754,0,1.282,0.034,1.587,0.107c0.305,0.074,0.458,0.125,0.458,0.159c-0.18,0.434-0.241,0.776-0.188,1.026
		c0.054,0.251,0.151,0.521,0.295,0.808l0.162,0.322c0.181,0.396,0.26,0.783,0.242,1.159c-0.02,0.376-0.062,0.763-0.135,1.156
		c0,0.108-0.009,0.217-0.026,0.325c-0.019,0.108-0.027,0.197-0.027,0.268c-0.072,0.505-0.019,0.98,0.161,1.43
		c0.179,0.448,0.359,0.888,0.539,1.319c0.072,0.181,0.143,0.343,0.216,0.484c0.071,0.145,0.142,0.287,0.215,0.432
		c0,0.106,0.018,0.18,0.053,0.215c0.072,0.287,0.188,0.593,0.35,0.916c0.163,0.323,0.405,0.521,0.728,0.594
		c0.646,0.105,1.453-0.325,2.422-1.293c0.716-0.79,1.13-1.651,1.237-2.587c0.035-0.217,0.099-0.415,0.188-0.593
		c0.089-0.182,0.17-0.357,0.242-0.539c0.071-0.216,0.152-0.422,0.241-0.62c0.091-0.195,0.171-0.421,0.243-0.671v-0.702
		c0.178-0.356,0.331-0.708,0.457-1.051c0.126-0.341,0.188-0.654,0.188-0.94c0-0.145,0.008-0.279,0.027-0.407
		c0.017-0.125,0.025-0.242,0.025-0.348l0.377-0.378c0.144-0.144,0.27-0.269,0.377-0.377c0.109-0.107,0.216-0.234,0.324-0.376
		c0.143-0.218,0.287-0.432,0.431-0.646c0.25-0.432,0.322-0.81,0.214-1.133c-0.035-0.07-0.126-0.145-0.269-0.215l-0.808-0.323
		c0-0.253,0.197-0.378,0.592-0.378c0.179,0,0.396,0.019,0.646,0.052l1.937-1.183c-0.072,2.441-0.548,4.803-1.426,7.084
		c-0.879,2.281-2.179,4.337-3.901,6.166C38.616,40.592,35.862,42.389,32.652,43.467z"/>
	<g>
		<g>
			<path fill="#FF0096" d="M16.78,50.16c-0.011-0.003-0.046-0.017-0.106-0.063l-5.642-5.649L5.34,50.139
				c-0.01,0.008-0.02,0.012-0.033,0.012c-0.024,0-0.056-0.016-0.104-0.053l-3.697-3.704l5.338-5.427l0.353-0.353l-5.666-5.69
				l3.719-3.834l5.427,5.338l0.354,0.354l5.69-5.69l3.833,3.741l-5.338,5.428l-0.354,0.354l5.691,5.691l-3.744,3.834L16.78,50.16z"
				/>
			<path fill="#FFFFFF" d="M16.766,31.753l3.126,3.125l-5.029,5.028l-0.707,0.707l0.707,0.707l5.029,5.029l-3.126,3.127
				l-5.028-5.029l-0.707-0.707l-0.707,0.707l-5.029,5.029L2.169,46.35l5.029-5.029l0.706-0.705L7.2,39.907l-5.009-5.03l3.105-3.123
				l5.028,5.027l0.707,0.707l0.707-0.707L16.766,31.753 M16.767,30.566c-0.153,0-0.286,0.058-0.399,0.171l-5.336,5.337l-5.337-5.337
				c-0.097-0.113-0.226-0.171-0.387-0.171c-0.161,0-0.298,0.058-0.411,0.171l-3.719,3.741c-0.114,0.098-0.169,0.234-0.169,0.41
				c0,0.163,0.055,0.291,0.169,0.388l5.314,5.337l-5.338,5.338c-0.097,0.097-0.145,0.226-0.145,0.388
				c0,0.176,0.048,0.312,0.145,0.408l3.744,3.745c0.145,0.112,0.281,0.169,0.411,0.169c0.145,0,0.273-0.057,0.387-0.169l5.337-5.338
				l5.336,5.338c0.146,0.112,0.281,0.169,0.411,0.169c0.145,0,0.273-0.057,0.386-0.169l3.744-3.745
				c0.112-0.111,0.168-0.243,0.168-0.396c0-0.154-0.056-0.286-0.168-0.399l-5.338-5.338l5.338-5.337
				c0.112-0.111,0.168-0.246,0.168-0.398c0-0.153-0.056-0.285-0.168-0.399l-3.744-3.741C17.052,30.624,16.918,30.566,16.767,30.566
				L16.767,30.566z"/>
		</g>
	</g>
</g>
</svg>
