<?xml version="1.0" encoding="utf-8"?>
<!-- Generator: Adobe Illustrator 16.0.0, SVG Export Plug-In . SVG Version: 6.00 Build 0)  -->
<!DOCTYPE svg PUBLIC "-//W3C//DTD SVG 1.1//EN" "http://www.w3.org/Graphics/SVG/1.1/DTD/svg11.dtd">
<svg version="1.1" id="Layer_1" xmlns="http://www.w3.org/2000/svg" xmlns:xlink="http://www.w3.org/1999/xlink" x="0px" y="0px"
	 width="37px" height="18px" viewBox="-10 11.5 37 18" enable-background="new -10 11.5 37 18" xml:space="preserve">
<g>
	<path fill="#00DDFF" d="M-9,13.989h2.876l0,13.503H-9L-9,13.989z"/>
	<path fill="#00DDFF" d="M-3.304,17.153h2.84v1.467c0.653-0.868,1.494-1.66,2.933-1.66c2.148,0,3.4,1.467,3.399,3.84v6.692H3.027
		v-5.767c0-1.39-0.634-2.104-1.717-2.104s-1.774,0.714-1.774,2.104v5.767h-2.84V17.153z"/>
	<path fill="#00DDFF" d="M8.36,19.661H7.183l0-2.411H8.36v-0.656c0-1.138,0.28-1.967,0.803-2.508
		c0.523-0.54,1.289-0.811,2.298-0.811c0.897,0,1.495,0.117,2.017,0.289v2.431c-0.409-0.154-0.802-0.251-1.288-0.251
		c-0.654,0-1.027,0.348-1.027,1.119v0.405h2.297v2.392h-2.26v7.832h-2.84L8.36,19.661L8.36,19.661z"/>
	<path fill="#00DDFF" d="M14.165,22.382v-0.039c0-2.972,2.316-5.382,5.437-5.382c3.101,0,5.398,2.373,5.398,5.343v0.039
		c0,2.971-2.316,5.382-5.437,5.382C16.463,27.725,14.165,25.352,14.165,22.382z M22.198,22.382v-0.039
		c0-1.523-1.065-2.854-2.635-2.854c-1.625,0-2.598,1.292-2.598,2.814v0.039c0,1.524,1.065,2.855,2.635,2.855
		C21.227,25.198,22.198,23.906,22.198,22.382z"/>
</g>
</svg>
