<?xml version="1.0" encoding="utf-8"?>
<!-- Generator: Adobe Illustrator 16.0.0, SVG Export Plug-In . SVG Version: 6.00 Build 0)  -->
<!DOCTYPE svg PUBLIC "-//W3C//DTD SVG 1.1//EN" "http://www.w3.org/Graphics/SVG/1.1/DTD/svg11.dtd">
<svg version="1.1" id="Layer_1" xmlns="http://www.w3.org/2000/svg" xmlns:xlink="http://www.w3.org/1999/xlink" x="0px" y="0px"
	 width="17px" height="40px" viewBox="0 0 17 40" enable-background="new 0 0 17 40" xml:space="preserve">
<g>
	<path fill="#00DDFF" d="M0.84,40v-3.384h15.887V40H0.84z"/>
	<path fill="#00DDFF" d="M4.562,33.299v-3.341h1.726c-1.021-0.769-1.953-1.758-1.953-3.45c0-2.527,1.725-4,4.517-4h7.875v3.341
		H9.941c-1.634,0-2.474,0.747-2.474,2.021s0.84,2.088,2.474,2.088h6.786v3.341H4.562z"/>
	<path fill="#00DDFF" d="M7.513,19.576v1.385H4.676v-1.385H3.904c-1.338,0-2.314-0.33-2.95-0.945C0.318,18.015,0,17.115,0,15.928
		c0-1.056,0.137-1.759,0.34-2.373H3.2c-0.181,0.482-0.295,0.944-0.295,1.516c0,0.77,0.409,1.209,1.316,1.209h0.477v-2.703h2.814
		v2.659h9.215v3.341H7.513z"/>
	<path fill="#00DDFF" d="M10.714,12.747h-0.046c-3.496,0-6.333-2.726-6.333-6.396C4.335,2.703,7.127,0,10.622,0h0.046
		C14.163,0,17,2.725,17,6.396C17,10.043,14.208,12.747,10.714,12.747z M10.714,3.296h-0.046c-1.793,0-3.358,1.254-3.358,3.1
		c0,1.911,1.52,3.055,3.312,3.055h0.046c1.793,0,3.359-1.253,3.359-3.099C14.027,4.439,12.507,3.296,10.714,3.296z"/>
</g>
</svg>
