<?xml version="1.0" encoding="utf-8"?>
<!-- Generator: Adobe Illustrator 16.0.0, SVG Export Plug-In . SVG Version: 6.00 Build 0)  -->
<!DOCTYPE svg PUBLIC "-//W3C//DTD SVG 1.1//EN" "http://www.w3.org/Graphics/SVG/1.1/DTD/svg11.dtd">
<svg version="1.1" id="Layer_1" xmlns="http://www.w3.org/2000/svg" xmlns:xlink="http://www.w3.org/1999/xlink" x="0px" y="0px"
	 width="131px" height="131px" viewBox="0 0 131 131" enable-background="new 0 0 131 131" xml:space="preserve">
<g>
	<g>
		<path fill="#E0E0E0" d="M871.409-422.832c29.5,0,53.5,24,53.5,53.5s-24,53.5-53.5,53.5s-53.5-24-53.5-53.5
			S841.909-422.832,871.409-422.832 M871.409-431.832c-34.519,0-62.5,27.982-62.5,62.5s27.981,62.5,62.5,62.5
			c34.518,0,62.5-27.982,62.5-62.5S905.927-431.832,871.409-431.832L871.409-431.832z"/>
	</g>
	<g>
		<path fill="#FAFAFA" d="M869.409-424.832c29.5,0,53.5,24,53.5,53.5s-24,53.5-53.5,53.5s-53.5-24-53.5-53.5
			S839.909-424.832,869.409-424.832 M869.409-433.832c-34.519,0-62.5,27.982-62.5,62.5s27.981,62.5,62.5,62.5
			c34.518,0,62.5-27.982,62.5-62.5S903.927-433.832,869.409-433.832L869.409-433.832z"/>
	</g>
</g>
<g>
	<g>
		<path fill="#E0E0E0" d="M871.409-422.832c29.5,0,53.5,24,53.5,53.5s-24,53.5-53.5,53.5s-53.5-24-53.5-53.5
			S841.909-422.832,871.409-422.832 M871.409-431.832c-34.519,0-62.5,27.982-62.5,62.5s27.981,62.5,62.5,62.5
			c34.518,0,62.5-27.982,62.5-62.5S905.927-431.832,871.409-431.832L871.409-431.832z"/>
	</g>
	<g>
		<path fill="#FAFAFA" d="M869.409-424.832c29.5,0,53.5,24,53.5,53.5s-24,53.5-53.5,53.5s-53.5-24-53.5-53.5
			S839.909-424.832,869.409-424.832 M869.409-433.832c-34.519,0-62.5,27.982-62.5,62.5s27.981,62.5,62.5,62.5
			c34.518,0,62.5-27.982,62.5-62.5S903.927-433.832,869.409-433.832L869.409-433.832z"/>
	</g>
</g>
<g>
	<path fill="none" d="M27.185,102.832C36.963,113.381,50.925,120,66.409,120c29.5,0,53.5-24,53.5-53.5s-24-53.5-53.5-53.5
		s-53.5,24-53.5,53.5c0,6.441-0.084,12.609,2.014,18.332"/>
	<path fill="none" d="M22.834,89.165"/>
	<path fill="#E0E0E0" d="M66.409,4c-34.518,0-62.5,27.982-62.5,62.5c0,6.384,0.982,12.533,2.765,18.332l7.5-2
		c-2.098-5.723-1.265-9.891-1.265-16.332c0-29.5,24-53.5,53.5-53.5s53.5,24,53.5,53.5s-24,53.5-53.5,53.5
		c-15.484,0-29.446-6.619-39.224-17.168H15.57C26.908,118.669,45.446,129,66.409,129c34.518,0,62.5-27.982,62.5-62.5
		C128.909,31.982,100.927,4,66.409,4z"/>
	<path fill="none" d="M16.174,84.832c0.54,1.473,1.126,2.924,1.789,4.333h4.872"/>
</g>
<g>
	<path fill="#FAFAFA" d="M64.409,11c29.5,0,53.5,24,53.5,53.5s-24,53.5-53.5,53.5s-53.5-24-53.5-53.5S34.909,11,64.409,11 M64.409,2
		c-34.518,0-62.5,27.982-62.5,62.5c0,34.518,27.982,62.5,62.5,62.5c34.518,0,62.5-27.982,62.5-62.5
		C126.909,29.982,98.927,2,64.409,2L64.409,2z"/>
</g>
</svg>
