<?xml version="1.0" encoding="utf-8"?>
<!-- Generator: Adobe Illustrator 16.0.0, SVG Export Plug-In . SVG Version: 6.00 Build 0)  -->
<!DOCTYPE svg PUBLIC "-//W3C//DTD SVG 1.1//EN" "http://www.w3.org/Graphics/SVG/1.1/DTD/svg11.dtd">
<svg version="1.1" id="Layer_1" xmlns="http://www.w3.org/2000/svg" xmlns:xlink="http://www.w3.org/1999/xlink" x="0px" y="0px"
	 width="363px" height="21px" viewBox="0 0 363 21" enable-background="new 0 0 363 21" xml:space="preserve">
<g>
	<path fill="#FAFAFA" d="M359.238,18.995c-4.596,0-8.977-1.735-12.336-4.887l-0.157-0.157c-0.194-0.201-1.2-1.189-1.202-1.192
		l-0.09-0.092c-2.237-2.368-5.25-3.672-8.484-3.672c-3.235,0-6.247,1.304-8.479,3.671l-0.094,0.095
		c-0.002,0.003-1.017,0.997-1.219,1.208l-0.142,0.139c-3.358,3.152-7.738,4.888-12.333,4.888c-4.596,0-8.977-1.735-12.337-4.886
		l-0.165-0.166c-0.195-0.203-1.194-1.183-1.194-1.183l-0.093-0.095c-2.235-2.367-5.246-3.671-8.479-3.671
		c-3.235,0-6.247,1.304-8.482,3.671l-0.093,0.095c-0.002,0.003-1.017,0.997-1.219,1.208l-0.142,0.14
		c-3.359,3.151-7.74,4.887-12.334,4.887s-8.974-1.735-12.334-4.886l-0.144-0.143c-0.192-0.199-1.217-1.205-1.219-1.207l-0.093-0.094
		c-2.233-2.367-5.245-3.671-8.48-3.671s-6.247,1.304-8.48,3.671l-0.095,0.096c-0.003,0.003-0.999,0.979-1.208,1.197l-0.15,0.149
		c-3.359,3.151-7.74,4.887-12.334,4.887c-4.595,0-8.976-1.735-12.335-4.887l-0.143-0.142c-0.191-0.199-1.217-1.206-1.219-1.208
		l-0.091-0.093c-2.235-2.367-5.247-3.671-8.481-3.671c-3.235,0-6.247,1.304-8.482,3.671l-0.094,0.096
		c-0.002,0.002-1.008,0.987-1.214,1.201l-0.146,0.146c-3.359,3.151-7.739,4.887-12.333,4.887s-8.974-1.735-12.334-4.886l-0.151-0.15
		c-0.193-0.201-1.21-1.198-1.21-1.198l-0.093-0.095c-2.235-2.367-5.247-3.671-8.481-3.671s-6.246,1.304-8.479,3.671l-0.095,0.096
		c-0.002,0.002-1.025,1.006-1.226,1.212l-0.136,0.135c-3.359,3.151-7.74,4.887-12.334,4.887s-8.975-1.735-12.335-4.886l-0.165-0.166
		c-0.195-0.202-1.192-1.182-1.194-1.184l-0.092-0.094c-2.235-2.367-5.248-3.671-8.482-3.671c-3.235,0-6.247,1.304-8.48,3.671
		l-0.093,0.094c-0.002,0.002-1.008,0.99-1.213,1.203l-0.146,0.146c-3.359,3.151-7.74,4.887-12.335,4.887
		c-4.596,0-8.977-1.735-12.336-4.887l-0.157-0.157c-0.193-0.201-1.2-1.189-1.202-1.192l-0.09-0.092
		c-2.237-2.368-5.25-3.672-8.484-3.672c-3.235,0-6.247,1.304-8.479,3.671l-0.094,0.095c-0.002,0.003-1.017,0.997-1.219,1.208
		l-0.142,0.139c-3.358,3.152-7.738,4.888-12.333,4.888c-4.596,0-8.977-1.735-12.337-4.886l-0.165-0.166
		c-0.195-0.203-1.194-1.183-1.194-1.183l-0.093-0.095c-2.235-2.367-5.246-3.671-8.479-3.671c-3.235,0-6.247,1.304-8.482,3.671
		l-0.093,0.095c-0.002,0.003-1.017,0.997-1.219,1.208l-0.142,0.14c-3.359,3.151-7.74,4.887-12.334,4.887v-7
		c2.788,0,5.449-1.048,7.5-2.95c0.301-0.304,1.049-1.041,1.243-1.232c3.566-3.752,8.367-5.817,13.526-5.817
		c5.157,0,9.958,2.066,13.524,5.818c0.193,0.191,0.93,0.917,1.24,1.232c2.053,1.903,4.715,2.95,7.504,2.95
		c2.787,0,5.447-1.047,7.498-2.949c0.299-0.303,1.047-1.04,1.243-1.233c3.564-3.752,8.365-5.818,13.525-5.818
		c5.158,0,9.96,2.065,13.528,5.818c0.19,0.189,0.936,0.924,1.241,1.234c2.051,1.902,4.712,2.948,7.5,2.948s5.448-1.047,7.499-2.949
		c0.306-0.309,1.049-1.042,1.242-1.233c3.565-3.752,8.366-5.818,13.526-5.818c5.158,0,9.96,2.066,13.527,5.818
		c0.192,0.19,0.93,0.918,1.24,1.233c2.052,1.902,4.713,2.949,7.501,2.949s5.449-1.048,7.501-2.951
		c0.295-0.298,1.047-1.038,1.244-1.232c3.564-3.752,8.364-5.817,13.523-5.817s9.959,2.065,13.525,5.817
		c0.194,0.191,0.942,0.929,1.243,1.232c2.053,1.902,4.714,2.95,7.501,2.95s5.447-1.047,7.499-2.95
		c0.306-0.31,1.047-1.04,1.243-1.233c3.566-3.752,8.367-5.817,13.526-5.817s9.96,2.066,13.526,5.818
		c0.192,0.19,0.946,0.934,1.242,1.232c2.051,1.903,4.712,2.95,7.5,2.95s5.449-1.047,7.5-2.95c0.312-0.315,1.047-1.041,1.242-1.232
		c3.565-3.752,8.366-5.817,13.525-5.817s9.961,2.065,13.525,5.817c0.194,0.191,0.948,0.935,1.243,1.232
		c2.053,1.902,4.714,2.95,7.501,2.95c2.788,0,5.448-1.047,7.499-2.95c0.301-0.303,1.05-1.042,1.244-1.233
		c3.566-3.752,8.367-5.817,13.526-5.817c5.157,0,9.958,2.066,13.524,5.818c0.193,0.191,0.93,0.917,1.241,1.232
		c2.052,1.903,4.714,2.95,7.503,2.95c2.787,0,5.447-1.047,7.498-2.949c0.3-0.303,1.049-1.042,1.244-1.234
		c3.564-3.752,8.364-5.817,13.524-5.817c5.158,0,9.96,2.065,13.528,5.818c0.19,0.189,0.935,0.924,1.24,1.233
		c2.052,1.902,4.713,2.949,7.501,2.949V18.995z"/>
</g>
</svg>
