<?xml version="1.0" encoding="utf-8"?>
<!-- Generator: Adobe Illustrator 16.0.0, SVG Export Plug-In . SVG Version: 6.00 Build 0)  -->
<!DOCTYPE svg PUBLIC "-//W3C//DTD SVG 1.1//EN" "http://www.w3.org/Graphics/SVG/1.1/DTD/svg11.dtd">
<svg version="1.1" xmlns="http://www.w3.org/2000/svg" xmlns:xlink="http://www.w3.org/1999/xlink" x="0px" y="0px" width="21px"
	 height="22px" viewBox="-2 -2.5 21 22" enable-background="new -2 -2.5 21 22" xml:space="preserve">
<g id="Layer_1" display="none">
	<g id="Layer_1_1_" display="inline">
		<g>
			<polygon fill="#FF0096" points="13,1.5 10,1.5 10,0.5 5,0.5 5,1.5 2,1.5 1,1.5 1,4.5 2,4.5 2,2.5 13,2.5 13,4.5 12,4.5 3,4.5 
				2,4.5 2,5.5 2,15.5 3,15.5 3,5.5 12,5.5 12,14.5 11,14.5 11,15.5 3,15.5 3,16.5 11,16.5 13,16.5 13,15.5 13,14.5 13,5.5 14,5.5 
				14,4.5 14,2.5 14,1.5 			"/>
			<rect x="4" y="7.5" fill="#FF0096" width="1" height="6"/>
			<rect x="7" y="7.5" fill="#FF0096" width="1" height="6"/>
			<rect x="10" y="7.5" fill="#FF0096" width="1" height="6"/>
		</g>
	</g>
	<g id="Layer_2" display="inline">
		<rect x="11" y="5.5" opacity="0.11" fill="#FF0096" enable-background="new    " width="1" height="9"/>
		<rect x="3" y="14.5" opacity="0.11" fill="#FF0096" enable-background="new    " width="8" height="1"/>
		<rect x="4" y="13.5" opacity="0.11" fill="#FF0096" enable-background="new    " width="7" height="1"/>
		<rect x="3" y="5.5" opacity="0.11" fill="#FF0096" enable-background="new    " width="1" height="9"/>
		<rect x="4" y="5.5" opacity="0.11" fill="#FF0096" enable-background="new    " width="7" height="1"/>
		<rect x="5" y="7.5" opacity="0.11" fill="#FF0096" enable-background="new    " width="1" height="6"/>
		<rect x="6" y="7.5" opacity="0.11" fill="#FF0096" enable-background="new    " width="1" height="6"/>
		<rect x="8" y="7.5" opacity="0.11" fill="#FF0096" enable-background="new    " width="1" height="6"/>
		<rect x="9" y="7.5" opacity="0.11" fill="#FF0096" enable-background="new    " width="1" height="6"/>
		<rect x="4" y="6.5" opacity="0.11" fill="#FF0096" enable-background="new    " width="7" height="1"/>
		<rect x="2" y="2.5" opacity="0.11" fill="#FF0096" enable-background="new    " width="11" height="2"/>
	</g>
	<g id="Layer_3" display="inline">
		<rect x="1" y="4.5" opacity="0.15" fill="#FF0096" enable-background="new    " width="1" height="12"/>
		<rect x="2" y="16.5" opacity="0.15" fill="#FF0096" enable-background="new    " width="12" height="1"/>
		<rect x="2" y="15.5" opacity="0.15" fill="#FF0096" enable-background="new    " width="1" height="1"/>
		<rect x="13" y="5.5" opacity="0.15" fill="#FF0096" enable-background="new    " width="1" height="11"/>
		<rect y="0.506" opacity="0.15" fill="#FF0096" enable-background="new    " width="1" height="4.994"/>
		<rect x="1" y="0.5" opacity="0.15" fill="#FF0096" enable-background="new    " width="4" height="1"/>
		<rect x="4" y="-0.5" opacity="0.15" fill="#FF0096" enable-background="new    " width="7.009" height="1"/>
		<rect x="10" y="0.5" opacity="0.15" fill="#FF0096" enable-background="new    " width="4" height="1"/>
		<rect x="14" y="0.499" opacity="0.15" fill="#FF0096" enable-background="new    " width="1" height="6"/>
	</g>
	<path opacity="0.4" fill="#00DDFF" d="M16.779,3.578l0.008-0.008l-2.864-2.861l0,0V0.707H2.544H2.325H1V16.5h0.828h0.716h12.704
		h0.719h0.826V4.352v-0.11V3.578H16.779z M10.829,2.254v1.71h1.104v-1.71h0.664v2.539H5.085V2.254H10.829z M13.258,8.989v5.964
		H4.533V8.989H13.258z M14.033,14.953V8.989V8.935V8.216H3.761v0.719v0.055v5.964H2.544V2.254h1.88v3.201h0.662l0,0h7.512l0,0h0.66
		V2.254h0.043l1.988,1.988h-0.041v10.711H14.033z"/>
</g>
<g id="Layer_2_1_" display="none">
	<rect x="2" y="-0.5" display="inline" fill="#00DDFF" width="11" height="2"/>
	<rect x="1" y="2.438" display="inline" fill="#00DDFF" width="1" height="13.062"/>
	<rect x="2" y="15.5" display="inline" fill="#00DDFF" width="14" height="1"/>
	<rect x="15" y="4.5" display="inline" fill="#00DDFF" width="1" height="11"/>
	<rect x="15" y="2.5" display="inline" fill="#00DDFF" width="1" height="2"/>
	<rect x="14" y="2.5" display="inline" fill="#00DDFF" width="2" height="1"/>
	<rect x="14" y="1.5" display="inline" fill="#00DDFF" width="1" height="2"/>
	<rect x="13" y="1.5" display="inline" fill="#00DDFF" width="2" height="1"/>
	<rect x="13" y="0.5" display="inline" fill="#00DDFF" width="1" height="1"/>
	<rect x="4" y="1.5" display="inline" fill="#00DDFF" width="1" height="4"/>
	<rect x="11" y="1.5" display="inline" fill="#00DDFF" width="1" height="4"/>
	<rect x="4" y="4.5" display="inline" fill="#00DDFF" width="8" height="1"/>
	<rect x="8" y="1.5" display="inline" fill="#00DDFF" width="2" height="2"/>
	<rect x="4" y="9.5" display="inline" fill="#00DDFF" width="1" height="7"/>
	<rect x="13" y="10.5" display="inline" fill="#00DDFF" width="1" height="6"/>
	<rect x="5" y="9.5" display="inline" fill="#00DDFF" width="8" height="1"/>
	<rect x="1" y="-0.5" display="inline" fill="#00DDFF" width="1" height="3"/>
	<rect y="-0.5" display="inline" fill="#00DDFF" width="1" height="16"/>
	<rect x="2" y="16.5" display="inline" fill="#00DDFF" width="14" height="1"/>
	<rect x="1" y="15.5" display="inline" fill="#00DDFF" width="1" height="1"/>
	<rect x="16" y="3.5" display="inline" fill="#00DDFF" width="1" height="14"/>
	<rect x="13" y="-0.5" display="inline" fill="#00DDFF" width="1" height="1"/>
	<rect x="13" y="0.5" display="inline" fill="#00DDFF" width="2" height="1"/>
	<rect x="14" y="1.5" display="inline" fill="#00DDFF" width="2" height="1"/>
	<rect x="15" y="2.5" display="inline" fill="#00DDFF" width="2" height="1"/>
	<rect y="15.5" display="inline" fill="#00DDFF" width="1" height="2"/>
	<rect x="1" y="16.5" display="inline" fill="#00DDFF" width="2" height="1"/>
</g>
<g id="Layer_3_1_">
	<path fill="#00DDFF" d="M16,2.5v-1h-1v-1h-1v-1H0v18h17v-15H16z M8,1.5v2h2v-2h1v3H5v-3H8z M2,1.5h2v4h8v-4h1v1h1v1h1v12h-2v-5h-1
		v5H5v-5h7v-1H4v6H2V1.5z"/>
</g>
<g id="Layer_4">
	<path opacity="0.05" fill="#00DDFF" d="M17,1.5v-1h-1v-1h-1v-1H-1v20h19v-17H17z M17,17.5H0v-18h14v1h1v1h1v1h1V17.5z"/>
	<polygon opacity="0.05" fill="#00DDFF" points="14,3.5 14,2.5 13,2.5 13,1.5 12,1.5 12,5.5 4,5.5 4,1.5 2,1.5 2,15.5 4,15.5 4,9.5 
		12,9.5 12,10.5 13,10.5 13,15.5 15,15.5 15,3.5 	"/>
	<polygon opacity="0.05" fill="#00DDFF" points="10,1.5 10,3.5 8,3.5 8,1.5 5,1.5 5,4.5 11,4.5 11,1.5 	"/>
	<rect x="5" y="10.5" opacity="0.05" fill="#00DDFF" width="8" height="5"/>
</g>
</svg>
