<?xml version="1.0" encoding="utf-8"?>
<!-- Generator: Adobe Illustrator 16.0.0, SVG Export Plug-In . SVG Version: 6.00 Build 0)  -->
<!DOCTYPE svg PUBLIC "-//W3C//DTD SVG 1.1//EN" "http://www.w3.org/Graphics/SVG/1.1/DTD/svg11.dtd">
<svg version="1.1" id="Layer_1" xmlns="http://www.w3.org/2000/svg" xmlns:xlink="http://www.w3.org/1999/xlink" x="0px" y="0px"
	 width="14px" height="20px" viewBox="0 0 14 20" enable-background="new 0 0 14 20" xml:space="preserve">
<path fill="#00DDFF" d="M12.84,10.012L7.511,1.339H7.499c-0.085-0.193-0.277-0.33-0.503-0.33s-0.418,0.137-0.503,0.33H6.48
	l-5.366,8.728h0.007c-0.071,0.098-0.123,0.211-0.123,0.341c0,0.323,0.263,0.586,0.587,0.586c0.058,0,0.109-0.018,0.162-0.032v0.032
	h2.245v7.335h0.019c-0.005,0.031-0.019,0.061-0.019,0.094c0,0.323,0.263,0.586,0.587,0.586h4.84c0.324,0,0.588-0.263,0.588-0.586
	c0-0.033-0.014-0.062-0.02-0.094h0.02v-7.335h2.404c0.324,0,0.587-0.263,0.587-0.586C12.999,10.254,12.937,10.116,12.84,10.012z"/>
</svg>
