<?xml version="1.0" encoding="utf-8"?>
<!-- Generator: Adobe Illustrator 16.0.0, SVG Export Plug-In . SVG Version: 6.00 Build 0)  -->
<!DOCTYPE svg PUBLIC "-//W3C//DTD SVG 1.1//EN" "http://www.w3.org/Graphics/SVG/1.1/DTD/svg11.dtd">
<svg version="1.1" xmlns="http://www.w3.org/2000/svg" xmlns:xlink="http://www.w3.org/1999/xlink" x="0px" y="0px" width="15px"
	 height="18px" viewBox="0 -0.5 15 18" enable-background="new 0 -0.5 15 18" xml:space="preserve">
<g id="Layer_1">
	<g>
		<polygon fill="#FF0096" points="13,1.5 10,1.5 10,0.5 5,0.5 5,1.5 2,1.5 1,1.5 1,4.5 2,4.5 2,2.5 13,2.5 13,4.5 12,4.5 3,4.5 
			2,4.5 2,5.5 2,15.5 3,15.5 3,5.5 12,5.5 12,14.5 11,14.5 11,15.5 3,15.5 3,16.5 11,16.5 13,16.5 13,15.5 13,14.5 13,5.5 14,5.5 
			14,4.5 14,2.5 14,1.5 		"/>
		<rect x="4" y="7.5" fill="#FF0096" width="1" height="6"/>
		<rect x="7" y="7.5" fill="#FF0096" width="1" height="6"/>
		<rect x="10" y="7.5" fill="#FF0096" width="1" height="6"/>
	</g>
</g>
<g id="Layer_2">
	<rect x="11" y="5.5" opacity="0.11" fill="#FF0096" width="1" height="9"/>
	<rect x="3" y="14.5" opacity="0.11" fill="#FF0096" width="8" height="1"/>
	<rect x="4" y="13.5" opacity="0.11" fill="#FF0096" width="7" height="1"/>
	<rect x="3" y="5.5" opacity="0.11" fill="#FF0096" width="1" height="9"/>
	<rect x="4" y="5.5" opacity="0.11" fill="#FF0096" width="7" height="1"/>
	<rect x="5" y="7.5" opacity="0.11" fill="#FF0096" width="1" height="6"/>
	<rect x="6" y="7.5" opacity="0.11" fill="#FF0096" width="1" height="6"/>
	<rect x="8" y="7.5" opacity="0.11" fill="#FF0096" width="1" height="6"/>
	<rect x="9" y="7.5" opacity="0.11" fill="#FF0096" width="1" height="6"/>
	<rect x="4" y="6.5" opacity="0.11" fill="#FF0096" width="7" height="1"/>
	<rect x="2" y="2.5" opacity="0.11" fill="#FF0096" width="11" height="2"/>
</g>
<g id="Layer_3">
	<rect x="1" y="4.5" opacity="0.15" fill="#FF0096" width="1" height="12"/>
	<rect x="2" y="16.5" opacity="0.15" fill="#FF0096" width="12" height="1"/>
	<rect x="2" y="15.5" opacity="0.15" fill="#FF0096" width="1" height="1"/>
	<rect x="13" y="5.5" opacity="0.15" fill="#FF0096" width="1" height="11"/>
	<rect y="0.506" opacity="0.15" fill="#FF0096" width="1" height="4.994"/>
	<rect x="1" y="0.5" opacity="0.15" fill="#FF0096" width="4" height="1"/>
	<rect x="4" y="-0.5" opacity="0.15" fill="#FF0096" width="7.009" height="1"/>
	<rect x="10" y="0.5" opacity="0.15" fill="#FF0096" width="4" height="1"/>
	<rect x="14" y="0.499" opacity="0.15" fill="#FF0096" width="1" height="6"/>
</g>
</svg>
