<?xml version="1.0" encoding="utf-8"?>
<!-- Generator: Adobe Illustrator 16.0.0, SVG Export Plug-In . SVG Version: 6.00 Build 0)  -->
<!DOCTYPE svg PUBLIC "-//W3C//DTD SVG 1.1//EN" "http://www.w3.org/Graphics/SVG/1.1/DTD/svg11.dtd">
<svg version="1.1" id="Layer_1" xmlns="http://www.w3.org/2000/svg" xmlns:xlink="http://www.w3.org/1999/xlink" x="0px" y="0px"
	 width="9px" height="16px" viewBox="0 0 9 16" enable-background="new 0 0 9 16" xml:space="preserve">
<g>
	<circle fill="#666666" cx="4.5" cy="10" r="2"/>
	<path fill="#444444" d="M4.5,8.5C5.328,8.5,6,9.171,6,10c0,0.828-0.672,1.5-1.5,1.5C3.671,11.5,3,10.828,3,10
		C3,9.171,3.671,8.5,4.5,8.5 M4.5,7.5C3.122,7.5,2,8.622,2,10c0,1.379,1.122,2.5,2.5,2.5C5.879,12.5,7,11.379,7,10
		C7,8.622,5.879,7.5,4.5,7.5L4.5,7.5z"/>
</g>
</svg>
