<?xml version="1.0" encoding="utf-8"?>
<!-- Generator: Adobe Illustrator 16.0.0, SVG Export Plug-In . SVG Version: 6.00 Build 0)  -->
<!DOCTYPE svg PUBLIC "-//W3C//DTD SVG 1.1//EN" "http://www.w3.org/Graphics/SVG/1.1/DTD/svg11.dtd">
<svg version="1.1" id="Layer_1" xmlns="http://www.w3.org/2000/svg" xmlns:xlink="http://www.w3.org/1999/xlink" x="0px" y="0px"
	 width="25px" height="25px" viewBox="0 0 25 25" enable-background="new 0 0 25 25" xml:space="preserve">
<path fill="#00DDFF" d="M22.254,16.849l0.871-3.318l-2.397-1.036c0-0.016,0.002-0.032,0.002-0.049c0-0.633-0.075-1.25-0.209-1.841
	l2.121-1.843l-1.738-2.897l-2.507,0.828C17.938,6.218,17.423,5.8,16.86,5.448V2.869l-3.179-0.994L12.514,4.19c0,0-0.004,0-0.006,0
	c-0.703,0-1.385,0.088-2.037,0.256L8.905,2.515L5.878,4.173L6.6,6.71C6.161,7.167,5.774,7.673,5.446,8.22L2.774,8.01l-0.899,3.3
	l2.411,1.143c0,0.647,0.078,1.279,0.218,1.883L2.448,16.11l1.576,2.954l2.657-0.797c0.475,0.478,1.004,0.895,1.579,1.246
	l-0.111,2.661l3.144,0.95l1.165-2.426c0.018,0,0.033,0.002,0.05,0.002c0.637,0,1.257-0.076,1.854-0.216l1.759,2.036l3.123-1.69
	l-0.847-2.636c0.451-0.464,0.847-0.983,1.182-1.543L22.254,16.849z M7.798,12.446c0-2.62,2.109-4.742,4.709-4.742
	c2.599,0,4.707,2.122,4.707,4.742c0,2.619-2.107,4.741-4.707,4.741C9.907,17.187,7.798,15.064,7.798,12.446z"/>
</svg>
