<?xml version="1.0" encoding="utf-8"?>
<!-- Generator: Adobe Illustrator 16.0.0, SVG Export Plug-In . SVG Version: 6.00 Build 0)  -->
<!DOCTYPE svg PUBLIC "-//W3C//DTD SVG 1.1//EN" "http://www.w3.org/Graphics/SVG/1.1/DTD/svg11.dtd">
<svg version="1.1" id="Layer_1" xmlns="http://www.w3.org/2000/svg" xmlns:xlink="http://www.w3.org/1999/xlink" x="0px" y="0px"
	 width="25px" height="25px" viewBox="0 0 25 25" enable-background="new 0 0 25 25" xml:space="preserve">
<path fill="#00DDFF" d="M23.975,17.616L25,13.712l-2.82-1.219c0-0.019,0.002-0.038,0.002-0.058c0-0.745-0.089-1.47-0.246-2.166
	l2.496-2.168l-2.046-3.408l-2.948,0.974c-0.541-0.557-1.146-1.049-1.808-1.464V1.169L13.891,0l-1.375,2.724c0,0-0.005,0-0.007,0
	c-0.828,0-1.63,0.104-2.396,0.301L8.271,0.753L4.71,2.704l0.848,2.984C5.042,6.226,4.587,6.821,4.201,7.465L1.058,7.218L0,11.1
	l2.836,1.345c0,0.762,0.092,1.505,0.257,2.215l-2.419,2.087l1.854,3.476l3.126-0.938c0.558,0.562,1.181,1.053,1.857,1.467
	l-0.131,3.13L11.079,25l1.37-2.854c0.021,0,0.039,0.002,0.06,0.002c0.749,0,1.479-0.09,2.181-0.254l2.069,2.396l3.675-1.989
	l-0.996-3.101c0.53-0.545,0.996-1.156,1.389-1.815L23.975,17.616z M6.968,12.436c0-3.082,2.481-5.578,5.541-5.578
	c3.058,0,5.537,2.496,5.537,5.578c0,3.082-2.479,5.578-5.537,5.578C9.449,18.014,6.968,15.518,6.968,12.436z"/>
</svg>
