<?xml version="1.0" encoding="utf-8"?>
<!-- Generator: Adobe Illustrator 16.0.0, SVG Export Plug-In . SVG Version: 6.00 Build 0)  -->
<!DOCTYPE svg PUBLIC "-//W3C//DTD SVG 1.1//EN" "http://www.w3.org/Graphics/SVG/1.1/DTD/svg11.dtd">
<svg version="1.1" id="Layer_1" xmlns="http://www.w3.org/2000/svg" xmlns:xlink="http://www.w3.org/1999/xlink" x="0px" y="0px"
	 width="16px" height="48px" viewBox="0 0 16 48" enable-background="new 0 0 16 48" xml:space="preserve">
<g>
	<path fill="#00DDFF" d="M0,48v-3.146l9.685-7.266H0v-3.368h15.731v2.902l-10,7.511h10V48H0z"/>
	<path fill="#00DDFF" d="M9.775,30.967H9.73c-3.438,0-6.269-2.414-6.269-5.87c0-3.966,3.124-5.783,6.541-5.783
		c0.269,0,0.583,0.023,0.898,0.045v8.263c1.549-0.332,2.359-1.396,2.359-2.901c0-1.13-0.359-1.95-1.236-2.88l1.73-1.927
		C15.146,21.02,16,22.614,16,24.764C16,28.33,13.461,30.967,9.775,30.967z M8.765,22.593c-1.528,0.2-2.562,1.086-2.562,2.504
		c0,1.395,1.011,2.304,2.562,2.57V22.593z"/>
	<path fill="#00DDFF" d="M3.686,18.011V14.6l7.304-1.905l-7.349-2.237V7.556l7.371-2.261L3.686,3.346V0L15.82,3.7v3.035L8.427,9.018
		l7.393,2.325v3.014L3.686,18.011z"/>
</g>
</svg>
