<?xml version="1.0" encoding="utf-8"?>
<!-- Generator: Adobe Illustrator 16.0.0, SVG Export Plug-In . SVG Version: 6.00 Build 0)  -->
<!DOCTYPE svg PUBLIC "-//W3C//DTD SVG 1.1//EN" "http://www.w3.org/Graphics/SVG/1.1/DTD/svg11.dtd">
<svg version="1.1" id="Layer_1" xmlns="http://www.w3.org/2000/svg" xmlns:xlink="http://www.w3.org/1999/xlink" x="0px" y="0px"
	 width="43px" height="16px" viewBox="-13.5 15.5 43 16" enable-background="new -13.5 15.5 43 16" xml:space="preserve">
<g>
	<path fill="#00DDFF" d="M-12.496,16.507h2.675l6.176,8.232v-8.232h2.862v13.371h-2.466l-6.385-8.5v8.5h-2.862V16.507z"/>
	<path fill="#00DDFF" d="M1.982,24.815v-0.038c0-2.922,2.052-5.329,4.989-5.329c3.372,0,4.916,2.656,4.916,5.56
		c0,0.229-0.02,0.496-0.038,0.764H4.825c0.282,1.317,1.187,2.005,2.467,2.005c0.96,0,1.657-0.305,2.448-1.05l1.638,1.47
		c-0.94,1.185-2.296,1.91-4.123,1.91C4.224,30.106,1.982,27.948,1.982,24.815z M9.101,23.957c-0.17-1.299-0.924-2.178-2.129-2.178
		c-1.186,0-1.958,0.859-2.185,2.178H9.101z"/>
	<path fill="#00DDFF" d="M12.995,19.64l2.899,0l1.619,6.208l1.901-6.247h2.467l1.922,6.264l1.656-6.226h2.845l-3.146,10.314H22.58
		l-1.94-6.284l-1.977,6.284h-2.562L12.995,19.64z"/>
</g>
</svg>
