<?xml version="1.0" encoding="utf-8"?>
<!-- Generator: Adobe Illustrator 16.0.0, SVG Export Plug-In . SVG Version: 6.00 Build 0)  -->
<!DOCTYPE svg PUBLIC "-//W3C//DTD SVG 1.1//EN" "http://www.w3.org/Graphics/SVG/1.1/DTD/svg11.dtd">
<svg version="1.1" id="Layer_1" xmlns="http://www.w3.org/2000/svg" xmlns:xlink="http://www.w3.org/1999/xlink" x="0px" y="0px"
	 width="170px" height="46px" viewBox="0 0 170 46" enable-background="new 0 0 170 46" xml:space="preserve">
<g opacity="0.2">
	<path d="M25.66,28.126c0,4.234-2.242,5.929-5.38,5.929s-5.381-1.844-5.381-6.178V8.796H3.042v19.23
		c0,11.558,6.726,16.341,17.138,16.341c10.412,0,17.337-4.684,17.337-16.59V8.796H25.66V28.126z"/>
	<path d="M73.988,21.151v-0.1c0-3.587-1.096-6.178-3.188-8.271c-2.441-2.441-6.377-3.985-12.555-3.985H41.207V43.67h11.658v-9.964
		h2.491l6.576,9.964h13.302l-8.121-11.857C71.348,29.77,73.988,26.232,73.988,21.151z M62.38,21.998
		c0,2.143-1.694,3.388-4.484,3.388h-5.032v-6.825h5.082c2.69,0,4.434,1.096,4.434,3.338V21.998z"/>
	<polygon points="88.489,8.796 76.831,8.796 76.831,43.67 104.879,43.67 104.879,33.706 88.489,33.706 	"/>
	<path d="M163.362,23.804c0-0.033,0-0.065,0-0.094c0-1.181-0.141-2.329-0.384-3.434l3.953-3.433l-3.245-5.399l-4.671,1.54
		c-0.859-0.879-1.815-1.661-2.862-2.32V5.864l-5.927-1.854l-2.176,4.315c0,0-0.007,0-0.009,0c-1.312,0-2.583,0.166-3.795,0.477
		l-2.918-3.6l-5.641,3.092l1.341,4.728c-0.817,0.851-1.538,1.795-2.149,2.814l-4.981-0.393l-1.675,6.152l4.491,2.133
		c0,1.204,0.148,2.378,0.409,3.51l-3.832,3.3l2.938,5.507l4.951-1.487c0.883,0.89,1.871,1.665,2.94,2.323l-0.206,4.961l5.861,1.774
		l2.171-4.521c0.033,0,0.063,0.002,0.095,0.002c1.185,0,2.339-0.145,3.456-0.399l3.278,3.793l5.816-3.15l-1.576-4.907
		c0.842-0.87,1.576-1.835,2.201-2.879l4.987,0.356l1.627-6.18L163.362,23.804z M148.038,31.562c-4.306,0-7.8-3.515-7.8-7.849
		c0-4.341,3.492-7.854,7.8-7.854c4.304,0,7.796,3.513,7.796,7.854C155.833,28.046,152.342,31.562,148.038,31.562z"/>
	<path d="M114.322,9.315c-10.577-0.055-18.362,8.318-18.92,17.729c0,0,2.438-3.462,2.479-3.693
		c0.869-5.009,12.092-6.336,16.427-5.393c-0.071,1.983-0.144,4.011-0.219,6.182c3.624-3.522,7.137-6.932,10.674-10.367
		c-3.444-3.548-6.854-7.058-10.454-10.764C114.314,5.265,114.318,7.291,114.322,9.315z"/>
</g>
<g>
	<path fill="#FCFCFC" d="M24.66,27.126c0,4.234-2.242,5.929-5.38,5.929s-5.381-1.844-5.381-6.178V7.796H2.042v19.23
		c0,11.558,6.726,16.341,17.138,16.341c10.412,0,17.337-4.684,17.337-16.59V7.796H24.66V27.126z"/>
	<path fill="#FCFCFC" d="M72.988,20.151v-0.1c0-3.587-1.096-6.178-3.188-8.271c-2.441-2.441-6.377-3.985-12.555-3.985H40.207V42.67
		h11.658v-9.964h2.491l6.576,9.964h13.302l-8.121-11.857C70.348,28.77,72.988,25.232,72.988,20.151z M61.38,20.998
		c0,2.143-1.694,3.388-4.484,3.388h-5.032v-6.825h5.082c2.69,0,4.434,1.096,4.434,3.338V20.998z"/>
	<polygon fill="#FCFCFC" points="87.489,7.796 75.831,7.796 75.831,42.67 103.879,42.67 103.879,32.706 87.489,32.706 	"/>
	<path fill="#FCFCFC" d="M162.362,22.804c0-0.033,0-0.065,0-0.094c0-1.181-0.141-2.329-0.384-3.434l3.953-3.433l-3.245-5.399
		l-4.671,1.54c-0.859-0.879-1.815-1.661-2.862-2.32V4.864l-5.927-1.854l-2.176,4.315c0,0-0.007,0-0.009,0
		c-1.312,0-2.583,0.166-3.795,0.477l-2.918-3.6l-5.641,3.092l1.341,4.728c-0.817,0.851-1.538,1.795-2.149,2.814l-4.981-0.393
		l-1.675,6.152l4.491,2.133c0,1.204,0.148,2.378,0.409,3.51l-3.832,3.3l2.938,5.507l4.951-1.487c0.883,0.89,1.871,1.665,2.94,2.323
		l-0.206,4.961l5.861,1.774l2.171-4.521c0.033,0,0.063,0.002,0.095,0.002c1.185,0,2.339-0.145,3.456-0.399l3.278,3.793l5.816-3.15
		l-1.576-4.907c0.842-0.87,1.576-1.835,2.201-2.879l4.987,0.356l1.627-6.18L162.362,22.804z M147.038,30.562
		c-4.306,0-7.8-3.515-7.8-7.849c0-4.341,3.492-7.854,7.8-7.854c4.304,0,7.796,3.513,7.796,7.854
		C154.833,27.046,151.342,30.562,147.038,30.562z"/>
	<path fill="#FCFCFC" d="M113.322,8.315c-10.577-0.055-18.362,8.318-18.92,17.729c0,0,2.438-3.462,2.479-3.693
		c0.869-5.009,12.092-6.336,16.427-5.393c-0.071,1.983-0.144,4.011-0.219,6.182c3.624-3.522,7.137-6.932,10.674-10.367
		c-3.444-3.548-6.854-7.058-10.454-10.764C113.314,4.265,113.318,6.291,113.322,8.315z"/>
</g>
</svg>
