<?xml version="1.0" encoding="utf-8"?>
<!-- Generator: Adobe Illustrator 16.0.0, SVG Export Plug-In . SVG Version: 6.00 Build 0)  -->
<!DOCTYPE svg PUBLIC "-//W3C//DTD SVG 1.1//EN" "http://www.w3.org/Graphics/SVG/1.1/DTD/svg11.dtd">
<svg version="1.1" id="Layer_1" xmlns="http://www.w3.org/2000/svg" xmlns:xlink="http://www.w3.org/1999/xlink" x="0px" y="0px"
	 width="115px" height="33px" viewBox="0 0 115 33" enable-background="new 0 0 115 33" xml:space="preserve">
<g opacity="0.2">
	<path d="M18.036,19.747c0,2.823-1.495,3.953-3.587,3.953c-2.093,0-3.587-1.229-3.587-4.119V6.86H2.957v12.82
		c0,7.705,4.484,10.895,11.426,10.895c6.941,0,11.558-3.123,11.558-11.061V6.86h-7.905V19.747z"/>
	<path d="M50.255,15.097v-0.066c0-2.391-0.73-4.119-2.125-5.514C46.502,7.89,43.878,6.86,39.76,6.86H28.4v23.25h7.772v-6.643h1.66
		l4.384,6.643h8.868l-5.414-7.905C48.495,20.842,50.255,18.485,50.255,15.097z M42.517,15.662c0,1.428-1.13,2.258-2.989,2.258
		h-3.354v-4.55h3.388c1.793,0,2.956,0.73,2.956,2.225V15.662z"/>
	<polygon points="59.922,6.86 52.15,6.86 52.15,30.11 70.849,30.11 70.849,23.467 59.922,23.467 	"/>
	<path d="M109.837,16.865c0-0.021,0-0.043,0-0.062c0-0.787-0.094-1.553-0.256-2.29l2.635-2.289l-2.162-3.6l-3.114,1.027
		c-0.573-0.586-1.21-1.107-1.908-1.546v-3.2l-3.952-1.236l-1.45,2.877h-0.005c-0.875,0-1.723,0.11-2.53,0.318l-1.946-2.399
		l-3.761,2.062l0.895,3.152c-0.545,0.567-1.024,1.197-1.433,1.876l-3.321-0.262l-1.116,4.102l2.994,1.422
		c0,0.803,0.099,1.585,0.271,2.34l-2.555,2.2l1.959,3.671l3.301-0.991c0.59,0.594,1.247,1.11,1.961,1.549l-0.137,3.308l3.907,1.183
		l1.446-3.014c0.022,0,0.043,0.001,0.064,0.001c0.789,0,1.559-0.097,2.303-0.267l2.187,2.529l3.877-2.1l-1.051-3.271
		c0.562-0.58,1.051-1.224,1.467-1.92l3.325,0.237l1.084-4.12L109.837,16.865z M99.621,22.038c-2.87,0-5.2-2.344-5.2-5.233
		c0-2.894,2.328-5.236,5.2-5.236c2.87,0,5.198,2.342,5.198,5.236C104.819,19.694,102.491,22.038,99.621,22.038z"/>
	<path d="M77.145,7.207c-7.051-0.037-12.241,5.545-12.613,11.819c0,0,1.626-2.308,1.652-2.461c0.579-3.339,8.062-4.224,10.952-3.595
		c-0.048,1.322-0.097,2.674-0.146,4.121c2.416-2.348,4.758-4.622,7.116-6.912c-2.296-2.365-4.57-4.705-6.97-7.176
		C77.14,4.506,77.142,5.857,77.145,7.207z"/>
</g>
<g>
	<path fill="#FCFCFC" d="M17.036,18.747c0,2.823-1.495,3.953-3.587,3.953c-2.093,0-3.587-1.229-3.587-4.119V5.86H1.957v12.82
		c0,7.705,4.484,10.895,11.426,10.895c6.941,0,11.558-3.123,11.558-11.061V5.86h-7.905V18.747z"/>
	<path fill="#FCFCFC" d="M49.255,14.097v-0.066c0-2.391-0.73-4.119-2.125-5.514C45.502,6.89,42.878,5.86,38.76,5.86H27.4v23.25
		h7.772v-6.643h1.66l4.384,6.643h8.868l-5.414-7.905C47.495,19.842,49.255,17.485,49.255,14.097z M41.517,14.662
		c0,1.428-1.13,2.258-2.989,2.258h-3.354v-4.55h3.388c1.793,0,2.956,0.73,2.956,2.225V14.662z"/>
	<polygon fill="#FCFCFC" points="58.922,5.86 51.15,5.86 51.15,29.11 69.849,29.11 69.849,22.467 58.922,22.467 	"/>
	<path fill="#FCFCFC" d="M108.837,15.865c0-0.021,0-0.043,0-0.062c0-0.787-0.094-1.553-0.256-2.29l2.635-2.289l-2.162-3.6
		l-3.114,1.027c-0.573-0.586-1.21-1.107-1.908-1.546v-3.2l-3.952-1.236l-1.45,2.877h-0.005c-0.875,0-1.723,0.11-2.53,0.318
		l-1.946-2.399l-3.761,2.062l0.895,3.152c-0.545,0.567-1.024,1.197-1.433,1.876l-3.321-0.262l-1.116,4.102l2.994,1.422
		c0,0.803,0.099,1.585,0.271,2.34l-2.555,2.2l1.959,3.671l3.301-0.991c0.59,0.594,1.247,1.11,1.961,1.549l-0.137,3.308l3.907,1.183
		l1.446-3.014c0.022,0,0.043,0.001,0.064,0.001c0.789,0,1.559-0.097,2.303-0.267l2.187,2.529l3.877-2.1l-1.051-3.271
		c0.562-0.58,1.051-1.224,1.467-1.92l3.325,0.237l1.084-4.12L108.837,15.865z M98.621,21.038c-2.87,0-5.2-2.344-5.2-5.233
		c0-2.894,2.328-5.236,5.2-5.236c2.87,0,5.198,2.342,5.198,5.236C103.819,18.694,101.491,21.038,98.621,21.038z"/>
	<path fill="#FCFCFC" d="M76.145,6.207c-7.051-0.037-12.241,5.545-12.613,11.819c0,0,1.626-2.308,1.652-2.461
		c0.579-3.339,8.062-4.224,10.952-3.595c-0.048,1.322-0.097,2.674-0.146,4.121c2.416-2.348,4.758-4.622,7.116-6.912
		c-2.296-2.365-4.57-4.705-6.97-7.176C76.14,3.506,76.142,4.857,76.145,6.207z"/>
</g>
</svg>
