<?xml version="1.0" encoding="utf-8"?>
<!-- Generator: Adobe Illustrator 16.0.0, SVG Export Plug-In . SVG Version: 6.00 Build 0)  -->
<!DOCTYPE svg PUBLIC "-//W3C//DTD SVG 1.1//EN" "http://www.w3.org/Graphics/SVG/1.1/DTD/svg11.dtd">
<svg version="1.1" id="Layer_1" xmlns="http://www.w3.org/2000/svg" xmlns:xlink="http://www.w3.org/1999/xlink" x="0px" y="0px"
	 width="504px" height="102px" viewBox="0 0 504 102" enable-background="new 0 0 504 102" xml:space="preserve">
<path fill="#E0E0E0" d="M497.471,12.727h0.033l-6.366-6.366l-3.896,93.646h1.559c6.628,0,12-5.373,12-12v-67
	C500.799,17.792,499.527,14.881,497.471,12.727z"/>
<g>
	<circle fill="none" cx="52.799" cy="51.006" r="37"/>
	<path fill="#F2F2F2" d="M497.363,96.402L480.281,79.32v20.686h8.517C492.154,100.006,495.188,98.625,497.363,96.402z"/>
	<path fill="#F2F2F2" d="M19.799,9.006c-6.627,0-12,5.372-12,12v67c0,1.012,0.142,1.99,0.375,2.93l-2.889-0.496l5.812,5.812
		c2.188,2.307,5.271,3.754,8.701,3.754h463.483v-91H19.799L19.799,9.006z M52.799,88.006c-20.434,0-37-16.564-37-37
		c0-20.436,16.566-37,37-37c20.437,0,37,16.564,37,37C89.799,71.439,73.234,88.006,52.799,88.006z"/>
</g>
<g>
	<circle fill="none" cx="50.793" cy="48" r="37"/>
	<path fill="#FAFAFA" d="M13.793,3c-6.627,0-12,5.372-12,12v67c0,6.627,5.373,12,12,12h469.488V3H13.793z M50.793,85
		c-20.434,0-37-16.566-37-37c0-20.436,16.566-37,37-37c20.436,0,37,16.564,37,37C87.793,68.434,71.229,85,50.793,85z"/>
	<path fill="#FAFAFA" d="M482.793,3h-2.512v91h2.512c6.628,0,12-5.373,12-12V15C494.793,8.372,489.421,3,482.793,3z"/>
</g>
<text transform="matrix(1 0 0 1 104.7939 30.001)" font-family="'Gotham-Book'" font-size="18">Vice / Treasures of the Spanish Civil War</text>
<text transform="matrix(1 0 0 1 106.7939 54.002)" font-family="'Acid-Italic'" font-size="18">Lawyer and military historian Ricardo Castellano has built a</text>
<text transform="matrix(1 0 0 1 106.7939 75.6016)" font-family="'Acid-Italic'" font-size="18">career on tracking and cataloguing remnants of war.</text>
<path fill="none" d="M16.793,51.107c0,9.482,3.555,18.135,9.398,24.696c6.551,5.854,15.188,9.413,24.655,9.413
	c20.47,0,37.062-16.62,37.062-37.125c0-9.483-3.558-18.135-9.398-24.695c-6.553-5.854-15.188-9.415-24.655-9.415
	C33.386,13.982,16.793,30.604,16.793,51.107z"/>
<path fill="#EBEBEB" d="M16.793,51.107c0-20.505,16.594-37.125,37.062-37.125c9.469,0,18.104,3.562,24.655,9.415
	c-6.789-7.624-16.664-12.429-27.664-12.429c-20.469,0-37.062,16.622-37.062,37.125c0,11.021,4.797,20.912,12.406,27.712
	C20.347,69.242,16.793,60.592,16.793,51.107z"/>
<line fill="none" x1="24.297" y1="21.576" x2="27.736" y2="25.016"/>
<path fill="none" d="M78.511,23.397c-6.553-5.854-15.188-9.415-24.655-9.415c-10.404,0-19.802,4.299-26.531,11.214
	C27.324,25.196,84.354,29.959,78.511,23.397z"/>
<path fill="#E0E0E0" d="M26.191,75.805c-5.845-6.562-9.398-15.213-9.398-24.696c0-10.083,4.018-19.221,10.531-25.91l-3.01-3.011
	c-6.513,6.689-10.529,15.827-10.529,25.907C13.785,59.113,18.582,69.006,26.191,75.805z"/>
<g>
	<g id="Layer_7">
		<g>
			<path fill="#00DDFF" d="M475.5,70.5v11h-2v-5h-7v5h-2v-12h2v4h6v-1h-5v-3h2v1h1v1h1v-2h1v3h1v-3h1v-1h-11v14h13v-12H475.5z
				 M467.5,81.5v-4h5v4H467.5z"/>
			<rect x="474.5" y="69.5" fill="#00DDFF" width="1" height="1"/>
		</g>
	</g>
	<g id="Layer_8">
		<g opacity="0.13">
			<path fill="#00DDFF" d="M476.5,69.5v-1h-1v-1h-13v16h15v-14H476.5z M476.5,82.5h-13v-14h11v1h1v1h1V82.5z"/>
			<polygon fill="#00DDFF" points="472.5,69.5 471.5,69.5 471.5,71.5 470.5,71.5 470.5,70.5 469.5,70.5 469.5,69.5 467.5,69.5 
				467.5,72.5 472.5,72.5 			"/>
		</g>
		<rect x="467.5" y="77.5" opacity="0.17" fill="#00DDFF" enable-background="new    " width="5" height="4"/>
		<polygon opacity="0.1" fill="#00DDFF" enable-background="new    " points="473.5,72.5 472.5,72.5 472.5,73.5 466.5,73.5 
			466.5,69.5 464.5,69.5 464.5,81.5 466.5,81.5 466.5,76.5 473.5,76.5 473.5,81.5 475.5,81.5 475.5,70.5 474.5,70.5 474.5,69.5 
			473.5,69.5 		"/>
	</g>
</g>
<g>
	<circle fill="#B3B3B3" cx="427.998" cy="78.817" r="0.611"/>
	<circle fill="#B3B3B3" cx="427.998" cy="80.653" r="0.611"/>
	<circle fill="#B3B3B3" cx="429.834" cy="78.817" r="0.611"/>
	<circle fill="#B3B3B3" cx="429.834" cy="80.653" r="0.611"/>
	<circle fill="#B3B3B3" cx="431.67" cy="78.817" r="0.611"/>
	<circle fill="#B3B3B3" cx="431.67" cy="80.653" r="0.611"/>
	<circle fill="#B3B3B3" cx="433.506" cy="78.817" r="0.611"/>
	<circle fill="#B3B3B3" cx="433.506" cy="80.653" r="0.611"/>
	<circle fill="#B3B3B3" cx="435.342" cy="78.817" r="0.611"/>
	<circle fill="#B3B3B3" cx="435.342" cy="80.653" r="0.611"/>
	<circle fill="#B3B3B3" cx="437.179" cy="78.817" r="0.611"/>
	<circle fill="#B3B3B3" cx="437.179" cy="80.653" r="0.611"/>
	<circle fill="#B3B3B3" cx="437.179" cy="82.489" r="0.611"/>
	<circle fill="#B3B3B3" cx="437.179" cy="84.325" r="0.611"/>
	<circle fill="#B3B3B3" cx="439.015" cy="82.489" r="0.611"/>
	<circle fill="#B3B3B3" cx="439.015" cy="84.325" r="0.611"/>
	<circle fill="#B3B3B3" cx="440.85" cy="80.653" r="0.611"/>
	<circle fill="#B3B3B3" cx="440.85" cy="82.489" r="0.611"/>
	<circle fill="#B3B3B3" cx="442.688" cy="80.653" r="0.611"/>
	<circle fill="#B3B3B3" cx="442.688" cy="82.489" r="0.611"/>
	<circle fill="#B3B3B3" cx="444.521" cy="78.817" r="0.611"/>
	<circle fill="#B3B3B3" cx="444.521" cy="80.653" r="0.611"/>
	<circle fill="#B3B3B3" cx="446.359" cy="76.979" r="0.611"/>
	<circle fill="#B3B3B3" cx="446.359" cy="78.817" r="0.611"/>
	<circle fill="#B3B3B3" cx="448.195" cy="75.143" r="0.611"/>
	<circle fill="#B3B3B3" cx="448.195" cy="76.979" r="0.611"/>
	<circle fill="#B3B3B3" cx="448.195" cy="78.817" r="0.611"/>
	<circle fill="#B3B3B3" cx="450.031" cy="75.143" r="0.611"/>
	<circle fill="#B3B3B3" cx="450.031" cy="76.979" r="0.611"/>
	<path fill="#FF00E7" d="M450.257,74.261c0-0.315-0.185-0.588-0.45-0.719v-0.009l-11.281-8.045v0.025
		c-0.146-0.134-0.335-0.217-0.55-0.217c-0.443,0-0.804,0.359-0.804,0.803c0,0.01,0.002,0.016,0.002,0.021l0,0v3.823h-10.223v0.009
		c-0.577,0.013-1.041,0.468-1.068,1.041h-0.013v6.723h0.007v0.005c0,0.6,0.479,1.084,1.072,1.098v0.002h10.223v3.607h0.001
		c0,0.014-0.003,0.02-0.003,0.026c0,0.444,0.359,0.804,0.804,0.804c0.248,0,0.467-0.115,0.611-0.29l11.221-7.944v-0.045
		C450.072,74.85,450.257,74.577,450.257,74.261z"/>
</g>
</svg>
