<?xml version="1.0" encoding="utf-8"?>
<!-- Generator: Adobe Illustrator 16.0.0, SVG Export Plug-In . SVG Version: 6.00 Build 0)  -->
<!DOCTYPE svg PUBLIC "-//W3C//DTD SVG 1.1//EN" "http://www.w3.org/Graphics/SVG/1.1/DTD/svg11.dtd">
<svg version="1.1" id="Layer_1" xmlns="http://www.w3.org/2000/svg" xmlns:xlink="http://www.w3.org/1999/xlink" x="0px" y="0px"
	 width="698px" height="102px" viewBox="0.5 0 698 102" enable-background="new 0.5 0 698 102" xml:space="preserve">
<path fill="#E0E0E0" d="M693.189,12.727h0.032l-6.365-6.367l-3.897,93.646h1.559c6.629,0,12-5.373,12-12v-67
	C696.518,17.792,695.246,14.881,693.189,12.727z"/>
<path fill="#F2F2F2" d="M20.518,9.006c-6.627,0-12,5.372-12,12v67c0,1.012,0.141,1.99,0.375,2.93l-2.889-0.496l5.812,5.812
	c2.188,2.307,5.271,3.754,8.701,3.754h664c3.356,0,6.39-1.381,8.565-3.604L605.688,9.006H20.518z M53.518,88.006
	c-20.434,0-37-16.566-37-37c0-20.436,16.566-37,37-37c20.436,0,37,16.564,37,37C90.518,71.439,73.953,88.006,53.518,88.006z"/>
<path fill="#FAFAFA" d="M678.512,3h-664c-6.627,0-12,5.372-12,12v67c0,6.627,5.373,12,12,12h664c6.628,0,12-5.373,12-12V15
	C690.512,8.372,685.14,3,678.512,3z M51.512,85c-20.434,0-37-16.566-37-37c0-20.436,16.566-37,37-37c20.436,0,37,16.564,37,37
	C88.512,68.434,71.947,85,51.512,85z"/>
<text transform="matrix(1 0 0 1 105.5127 30.001)" font-family="'Gotham-Book'" font-size="18">Vice / Hunting for Treasures from the Spanish Civil War</text>
<text transform="matrix(1 0 0 1 107.5127 54.002)" font-family="'Acid-Italic'" font-size="18">Lawyer and military historian Ricardo Castellano has built a career on tracking and cataloguing</text>
<text transform="matrix(1 0 0 1 107.5127 75.6016)" font-family="'Acid-Italic'" font-size="18">remnants of war. He has spent the past 15 years...</text>
<path fill="none" d="M17.512,51.107c0,9.483,3.555,18.135,9.398,24.697c6.551,5.854,15.188,9.413,24.656,9.413
	c20.469,0,37.062-16.62,37.062-37.125c0-9.484-3.557-18.135-9.398-24.696c-6.553-5.854-15.188-9.415-24.656-9.415
	C34.105,13.982,17.512,30.604,17.512,51.107z"/>
<path fill="#EBEBEB" d="M17.512,51.107c0-20.504,16.594-37.125,37.062-37.125c9.469,0,18.104,3.562,24.656,9.415
	c-6.789-7.624-16.664-12.428-27.664-12.428c-20.469,0-37.062,16.622-37.062,37.125c0,11.021,4.797,20.912,12.406,27.711
	C21.066,69.242,17.512,60.592,17.512,51.107z"/>
<line fill="none" x1="25.016" y1="21.576" x2="28.455" y2="25.016"/>
<path fill="none" d="M79.23,23.397c-6.553-5.854-15.188-9.415-24.656-9.415c-10.404,0-19.801,4.299-26.531,11.214
	C28.043,25.196,85.072,29.959,79.23,23.397z"/>
<path fill="#E0E0E0" d="M26.91,75.805c-5.844-6.562-9.398-15.213-9.398-24.697c0-10.083,4.018-19.22,10.531-25.91l-3.01-3.011
	c-6.512,6.69-10.529,15.828-10.529,25.908C14.504,59.113,19.301,69.006,26.91,75.805z"/>
<rect x="664.337" y="71.395" fill="#FAFAFA" width="0.975" height="8.641"/>
<polyline fill="#FAFAFA" points="668.381,71.395 667.408,71.395 667.408,80.033 668.381,80.033 "/>
<g>
	<g id="Layer_7">
		<g>
			<path fill="#00DDFF" d="M676.5,70v11h-2v-5h-7v5h-2V69h2v4h6v-1h-5v-3h2v1h1v1h1v-2h1v3h1v-3h1v-1h-11v14h13V70H676.5z M668.5,81
				v-4h5v4H668.5z"/>
			<rect x="675.5" y="69" fill="#00DDFF" width="1" height="1"/>
		</g>
	</g>
	<g id="Layer_8">
		<g opacity="0.13">
			<path fill="#00DDFF" d="M677.5,69v-1h-1v-1h-13v16h15V69H677.5z M677.5,82h-13V68h11v1h1v1h1V82z"/>
			<polygon fill="#00DDFF" points="673.5,69 672.5,69 672.5,71 671.5,71 671.5,70 670.5,70 670.5,69 668.5,69 668.5,72 673.5,72 			
				"/>
		</g>
		<rect x="668.5" y="77" opacity="0.17" fill="#00DDFF" enable-background="new    " width="5" height="4"/>
		<polygon opacity="0.1" fill="#00DDFF" enable-background="new    " points="674.5,72 673.5,72 673.5,73 667.5,73 667.5,69 
			665.5,69 665.5,81 667.5,81 667.5,76 674.5,76 674.5,81 676.5,81 676.5,70 675.5,70 675.5,69 674.5,69 		"/>
	</g>
</g>
<g>
	<circle fill="#B3B3B3" cx="629.019" cy="78.817" r="0.611"/>
	<circle fill="#B3B3B3" cx="629.019" cy="80.653" r="0.611"/>
	<circle fill="#B3B3B3" cx="630.854" cy="78.817" r="0.611"/>
	<circle fill="#B3B3B3" cx="630.854" cy="80.653" r="0.611"/>
	<circle fill="#B3B3B3" cx="632.69" cy="78.817" r="0.611"/>
	<circle fill="#B3B3B3" cx="632.69" cy="80.653" r="0.611"/>
	<circle fill="#B3B3B3" cx="634.526" cy="78.817" r="0.611"/>
	<circle fill="#B3B3B3" cx="634.526" cy="80.653" r="0.611"/>
	<circle fill="#B3B3B3" cx="636.362" cy="78.817" r="0.611"/>
	<circle fill="#B3B3B3" cx="636.362" cy="80.653" r="0.611"/>
	<circle fill="#B3B3B3" cx="638.199" cy="78.817" r="0.611"/>
	<circle fill="#B3B3B3" cx="638.199" cy="80.653" r="0.611"/>
	<circle fill="#B3B3B3" cx="638.199" cy="82.489" r="0.611"/>
	<circle fill="#B3B3B3" cx="638.199" cy="84.325" r="0.611"/>
	<circle fill="#B3B3B3" cx="640.035" cy="82.489" r="0.611"/>
	<circle fill="#B3B3B3" cx="640.035" cy="84.325" r="0.611"/>
	<circle fill="#B3B3B3" cx="641.87" cy="80.653" r="0.611"/>
	<circle fill="#B3B3B3" cx="641.87" cy="82.489" r="0.611"/>
	<circle fill="#B3B3B3" cx="643.708" cy="80.653" r="0.611"/>
	<circle fill="#B3B3B3" cx="643.708" cy="82.489" r="0.611"/>
	<circle fill="#B3B3B3" cx="645.542" cy="78.817" r="0.611"/>
	<circle fill="#B3B3B3" cx="645.542" cy="80.653" r="0.611"/>
	<circle fill="#B3B3B3" cx="647.38" cy="76.979" r="0.611"/>
	<circle fill="#B3B3B3" cx="647.38" cy="78.817" r="0.611"/>
	<circle fill="#B3B3B3" cx="649.216" cy="75.143" r="0.611"/>
	<circle fill="#B3B3B3" cx="649.216" cy="76.979" r="0.611"/>
	<circle fill="#B3B3B3" cx="649.216" cy="78.817" r="0.611"/>
	<circle fill="#B3B3B3" cx="651.052" cy="75.143" r="0.611"/>
	<circle fill="#B3B3B3" cx="651.052" cy="76.979" r="0.611"/>
	<path fill="#FF00E7" d="M651.277,74.261c0-0.317-0.185-0.588-0.45-0.719v-0.009l-11.282-8.045v0.027
		c-0.146-0.135-0.335-0.218-0.549-0.218c-0.444,0-0.804,0.359-0.804,0.804c0,0.008,0.002,0.014,0.002,0.019l0,0v3.823h-10.223v0.009
		c-0.577,0.013-1.041,0.468-1.068,1.041h-0.013v6.723h0.007v0.005c0,0.598,0.479,1.084,1.072,1.096v0.002h10.223v3.609h0.001
		c0,0.012-0.003,0.018-0.003,0.026c0,0.444,0.359,0.804,0.804,0.804c0.248,0,0.466-0.115,0.611-0.29l11.221-7.946v-0.043
		C651.093,74.85,651.277,74.577,651.277,74.261z"/>
</g>
</svg>
