<?xml version="1.0" encoding="utf-8"?>
<!-- Generator: Adobe Illustrator 16.0.0, SVG Export Plug-In . SVG Version: 6.00 Build 0)  -->
<!DOCTYPE svg PUBLIC "-//W3C//DTD SVG 1.1//EN" "http://www.w3.org/Graphics/SVG/1.1/DTD/svg11.dtd">
<svg version="1.1" id="Layer_1" xmlns="http://www.w3.org/2000/svg" xmlns:xlink="http://www.w3.org/1999/xlink" x="0px" y="0px"
	 width="270px" height="102px" viewBox="-0.5 0.5 270 102" enable-background="new -0.5 0.5 270 102" xml:space="preserve">
<path fill="#E0E0E0" d="M266.171,13.227h0.033l-6.366-6.367l-3.896,93.646h1.559c6.628,0,12-5.373,12-12v-67
	C269.499,18.292,268.228,15.381,266.171,13.227z"/>
<g>
	<path fill="none" d="M92.499,51.506c0-20.436-16.564-37-37-37C75.934,14.506,92.499,31.071,92.499,51.506z"/>
	<path fill="none" d="M44.497,16.169c0.24-0.075,0.485-0.137,0.727-0.207C44.981,16.033,44.736,16.095,44.497,16.169z"/>
	<path fill="none" d="M71.618,84.817c-0.026,0.013-0.051,0.027-0.078,0.04C71.566,84.845,71.592,84.83,71.618,84.817z"/>
	<path fill="none" d="M47.447,15.395c1.192-0.265,2.406-0.471,3.639-0.618C49.853,14.924,48.639,15.13,47.447,15.395z"/>
	<path fill="none" d="M42.139,17.002c-13.829,5.359-23.64,18.781-23.64,34.503C18.499,35.784,28.31,22.362,42.139,17.002z"/>
	<path fill="none" d="M66.528,86.834c-0.009,0.002-0.017,0.006-0.026,0.009C66.511,86.84,66.519,86.836,66.528,86.834z"/>
	<path fill="none" d="M61.64,87.989c-1.999,0.334-4.048,0.517-6.141,0.517C57.592,88.506,59.642,88.323,61.64,87.989z"/>
	<path fill="none" d="M66.528,86.834c1.729-0.539,3.403-1.201,5.012-1.977c0.026-0.013,0.052-0.027,0.078-0.04
		c12.359-5.991,20.881-18.656,20.881-33.312c0-20.435-16.565-37-37-37c-1.495,0-2.965,0.099-4.414,0.271
		c-1.233,0.147-2.446,0.354-3.639,0.618c-0.75,0.167-1.491,0.356-2.224,0.568c-0.242,0.07-0.487,0.132-0.727,0.207
		c-0.799,0.249-1.583,0.533-2.357,0.833c-13.83,5.359-23.64,18.782-23.64,34.503c0,20.434,16.566,37,37,37
		c2.093,0,4.143-0.183,6.141-0.517c1.66-0.277,3.285-0.656,4.862-1.146C66.511,86.84,66.519,86.836,66.528,86.834z"/>
	<path fill="#F2F2F2" d="M251.981,82.82v17.686h5.517c3.356,0,6.39-1.381,8.565-3.604L251.981,82.82z"/>
	<path fill="#F2F2F2" d="M22.499,9.506c-6.627,0-12,5.372-12,12v67c0,1.012,0.141,1.99,0.375,2.93l-2.889-0.496l5.812,5.812
		c2.188,2.307,5.271,3.754,8.701,3.754h230.035v-91H22.499z M55.499,88.506c-20.435,0-37-16.565-37-37
		c0-15.723,9.811-29.145,23.64-34.503c0.775-0.3,1.558-0.584,2.357-0.833c0.24-0.075,0.485-0.137,0.727-0.207
		c0.732-0.211,1.473-0.401,2.224-0.568c1.192-0.265,2.406-0.471,3.639-0.618c1.448-0.172,2.919-0.271,4.414-0.271
		c20.436,0,37,16.564,37,37c0,14.656-8.522,27.32-20.881,33.312c-0.026,0.013-0.051,0.027-0.078,0.04
		c-1.609,0.775-3.284,1.438-5.012,1.977c-0.009,0.002-0.017,0.006-0.026,0.009c-1.577,0.49-3.202,0.869-4.862,1.146
		C59.642,88.323,57.592,88.506,55.499,88.506z"/>
	<path fill="#F2F2F2" d="M71.54,84.857c-1.609,0.775-3.284,1.438-5.012,1.977C68.256,86.295,69.931,85.633,71.54,84.857z"/>
	<path fill="#F2F2F2" d="M51.085,14.777c1.448-0.172,2.919-0.271,4.414-0.271C54.004,14.506,52.534,14.604,51.085,14.777z"/>
	<path fill="#F2F2F2" d="M45.223,15.963c0.732-0.211,1.473-0.401,2.224-0.568C46.696,15.562,45.955,15.751,45.223,15.963z"/>
	<path fill="#F2F2F2" d="M42.139,17.002c0.775-0.3,1.558-0.584,2.357-0.833C43.697,16.418,42.914,16.702,42.139,17.002z"/>
	<path fill="#F2F2F2" d="M61.64,87.989c1.66-0.277,3.285-0.656,4.862-1.146C64.925,87.333,63.3,87.712,61.64,87.989z"/>
	<path fill="#F2F2F2" d="M71.618,84.817c12.359-5.991,20.881-18.655,20.881-33.312C92.499,66.161,83.977,78.826,71.618,84.817z"/>
	<path fill="#F2F2F2" d="M18.499,51.506c0,20.435,16.565,37,37,37C35.065,88.506,18.499,71.939,18.499,51.506z"/>
</g>
<g>
	<path fill="#FAFAFA" d="M251.981,3.524V3.5h-0.488h-0.96v91h0.96h0.488v-0.024c6.399-0.259,11.512-5.514,11.512-11.976v-67
		C263.493,9.037,258.381,3.783,251.981,3.524z"/>
	<path fill="#FAFAFA" d="M16.493,3.5c-6.627,0-12,5.372-12,12v67c0,6.627,5.373,12,12,12h236.04v-91H16.493z"/>
</g>
<text transform="matrix(1 0 0 1 18.4941 30.501)" font-family="'Gotham-Book'" font-size="18">Vice / Spanish Civil War</text>
<text transform="matrix(1 0 0 1 20.4941 54.502)" font-family="'Acid-Italic'" font-size="18">Lawyer and military historian Ricardo</text>
<text transform="matrix(1 0 0 1 20.4941 76.1016)" font-family="'Acid-Italic'" font-size="18">Castellano has built a career on...</text>
<path fill="none" d="M19.493,51.607c0,9.482,3.555,18.135,9.398,24.697c6.551,5.854,15.188,9.412,24.656,9.412
	c20.469,0,37.062-16.619,37.062-37.125c0-9.484-3.557-18.135-9.398-24.696c-6.553-5.854-15.188-9.415-24.656-9.415
	C36.086,14.482,19.493,31.104,19.493,51.607z"/>
<line fill="none" x1="26.997" y1="22.076" x2="30.436" y2="25.516"/>
<path fill="none" d="M81.211,23.897c-6.553-5.854-15.188-9.415-24.656-9.415c-10.404,0-19.801,4.299-26.531,11.214
	C30.024,25.696,87.053,30.459,81.211,23.897z"/>
<g>
	<g id="Layer_7">
		<g>
			<path fill="#00DDFF" d="M248.45,71.5v11h-2v-5h-7v5h-2v-12h2v4h6v-1h-5v-3h2v1h1v1h1v-2h1v3h1v-3h1v-1h-11v14h13v-12H248.45z
				 M240.45,82.5v-4h5v4H240.45z"/>
			<rect x="247.45" y="70.5" fill="#00DDFF" width="1" height="1"/>
		</g>
	</g>
	<g id="Layer_8">
		<g opacity="0.13">
			<path fill="#00DDFF" d="M249.45,70.5v-1h-1v-1h-13v16h15v-14H249.45z M249.45,83.5h-13v-14h11v1h1v1h1V83.5z"/>
			<polygon fill="#00DDFF" points="245.45,70.5 244.45,70.5 244.45,72.5 243.45,72.5 243.45,71.5 242.45,71.5 242.45,70.5 
				240.45,70.5 240.45,73.5 245.45,73.5 			"/>
		</g>
		<rect x="240.45" y="78.5" opacity="0.17" fill="#00DDFF" enable-background="new    " width="5" height="4"/>
		<polygon opacity="0.1" fill="#00DDFF" enable-background="new    " points="246.45,73.5 245.45,73.5 245.45,74.5 239.45,74.5 
			239.45,70.5 237.45,70.5 237.45,82.5 239.45,82.5 239.45,77.5 246.45,77.5 246.45,82.5 248.45,82.5 248.45,71.5 247.45,71.5 
			247.45,70.5 246.45,70.5 		"/>
	</g>
</g>
<g>
	<circle fill="#B3B3B3" cx="200.698" cy="79.317" r="0.611"/>
	<circle fill="#B3B3B3" cx="200.698" cy="81.153" r="0.611"/>
	<circle fill="#B3B3B3" cx="202.534" cy="79.317" r="0.611"/>
	<circle fill="#B3B3B3" cx="202.534" cy="81.153" r="0.611"/>
	<circle fill="#B3B3B3" cx="204.37" cy="79.317" r="0.611"/>
	<circle fill="#B3B3B3" cx="204.37" cy="81.153" r="0.611"/>
	<circle fill="#B3B3B3" cx="206.206" cy="79.317" r="0.611"/>
	<circle fill="#B3B3B3" cx="206.206" cy="81.153" r="0.611"/>
	<circle fill="#B3B3B3" cx="208.042" cy="79.317" r="0.611"/>
	<circle fill="#B3B3B3" cx="208.042" cy="81.153" r="0.611"/>
	<circle fill="#B3B3B3" cx="209.879" cy="79.317" r="0.611"/>
	<circle fill="#B3B3B3" cx="209.879" cy="81.153" r="0.611"/>
	<circle fill="#B3B3B3" cx="209.879" cy="82.989" r="0.611"/>
	<circle fill="#B3B3B3" cx="209.879" cy="84.825" r="0.611"/>
	<circle fill="#B3B3B3" cx="211.715" cy="82.989" r="0.611"/>
	<circle fill="#B3B3B3" cx="211.715" cy="84.825" r="0.611"/>
	<circle fill="#B3B3B3" cx="213.55" cy="81.153" r="0.611"/>
	<circle fill="#B3B3B3" cx="213.55" cy="82.989" r="0.611"/>
	<circle fill="#B3B3B3" cx="215.388" cy="81.153" r="0.611"/>
	<circle fill="#B3B3B3" cx="215.388" cy="82.989" r="0.611"/>
	<circle fill="#B3B3B3" cx="217.223" cy="79.317" r="0.611"/>
	<circle fill="#B3B3B3" cx="217.223" cy="81.153" r="0.611"/>
	<circle fill="#B3B3B3" cx="219.06" cy="77.479" r="0.611"/>
	<circle fill="#B3B3B3" cx="219.06" cy="79.317" r="0.611"/>
	<circle fill="#B3B3B3" cx="220.896" cy="75.643" r="0.611"/>
	<circle fill="#B3B3B3" cx="220.896" cy="77.479" r="0.611"/>
	<circle fill="#B3B3B3" cx="220.896" cy="79.317" r="0.611"/>
	<circle fill="#B3B3B3" cx="222.731" cy="75.643" r="0.611"/>
	<circle fill="#B3B3B3" cx="222.731" cy="77.479" r="0.611"/>
	<path fill="#FF00E7" d="M222.957,74.761c0-0.317-0.185-0.588-0.45-0.719v-0.009l-11.282-8.045v0.027
		c-0.146-0.135-0.335-0.218-0.549-0.218c-0.444,0-0.804,0.359-0.804,0.804c0,0.008,0.002,0.014,0.002,0.019l0,0v3.823h-10.223v0.009
		c-0.577,0.013-1.041,0.468-1.068,1.041h-0.013v6.723h0.007v0.005c0,0.598,0.479,1.084,1.072,1.096v0.002h10.223v3.609h0.001
		c0,0.012-0.003,0.018-0.003,0.026c0,0.444,0.359,0.804,0.804,0.804c0.248,0,0.466-0.115,0.611-0.29l11.221-7.946v-0.043
		C222.772,75.35,222.957,75.077,222.957,74.761z"/>
</g>
</svg>
