<?xml version="1.0" encoding="utf-8"?>
<!-- Generator: Adobe Illustrator 16.0.0, SVG Export Plug-In . SVG Version: 6.00 Build 0)  -->
<!DOCTYPE svg PUBLIC "-//W3C//DTD SVG 1.1//EN" "http://www.w3.org/Graphics/SVG/1.1/DTD/svg11.dtd">
<svg version="1.1" id="Layer_1" xmlns="http://www.w3.org/2000/svg" xmlns:xlink="http://www.w3.org/1999/xlink" x="0px" y="0px"
	 width="154px" height="101px" viewBox="0 0 154 101" enable-background="new 0 0 154 101" xml:space="preserve">
<g>
	<path fill="#E0E0E0" d="M148.542,11.702h0.031l-6.367-6.367l-3.896,93.646h1.559c6.627,0,12-5.373,12-12v-67
		C151.869,16.768,150.599,13.856,148.542,11.702z"/>
	<g>
		<path fill="#F2F2F2" d="M148.433,95.378L61.037,7.981H2.043v84.994l6.011,6.006h131.814
			C143.226,98.981,146.255,97.601,148.433,95.378z"/>
	</g>
	<g>
		<path fill="#FAFAFA" d="M133.863,1.976H2.043v91h131.819c6.627,0,12-5.373,12-12v-67C145.863,7.348,140.49,1.976,133.863,1.976z"
			/>
	</g>
	<path d="M7.313,16.103h1.584v1.531H7.313V16.103z M7.403,19.668h1.386v9.309H7.403V19.668z"/>
	<path d="M12.208,15.833h1.386v13.144h-1.386V15.833z"/>
	<path d="M21.622,16.373h1.548l3.602,10.497l3.457-10.533h1.17l3.457,10.533l3.602-10.497h1.494L35.45,29.066h-1.207l-3.457-10.227
		l-3.475,10.227h-1.188L21.622,16.373z"/>
	<path d="M40.396,26.276V26.24c0-1.962,1.62-3.007,3.979-3.007c1.188,0,2.035,0.162,2.863,0.396v-0.324
		c0-1.674-1.026-2.539-2.773-2.539c-1.098,0-1.962,0.288-2.826,0.684l-0.414-1.134c1.026-0.468,2.034-0.774,3.385-0.774
		c1.314,0,2.322,0.342,3.007,1.026c0.63,0.63,0.954,1.531,0.954,2.719v5.689h-1.332v-1.404c-0.648,0.846-1.729,1.603-3.367,1.603
		C42.142,29.175,40.396,28.185,40.396,26.276z M47.255,25.556v-0.9c-0.684-0.198-1.603-0.396-2.736-0.396
		c-1.747,0-2.719,0.756-2.719,1.926v0.036c0,1.17,1.08,1.854,2.341,1.854C45.851,28.076,47.255,27.032,47.255,25.556z"/>
	<path d="M51.592,19.668h1.386v2.431c0.685-1.549,2.035-2.665,3.8-2.593V21h-0.108c-2.034,0-3.691,1.458-3.691,4.268v3.709h-1.386
		V19.668z"/>
	<path d="M2.431,51.141c0-0.041,0-0.085,0-0.132c0-0.422,0.05-0.917,0.149-1.485c0.112-0.633,0.253-1.166,0.424-1.6
		c0.182-0.486,0.525-0.908,1.03-1.266c0.5-0.334,1.017-0.501,1.552-0.501H5.93c0.651,0,1.187,0.249,1.604,0.745l0.118-0.675
		l0.624,0.105l-0.985,5.581c-0.012,0.111,0.126,0.311,0.413,0.598L7.273,52.96c-0.316-0.293-0.504-0.533-0.562-0.721
		c-0.088,0.088-0.201,0.179-0.342,0.272c-0.498,0.334-1.014,0.501-1.547,0.501H4.479c-0.557,0-1.036-0.182-1.438-0.545
		S2.437,51.662,2.431,51.141z M3.055,51.141c0.012,0.346,0.155,0.639,0.431,0.879c0.276,0.24,0.607,0.36,0.995,0.36h0.343
		c0.394,0,0.783-0.127,1.17-0.382c0.388-0.255,0.657-0.563,0.81-0.927l0.543-3.097c-0.029-0.328-0.181-0.608-0.453-0.842
		s-0.597-0.351-0.972-0.351H5.579c-0.404,0-0.802,0.133-1.191,0.4S3.735,47.766,3.6,48.135c-0.158,0.404-0.29,0.905-0.396,1.503
		c-0.105,0.568-0.155,1.049-0.149,1.441C3.055,51.097,3.055,51.117,3.055,51.141z"/>
	<path d="M9.542,52.942l0.833-4.718l0.037-0.208l0.146-0.831c0.012-0.094-0.12-0.287-0.396-0.58l0.439-0.431
		c0.286,0.27,0.464,0.516,0.534,0.738c0.023-0.018,0.056-0.042,0.097-0.075s0.072-0.057,0.096-0.075
		c0.497-0.346,1.014-0.519,1.551-0.519h0.088c0.636,0,1.15,0.234,1.541,0.703c0.263,0.305,0.395,0.653,0.395,1.046
		c0,0.142-0.012,0.287-0.035,0.435l-0.817,4.619l-0.624-0.105l0.826-4.72c0.018-0.082,0.026-0.164,0.026-0.246
		c0-0.234-0.079-0.445-0.236-0.633c-0.252-0.311-0.605-0.466-1.062-0.466h-0.088c-0.392,0-0.786,0.133-1.184,0.4
		c-0.397,0.267-0.632,0.62-0.702,1.06l-0.842,4.709L9.542,52.942z"/>
	<path d="M16.195,51.123c0-0.047,0-0.091,0-0.132c0-0.422,0.047-0.92,0.142-1.494c0.105-0.633,0.244-1.166,0.415-1.6
		c0.164-0.457,0.509-0.876,1.032-1.257c0.5-0.334,1.019-0.501,1.554-0.501h0.345c0.665,0,1.206,0.247,1.624,0.741l0.686-3.896
		l0.593,0.132l-0.859,4.879l-0.684,3.885c-0.012,0.111,0.126,0.311,0.413,0.597l-0.431,0.448c-0.316-0.293-0.504-0.533-0.562-0.721
		c-0.088,0.088-0.203,0.179-0.344,0.272c-0.48,0.334-0.997,0.501-1.548,0.501h-0.325c-0.558,0-1.037-0.18-1.438-0.541
		C16.405,52.077,16.201,51.639,16.195,51.123z M16.819,51.105c0.012,0.346,0.156,0.639,0.433,0.879s0.609,0.36,0.998,0.36h0.326
		c0.406,0,0.805-0.131,1.196-0.395s0.661-0.579,0.808-0.947l0.526-2.987c-0.012-0.347-0.156-0.642-0.433-0.886
		c-0.276-0.244-0.608-0.366-0.996-0.366h-0.345c-0.399,0-0.797,0.133-1.19,0.4c-0.395,0.267-0.659,0.584-0.794,0.954
		c-0.153,0.404-0.282,0.902-0.388,1.494c-0.095,0.533-0.142,0.99-0.142,1.371C16.819,51.023,16.819,51.064,16.819,51.105z"/>
	<path d="M26.856,51.141c0-0.023,0-0.047,0-0.07c0-0.428,0.053-0.94,0.158-1.538c0.11-0.633,0.248-1.169,0.412-1.608
		c0.182-0.504,0.523-0.926,1.026-1.266c0.516-0.346,1.036-0.519,1.562-0.519h0.342c0.55,0,1.025,0.183,1.426,0.549
		c0.401,0.366,0.61,0.807,0.628,1.323l-0.624,0.018c-0.012-0.346-0.158-0.643-0.439-0.892s-0.609-0.374-0.984-0.374H30.02
		c-0.404,0-0.805,0.136-1.199,0.409c-0.396,0.272-0.661,0.593-0.796,0.962c-0.158,0.41-0.29,0.911-0.396,1.503
		c-0.105,0.562-0.155,1.043-0.149,1.441c0,0.023,0,0.044,0,0.062c0.006,0.34,0.149,0.632,0.431,0.874
		c0.281,0.244,0.612,0.365,0.993,0.365h0.343c0.404,0,0.805-0.132,1.199-0.396c0.396-0.264,0.661-0.58,0.796-0.949l0.597,0.211
		c-0.182,0.486-0.524,0.908-1.028,1.266c-0.497,0.334-1.019,0.501-1.563,0.501h-0.343c-0.551,0-1.025-0.182-1.424-0.545
		S26.874,51.662,26.856,51.141z"/>
	<path d="M33.694,51.141c0-0.041,0-0.085,0-0.132c0-0.422,0.05-0.917,0.149-1.485c0.112-0.633,0.253-1.166,0.424-1.6
		c0.182-0.486,0.525-0.908,1.03-1.266c0.5-0.334,1.017-0.501,1.552-0.501h0.344c0.651,0,1.187,0.249,1.604,0.745l0.118-0.675
		l0.624,0.105l-0.985,5.581c-0.012,0.111,0.126,0.311,0.413,0.598l-0.431,0.448c-0.316-0.293-0.504-0.533-0.562-0.721
		c-0.088,0.088-0.201,0.179-0.342,0.272c-0.498,0.334-1.014,0.501-1.547,0.501h-0.343c-0.557,0-1.036-0.182-1.438-0.545
		S33.7,51.662,33.694,51.141z M34.318,51.141c0.012,0.346,0.155,0.639,0.431,0.879c0.276,0.24,0.607,0.36,0.995,0.36h0.343
		c0.394,0,0.783-0.127,1.17-0.382c0.388-0.255,0.657-0.563,0.81-0.927l0.543-3.097c-0.029-0.328-0.181-0.608-0.453-0.842
		s-0.597-0.351-0.972-0.351h-0.343c-0.404,0-0.802,0.133-1.191,0.4s-0.652,0.584-0.787,0.954c-0.158,0.404-0.29,0.905-0.396,1.503
		c-0.105,0.568-0.155,1.049-0.149,1.441C34.318,51.097,34.318,51.117,34.318,51.141z"/>
	<path d="M40.822,52.193l0.837-4.762h-0.661v-0.624h0.771l0.672-3.823l0.596,0.114l-0.656,3.709h1.315v0.624H42.27l-0.841,4.755
		c-0.012,0.105,0.12,0.297,0.395,0.571l-0.431,0.439c-0.135-0.116-0.241-0.215-0.321-0.296c-0.078-0.082-0.147-0.186-0.206-0.312
		c-0.041-0.084-0.062-0.172-0.062-0.262C40.804,52.28,40.81,52.235,40.822,52.193z"/>
	<path d="M44.206,51.141c0-0.041,0-0.085,0-0.132c0-0.422,0.05-0.917,0.149-1.485c0.112-0.633,0.253-1.166,0.424-1.6
		c0.182-0.486,0.525-0.908,1.03-1.266c0.5-0.334,1.017-0.501,1.552-0.501h0.344c0.651,0,1.187,0.249,1.604,0.745l0.118-0.675
		l0.624,0.105l-0.985,5.581c-0.012,0.111,0.126,0.311,0.413,0.598l-0.431,0.448c-0.316-0.293-0.504-0.533-0.562-0.721
		c-0.088,0.088-0.201,0.179-0.342,0.272c-0.498,0.334-1.014,0.501-1.547,0.501h-0.343c-0.557,0-1.036-0.182-1.438-0.545
		S44.211,51.662,44.206,51.141z M44.83,51.141c0.012,0.346,0.155,0.639,0.431,0.879c0.276,0.24,0.607,0.36,0.995,0.36h0.343
		c0.394,0,0.783-0.127,1.17-0.382c0.388-0.255,0.657-0.563,0.81-0.927l0.543-3.097c-0.029-0.328-0.181-0.608-0.453-0.842
		s-0.597-0.351-0.972-0.351h-0.343c-0.404,0-0.802,0.133-1.191,0.4s-0.652,0.584-0.787,0.954c-0.158,0.404-0.29,0.905-0.396,1.503
		c-0.105,0.568-0.155,1.049-0.149,1.441C44.83,51.097,44.83,51.117,44.83,51.141z"/>
	<path d="M51.333,52.138l1.61-9.153l0.622,0.114l-1.607,9.088c-0.029,0.111,0.103,0.302,0.395,0.571l-0.448,0.439
		c-0.135-0.122-0.241-0.227-0.321-0.312c-0.078-0.087-0.147-0.196-0.206-0.329c-0.041-0.09-0.062-0.182-0.062-0.275
		C51.316,52.229,51.322,52.183,51.333,52.138z"/>
	<path d="M54.823,51.105c0-0.445,0.053-0.973,0.158-1.582c0.104-0.609,0.236-1.125,0.395-1.547c0.182-0.475,0.518-0.885,1.009-1.23
		c0.463-0.322,0.966-0.483,1.51-0.483h0.324c0.538,0,1.004,0.177,1.396,0.532s0.591,0.784,0.597,1.288c0,0.047,0,0.091,0,0.132
		c0,0.41-0.047,0.891-0.141,1.441c-0.105,0.609-0.236,1.128-0.395,1.556c-0.182,0.475-0.518,0.885-1.009,1.23
		c-0.48,0.334-0.983,0.501-1.51,0.501h-0.324c-0.545,0-1.011-0.179-1.399-0.536C55.043,52.049,54.84,51.615,54.823,51.105z
		 M55.447,51.105c0.012,0.334,0.152,0.618,0.422,0.853s0.592,0.352,0.967,0.352h0.325c0.387,0,0.771-0.131,1.151-0.391
		c0.381-0.262,0.639-0.567,0.773-0.919c0.146-0.393,0.27-0.876,0.369-1.45c0.088-0.516,0.132-0.961,0.132-1.336
		c0-0.041,0-0.085,0-0.132c0-0.322-0.135-0.601-0.404-0.835s-0.589-0.352-0.958-0.352h-0.325c-0.387,0-0.771,0.127-1.151,0.382
		s-0.639,0.558-0.773,0.91c-0.146,0.393-0.271,0.877-0.374,1.455S55.447,50.707,55.447,51.105z"/>
	<path d="M61.511,51.141c0-0.041,0-0.085,0-0.132c0-0.41,0.047-0.896,0.141-1.459c0.111-0.621,0.249-1.151,0.413-1.591
		c0.181-0.475,0.518-0.885,1.01-1.23c0.497-0.334,1.007-0.501,1.527-0.501h0.343c0.463,0,0.863,0.126,1.203,0.379l0.083-0.467
		l0.624,0.105L65.36,54.69c-0.036,0.205-0.104,0.397-0.205,0.576c-0.101,0.179-0.182,0.301-0.244,0.365s-0.167,0.164-0.313,0.299
		l-0.633,0.535l-0.413-0.465c0-0.006,0.211-0.186,0.633-0.537c0.1-0.094,0.177-0.171,0.232-0.232s0.115-0.15,0.181-0.268
		c0.064-0.117,0.11-0.246,0.141-0.389l0.341-1.93c-0.392,0.222-0.798,0.332-1.218,0.332h-0.342c-0.55,0-1.019-0.18-1.407-0.541
		C61.723,52.077,61.523,51.645,61.511,51.141z M62.135,51.123c0.012,0.334,0.152,0.621,0.421,0.861c0.27,0.24,0.592,0.36,0.966,0.36
		h0.343c0.222,0,0.459-0.053,0.711-0.158c0.251-0.105,0.471-0.244,0.658-0.414l0.782-4.421c-0.286-0.327-0.646-0.491-1.077-0.491
		h-0.342c-0.392,0-0.778,0.13-1.161,0.391s-0.641,0.573-0.775,0.936c-0.151,0.393-0.28,0.882-0.385,1.468
		c-0.094,0.521-0.141,0.97-0.141,1.345C62.135,51.041,62.135,51.082,62.135,51.123z"/>
	<path d="M68.147,50.841l0.826-4.684l0.615,0.123l-0.826,4.734c-0.018,0.08-0.026,0.156-0.026,0.229
		c0,0.227,0.082,0.432,0.247,0.618c0.252,0.299,0.607,0.448,1.066,0.448h0.088c0.388,0,0.781-0.135,1.181-0.404
		s0.638-0.621,0.714-1.055l0.826-4.693l0.615,0.123l-0.815,4.684c-0.111,0.58-0.436,1.066-0.974,1.459
		c-0.498,0.347-1.013,0.52-1.545,0.52h-0.088c-0.638,0-1.152-0.234-1.545-0.703c-0.263-0.305-0.395-0.653-0.395-1.046
		C68.112,51.079,68.124,50.962,68.147,50.841z"/>
	<path d="M74.906,52.89l1.182-6.785l0.624,0.105l-1.182,6.785L74.906,52.89z M76.329,44.716l0.186-1.063l0.624,0.105l-0.186,1.063
		L76.329,44.716z"/>
	<path d="M77.912,52.942l0.833-4.718l0.037-0.208l0.146-0.831c0.012-0.094-0.12-0.287-0.396-0.58l0.439-0.431
		c0.286,0.27,0.464,0.516,0.534,0.738c0.023-0.018,0.056-0.042,0.097-0.075s0.072-0.057,0.096-0.075
		c0.497-0.346,1.014-0.519,1.551-0.519h0.088c0.636,0,1.15,0.234,1.541,0.703c0.263,0.305,0.395,0.653,0.395,1.046
		c0,0.142-0.012,0.287-0.035,0.435l-0.817,4.619l-0.624-0.105l0.826-4.72c0.018-0.082,0.026-0.164,0.026-0.246
		c0-0.234-0.079-0.445-0.236-0.633c-0.252-0.311-0.605-0.466-1.062-0.466h-0.088c-0.392,0-0.786,0.133-1.184,0.4
		c-0.397,0.267-0.632,0.62-0.702,1.06l-0.842,4.709L77.912,52.942z"/>
	<path d="M84.565,51.141c0-0.041,0-0.085,0-0.132c0-0.41,0.047-0.896,0.141-1.459c0.111-0.621,0.249-1.151,0.413-1.591
		c0.181-0.475,0.518-0.885,1.01-1.23c0.497-0.334,1.007-0.501,1.527-0.501h0.343c0.463,0,0.863,0.126,1.203,0.379l0.083-0.467
		l0.624,0.105l-1.495,8.445c-0.036,0.205-0.104,0.397-0.205,0.576c-0.101,0.179-0.182,0.301-0.244,0.365s-0.167,0.164-0.313,0.299
		l-0.633,0.535l-0.413-0.465c0-0.006,0.211-0.186,0.633-0.537c0.1-0.094,0.177-0.171,0.232-0.232s0.115-0.15,0.181-0.268
		c0.064-0.117,0.11-0.246,0.141-0.389l0.341-1.93c-0.392,0.222-0.798,0.332-1.218,0.332h-0.342c-0.55,0-1.019-0.18-1.407-0.541
		C84.777,52.077,84.577,51.645,84.565,51.141z M85.189,51.123c0.012,0.334,0.152,0.621,0.421,0.861c0.27,0.24,0.592,0.36,0.966,0.36
		h0.343c0.222,0,0.459-0.053,0.711-0.158c0.251-0.105,0.471-0.244,0.658-0.414l0.782-4.421c-0.286-0.327-0.646-0.491-1.077-0.491
		h-0.342c-0.392,0-0.778,0.13-1.161,0.391s-0.641,0.573-0.775,0.936c-0.151,0.393-0.28,0.882-0.385,1.468
		c-0.094,0.521-0.141,0.97-0.141,1.345C85.189,51.041,85.189,51.082,85.189,51.123z"/>
	<g id="Layer_7">
		<g>
			<path fill="#00DDFF" d="M128.826,69.788v11h-2v-5h-7v5h-2v-12h2v4h6v-1h-5v-3h2v1h1v1h1v-2h1v3h1v-3h1v-1h-11v14h13v-12H128.826z
				 M120.826,80.788v-4h5v4H120.826z"/>
			<rect x="127.826" y="68.788" fill="#00DDFF" width="1" height="1"/>
		</g>
	</g>
	<g id="Layer_8">
		<g opacity="0.13">
			<path fill="#00DDFF" d="M129.826,68.788v-1h-1v-1h-13v16h15v-14H129.826z M129.826,81.788h-13v-14h11v1h1v1h1V81.788z"/>
			<polygon fill="#00DDFF" points="125.826,68.788 124.826,68.788 124.826,70.788 123.826,70.788 123.826,69.788 122.826,69.788 
				122.826,68.788 120.826,68.788 120.826,71.788 125.826,71.788 			"/>
		</g>
		<rect x="120.826" y="76.788" opacity="0.17" fill="#00DDFF" enable-background="new    " width="5" height="4"/>
		<polygon opacity="0.1" fill="#00DDFF" enable-background="new    " points="126.826,71.788 125.826,71.788 125.826,72.788 
			119.826,72.788 119.826,68.788 117.826,68.788 117.826,80.788 119.826,80.788 119.826,75.788 126.826,75.788 126.826,80.788 
			128.826,80.788 128.826,69.788 127.826,69.788 127.826,68.788 126.826,68.788 		"/>
	</g>
	<g>
		<circle fill="#B3B3B3" cx="76.863" cy="78.988" r="0.75"/>
		<circle fill="#B3B3B3" cx="76.863" cy="81.24" r="0.75"/>
		<circle fill="#B3B3B3" cx="79.116" cy="78.988" r="0.75"/>
		<circle fill="#B3B3B3" cx="79.116" cy="81.24" r="0.75"/>
		<circle fill="#B3B3B3" cx="81.367" cy="78.988" r="0.75"/>
		<circle fill="#B3B3B3" cx="81.367" cy="81.24" r="0.75"/>
		<circle fill="#B3B3B3" cx="83.62" cy="78.988" r="0.75"/>
		<circle fill="#B3B3B3" cx="83.62" cy="81.24" r="0.75"/>
		<circle fill="#B3B3B3" cx="85.872" cy="78.988" r="0.75"/>
		<circle fill="#B3B3B3" cx="85.872" cy="81.24" r="0.75"/>
		<circle fill="#B3B3B3" cx="88.124" cy="78.988" r="0.75"/>
		<circle fill="#B3B3B3" cx="88.124" cy="81.24" r="0.75"/>
		<circle fill="#B3B3B3" cx="88.124" cy="83.492" r="0.75"/>
		<circle fill="#B3B3B3" cx="88.124" cy="85.744" r="0.75"/>
		<circle fill="#B3B3B3" cx="90.376" cy="83.492" r="0.75"/>
		<circle fill="#B3B3B3" cx="90.376" cy="85.744" r="0.75"/>
		<circle fill="#B3B3B3" cx="92.627" cy="81.24" r="0.75"/>
		<circle fill="#B3B3B3" cx="92.627" cy="83.492" r="0.75"/>
		<circle fill="#B3B3B3" cx="94.88" cy="81.24" r="0.75"/>
		<circle fill="#B3B3B3" cx="94.88" cy="83.492" r="0.75"/>
		<circle fill="#B3B3B3" cx="97.132" cy="78.988" r="0.75"/>
		<circle fill="#B3B3B3" cx="97.132" cy="81.24" r="0.75"/>
		<circle fill="#B3B3B3" cx="99.385" cy="76.735" r="0.75"/>
		<circle fill="#B3B3B3" cx="99.385" cy="78.988" r="0.75"/>
		<circle fill="#B3B3B3" cx="101.636" cy="74.483" r="0.75"/>
		<circle fill="#B3B3B3" cx="101.636" cy="76.735" r="0.75"/>
		<circle fill="#B3B3B3" cx="101.636" cy="78.988" r="0.75"/>
		<circle fill="#B3B3B3" cx="103.889" cy="74.483" r="0.75"/>
		<circle fill="#B3B3B3" cx="103.889" cy="76.735" r="0.75"/>
		<path fill="#FF00E7" d="M104.165,73.401c0-0.39-0.226-0.721-0.551-0.882v-0.01l-13.84-9.869v0.035
			c-0.177-0.165-0.411-0.267-0.672-0.267c-0.545,0-0.986,0.441-0.986,0.985c0,0.009,0.002,0.016,0.003,0.024l0,0v4.691H75.58v0.009
			c-0.708,0.015-1.277,0.574-1.311,1.277h-0.014v8.246h0.008v0.007c0,0.732,0.587,1.327,1.316,1.342v0.003h12.538v4.427h0.001
			c0,0.012-0.003,0.021-0.003,0.032c0,0.545,0.441,0.986,0.986,0.986c0.303,0,0.571-0.141,0.751-0.356l13.761-9.746v-0.055
			C103.939,74.12,104.165,73.788,104.165,73.401z"/>
	</g>
	<g>
		<polygon points="5.03,19.668 3.535,19.668 2.043,23.324 2.043,26.582 		"/>
	</g>
	<path fill="#F2F2F2" d="M8.054,98.981"/>
	<path fill="#F2F2F2" d="M2.043,98.981"/>
</g>
</svg>
