<?xml version="1.0" encoding="utf-8"?>
<!-- Generator: Adobe Illustrator 16.0.0, SVG Export Plug-In . SVG Version: 6.00 Build 0)  -->
<!DOCTYPE svg PUBLIC "-//W3C//DTD SVG 1.1//EN" "http://www.w3.org/Graphics/SVG/1.1/DTD/svg11.dtd">
<svg version="1.1" id="Layer_1" xmlns="http://www.w3.org/2000/svg" xmlns:xlink="http://www.w3.org/1999/xlink" x="0px" y="0px"
	 width="32px" height="32px" viewBox="0 0 32 32" enable-background="new 0 0 32 32" xml:space="preserve">
<g>
	<g>
		<circle fill="#00DDFF" cx="10.739" cy="21.456" r="2.677"/>
	</g>
	<g>
		<path fill="#00DDFF" d="M16.888,24.581c-1.11,0-2.008-0.895-2.008-2c0-3.016-2.453-5.467-5.468-5.467c-1.104,0-2-0.893-2-1.997
			s0.896-2,2-2c5.221,0,9.474,4.243,9.474,9.464C18.887,23.687,17.992,24.581,16.888,24.581z"/>
	</g>
	<g>
		<path fill="#00DDFF" d="M22.359,24.581c-1.104,0-2-0.895-2-2c0-6.028-4.914-10.936-10.947-10.936c-1.104,0-2-0.896-2-2
			s0.896-2,2-2c8.246,0,14.947,6.702,14.947,14.936C24.359,23.687,23.465,24.581,22.359,24.581z"/>
	</g>
	<g>
		<path fill="#00DDFF" d="M28.498,30.493H3.501c-1.104,0-2-0.896-2-2V3.507c0-1.104,0.896-2,2-2h24.997c1.105,0,2,0.896,2,2v24.986
			C30.498,29.597,29.604,30.493,28.498,30.493z M5.501,26.493h20.997V5.507H5.501V26.493z"/>
	</g>
</g>
</svg>
