<?xml version="1.0" encoding="utf-8"?>
<!-- Generator: Adobe Illustrator 16.0.0, SVG Export Plug-In . SVG Version: 6.00 Build 0)  -->
<!DOCTYPE svg PUBLIC "-//W3C//DTD SVG 1.1//EN" "http://www.w3.org/Graphics/SVG/1.1/DTD/svg11.dtd">
<svg version="1.1" id="Layer_1" xmlns="http://www.w3.org/2000/svg" xmlns:xlink="http://www.w3.org/1999/xlink" x="0px" y="0px"
	 width="117px" height="11px" viewBox="0 -0.5 117 11" enable-background="new 0 -0.5 117 11" xml:space="preserve">
<path fill="#D7D7D7" d="M114.608,5.805c-1.175,0-2.296-0.449-3.146-1.246c-0.05-0.055-0.409-0.408-0.409-0.408
	c-0.919-0.972-2.15-1.506-3.483-1.506c-1.332,0-2.566,0.535-3.483,1.506c0,0-0.363,0.353-0.412,0.408
	c-0.85,0.797-1.967,1.246-3.142,1.246c-1.176,0-2.293-0.449-3.142-1.246C97.34,4.504,96.98,4.151,96.98,4.151
	c-0.919-0.972-2.155-1.506-3.483-1.506c-1.333,0-2.567,0.535-3.486,1.506c0,0-0.357,0.353-0.41,0.408
	c-0.852,0.797-1.969,1.246-3.144,1.246c-1.174,0-2.292-0.449-3.143-1.246c-0.052-0.055-0.41-0.408-0.41-0.408
	c-0.918-0.972-2.152-1.506-3.484-1.506c-1.33,0-2.565,0.535-3.484,1.506c0,0-0.36,0.353-0.411,0.408
	c-0.849,0.797-1.971,1.246-3.142,1.246s-2.291-0.449-3.139-1.246c-0.057-0.055-0.413-0.408-0.413-0.408
	c-0.919-0.972-2.155-1.506-3.486-1.506s-2.565,0.535-3.484,1.506c0,0-0.357,0.353-0.41,0.408c-0.848,0.797-1.968,1.246-3.142,1.246
	c-1.175,0-2.293-0.449-3.142-1.246c-0.054-0.055-0.412-0.408-0.412-0.408c-0.917-0.972-2.152-1.506-3.481-1.506
	c-1.331,0-2.569,0.535-3.486,1.506c0,0-0.359,0.353-0.413,0.408c-0.849,0.797-1.969,1.246-3.14,1.246
	c-1.173,0-2.292-0.449-3.142-1.246c-0.051-0.055-0.411-0.408-0.411-0.408c-0.917-0.972-2.154-1.506-3.484-1.506
	c-1.331,0-2.568,0.535-3.484,1.506c0,0-0.359,0.353-0.41,0.408c-0.849,0.797-1.969,1.246-3.142,1.246
	c-1.176,0-2.295-0.449-3.145-1.246c-0.053-0.055-0.41-0.408-0.41-0.408c-0.919-0.972-2.151-1.506-3.484-1.506
	c-1.329,0-2.566,0.535-3.482,1.506c0,0-0.361,0.353-0.414,0.408c-0.849,0.797-1.964,1.246-3.14,1.246
	c-1.175,0-2.294-0.449-3.142-1.246c-0.051-0.055-0.412-0.408-0.412-0.408C11.614,3.179,10.38,2.645,9.05,2.645
	c-1.334,0-2.567,0.535-3.486,1.506c0,0-0.359,0.353-0.409,0.408C4.304,5.355,3.184,5.805,2.009,5.805v2.707h112.565L114.608,5.805"
	/>
</svg>
