<?xml version="1.0" encoding="utf-8"?>
<!-- Generator: Adobe Illustrator 16.0.0, SVG Export Plug-In . SVG Version: 6.00 Build 0)  -->
<!DOCTYPE svg PUBLIC "-//W3C//DTD SVG 1.1//EN" "http://www.w3.org/Graphics/SVG/1.1/DTD/svg11.dtd">
<svg version="1.1" id="Layer_1" xmlns="http://www.w3.org/2000/svg" xmlns:xlink="http://www.w3.org/1999/xlink" x="0px" y="0px"
	 width="55px" height="55px" viewBox="-0.5 -0.5 55 55" enable-background="new -0.5 -0.5 55 55" xml:space="preserve">
<g>
	<g>
		<g>
			<path fill="#D7D7D7" d="M26.5,6.5c11.027,0,20,8.972,20,20c0,11.027-8.973,20-20,20c-11.028,0-20-8.973-20-20
				C6.5,15.472,15.472,6.5,26.5,6.5 M26.5,1.5c-13.808,0-25,11.193-25,25c0,13.807,11.192,25,25,25c13.809,0,25-11.193,25-25
				C51.5,12.693,40.309,1.5,26.5,1.5L26.5,1.5z"/>
		</g>
	</g>
	<polygon fill="#D7D7D7" points="41.441,40.5 10.525,40.5 10.525,43.5 26.5,48.167 41.441,43.5 	"/>
</g>
</svg>
