<?xml version="1.0" encoding="utf-8"?>
<!-- Generator: Adobe Illustrator 16.0.0, SVG Export Plug-In . SVG Version: 6.00 Build 0)  -->
<!DOCTYPE svg PUBLIC "-//W3C//DTD SVG 1.1//EN" "http://www.w3.org/Graphics/SVG/1.1/DTD/svg11.dtd">
<svg version="1.1" id="Layer_1" xmlns="http://www.w3.org/2000/svg" xmlns:xlink="http://www.w3.org/1999/xlink" x="0px" y="0px"
	 width="39px" height="58px" viewBox="0 0 39 58" enable-background="new 0 0 39 58" xml:space="preserve">
<g>
	<g>
		<g>
			<path fill="#FFE100" d="M16.839,44.267l8.855-0.019v-6.879c0-1.865,0.87-3.629,3.198-5.154c2.326-1.528,8.824-4.629,8.824-12.772
				c0-8.142-6.822-13.739-12.559-14.927C19.424,3.329,13.21,4.109,8.801,8.94C4.852,13.265,4.02,16.688,4.02,24.237h8.848v-1.756
				c0-4.021,0.465-8.269,6.212-9.428c3.137-0.636,6.079,0.35,7.821,2.055c1.996,1.951,2.012,6.347-1.168,8.534l-4.986,3.393
				c-2.909,1.866-3.907,3.949-3.907,7.003V44.267z"/>
		</g>
		<polygon fill="#FFE100" points="16.783,56.855 16.783,47.737 22.744,44.748 25.758,47.737 25.758,56.855 		"/>
	</g>
	<g>
		<g>
			<path fill="#F6FF00" d="M13.836,41.264l8.855-0.019v-6.879c0-1.865,0.87-3.629,3.197-5.158c2.328-1.53,8.825-4.625,8.825-12.769
				c0-8.142-6.823-13.739-12.558-14.927C16.421,0.326,10.207,1.106,5.798,5.938c-3.949,4.324-4.781,7.747-4.781,15.297h8.848v-1.756
				c0-4.021,0.465-8.269,6.212-9.428c3.137-0.636,6.078,0.35,7.822,2.055c1.994,1.951,2.01,6.347-1.168,8.534l-4.988,3.393
				c-2.908,1.866-3.906,3.944-3.906,7.003V41.264z"/>
		</g>
		<rect x="13.78" y="44.734" fill="#F6FF00" width="8.975" height="9.118"/>
	</g>
	<path fill="#FFA800" d="M16.079,10.057c-1.897,0.383-3.21,1.106-4.129,2.043l3.003,3.003c0.919-0.937,2.232-1.66,4.129-2.043
		c2.153-0.437,4.204-0.098,5.849,0.703c-0.235-0.639-0.579-1.21-1.03-1.651C22.157,10.406,19.216,9.421,16.079,10.057z"/>
	<path fill="#FFA800" d="M28.787,32.304c1.117-0.734,3.196-1.839,5.057-3.688l-3.004-3.003c-1.859,1.844-3.938,2.948-5.057,3.685
		c-0.66,0.435-1.191,0.891-1.631,1.359l3.003,3.002C27.594,33.19,28.126,32.737,28.787,32.304z"/>
	<polygon fill="#FFA800" points="12.864,24.243 4.02,24.243 1.017,21.228 9.861,21.228 	"/>
	<polygon fill="#FFA800" points="25.747,56.857 16.778,56.857 13.775,53.842 22.744,53.842 	"/>
	<polygon fill="#FFA800" points="25.7,44.264 16.825,44.264 13.822,41.248 22.697,41.248 	"/>
</g>
</svg>
