<?xml version="1.0" encoding="utf-8"?>
<!-- Generator: Adobe Illustrator 16.0.0, SVG Export Plug-In . SVG Version: 6.00 Build 0)  -->
<!DOCTYPE svg PUBLIC "-//W3C//DTD SVG 1.1//EN" "http://www.w3.org/Graphics/SVG/1.1/DTD/svg11.dtd">
<svg version="1.1" id="Layer_1" xmlns="http://www.w3.org/2000/svg" xmlns:xlink="http://www.w3.org/1999/xlink" x="0px" y="0px"
	 width="21px" height="21px" viewBox="0 0 21 21" enable-background="new 0 0 21 21" xml:space="preserve">
<g>
	<circle fill="#FF8400" cx="6.849" cy="13.984" r="1.783"/>
	<g>
		<path fill="#FF8400" d="M10.939,15.699c-0.533,0-0.965-0.432-0.965-0.965c0-2.21-1.799-4.008-4.009-4.008
			c-0.533,0-0.965-0.433-0.965-0.965c0-0.533,0.432-0.965,0.965-0.965c3.274,0,5.938,2.664,5.938,5.938
			C11.904,15.268,11.472,15.699,10.939,15.699z"/>
	</g>
	<g>
		<path fill="#FF8400" d="M14.583,15.699c-0.533,0-0.965-0.432-0.965-0.965c0-4.219-3.433-7.652-7.652-7.652
			c-0.533,0-0.965-0.432-0.965-0.965s0.432-0.965,0.965-0.965c5.283,0,9.582,4.299,9.582,9.582
			C15.548,15.268,15.116,15.699,14.583,15.699z"/>
	</g>
	<g>
		<path fill="#FF8400" d="M18.671,19.636H2.029c-0.533,0-0.965-0.433-0.965-0.965V2.029c0-0.533,0.432-0.965,0.965-0.965h16.642
			c0.533,0,0.965,0.432,0.965,0.965v16.642C19.636,19.203,19.204,19.636,18.671,19.636z M2.994,17.706h14.712V2.994H2.994V17.706z"
			/>
	</g>
</g>
</svg>
