<?xml version="1.0" encoding="utf-8"?>
<!-- Generator: Adobe Illustrator 16.0.0, SVG Export Plug-In . SVG Version: 6.00 Build 0)  -->
<!DOCTYPE svg PUBLIC "-//W3C//DTD SVG 1.1//EN" "http://www.w3.org/Graphics/SVG/1.1/DTD/svg11.dtd">
<svg version="1.1" id="Layer_1" xmlns="http://www.w3.org/2000/svg" xmlns:xlink="http://www.w3.org/1999/xlink" x="0px" y="0px"
	 width="115.994px" height="123.955px" viewBox="0 0 115.994 123.955" enable-background="new 0 0 115.994 123.955"
	 xml:space="preserve">
<g>
	<circle fill="none" stroke="#7C7C7C" stroke-width="8" stroke-miterlimit="10" cx="58.039" cy="65.506" r="52.119"/>
	<circle fill="none" stroke="#7C7C7C" stroke-width="3" stroke-miterlimit="10" cx="39.921" cy="9.139" r="6.442"/>
	<circle fill="#7C7C7C" cx="57.121" cy="65.803" r="4.357"/>
	<path fill="none" stroke="#7C7C7C" stroke-width="2" stroke-linecap="round" stroke-miterlimit="10" d="M69.403,59.346
		c1.015,1.924,1.589,4.115,1.589,6.441c0,7.639-6.192,13.831-13.83,13.831c-1.539-0.001-3.019-0.252-4.401-0.716L33.186,94.327"/>
	<path fill="none" stroke="#7C7C7C" stroke-width="2" stroke-linecap="round" stroke-miterlimit="10" d="M33.02,94.39l11.595-22.774
		c-0.824-1.771-1.284-3.746-1.284-5.828c0-7.638,6.192-13.83,13.831-13.83c1.434,0,2.816,0.218,4.117,0.623L81.52,36.889"/>
	
		<line fill="none" stroke="#7C7C7C" stroke-width="2" stroke-linecap="round" stroke-miterlimit="10" x1="69.364" y1="59.232" x2="81.77" y2="36.607"/>
	<circle fill="#7C7C7C" cx="61.996" cy="23.989" r="1.458"/>
	<circle fill="#7C7C7C" cx="71.545" cy="26.326" r="1.458"/>
	<circle fill="#7C7C7C" cx="80.447" cy="31.018" r="1.458"/>
	<circle fill="#7C7C7C" cx="88.01" cy="37.134" r="1.458"/>
	<circle fill="#7C7C7C" cx="93.912" cy="45.217" r="1.458"/>
	<circle fill="#7C7C7C" cx="97.441" cy="54.436" r="1.458"/>
	<circle fill="#7C7C7C" cx="98.92" cy="64.35" r="1.458"/>
	<circle fill="#7C7C7C" cx="97.928" cy="74.046" r="1.458"/>
	<circle fill="#7C7C7C" cx="94.834" cy="83.388" r="1.458"/>
	<circle fill="#7C7C7C" cx="89.383" cy="91.596" r="1.458"/>
	<circle fill="#7C7C7C" cx="82.131" cy="98.384" r="1.458"/>
	<circle fill="#7C7C7C" cx="73.423" cy="103.336" r="1.458"/>
	<circle fill="#7C7C7C" cx="63.902" cy="106.188" r="1.458"/>
	<circle fill="#7C7C7C" cx="53.922" cy="106.157" r="1.458"/>
	<circle fill="#7C7C7C" cx="44.329" cy="103.891" r="1.458"/>
	<circle fill="#7C7C7C" cx="35.294" cy="99.757" r="1.458"/>
	<circle fill="#7C7C7C" cx="27.904" cy="93.47" r="1.458"/>
	<circle fill="#7C7C7C" cx="21.886" cy="85.522" r="1.458"/>
	<circle fill="#7C7C7C" cx="18.412" cy="76.233" r="1.458"/>
	<circle fill="#7C7C7C" cx="16.987" cy="66.362" r="1.458"/>
	<circle fill="#7C7C7C" cx="17.854" cy="56.618" r="1.458"/>
	<circle fill="#7C7C7C" cx="20.956" cy="47.075" r="1.458"/>
	<circle fill="#7C7C7C" cx="26.363" cy="38.872" r="1.458"/>
	<circle fill="#7C7C7C" cx="33.675" cy="32.235" r="1.458"/>
	<circle fill="#7C7C7C" cx="42.432" cy="27.135" r="1.458"/>
	<circle fill="#7C7C7C" cx="51.957" cy="24.711" r="1.458"/>
</g>
</svg>
