<?xml version="1.0" encoding="utf-8"?>
<!-- Generator: Adobe Illustrator 16.0.0, SVG Export Plug-In . SVG Version: 6.00 Build 0)  -->
<!DOCTYPE svg PUBLIC "-//W3C//DTD SVG 1.1//EN" "http://www.w3.org/Graphics/SVG/1.1/DTD/svg11.dtd">
<svg version="1.1" id="Layer_1" xmlns="http://www.w3.org/2000/svg" xmlns:xlink="http://www.w3.org/1999/xlink" x="0px" y="0px"
	 width="25px" height="25px" viewBox="0 0 25 25" enable-background="new 0 0 25 25" xml:space="preserve">
<path fill="#00DDFF" d="M21.859,6.534l0.009-0.009l-3.4-3.397l0,0V3.125H4.958h-0.26H3.125v18.75h0.983h0.85h15.081h0.855h0.98
	V7.453v-0.13V6.534H21.859z M14.794,4.962v2.031h1.312V4.962h0.786v3.014H7.975V4.962H14.794z M17.677,12.957v7.08H7.319v-7.08
	H17.677z M18.598,20.038v-7.08v-0.064v-0.854H6.402v0.854v0.064v7.08H4.958V4.962H7.19v3.8h0.785l0,0h8.917l0,0h0.784v-3.8h0.052
	l2.361,2.359h-0.051v12.716L18.598,20.038L18.598,20.038z"/>
</svg>
