<?xml version="1.0" encoding="utf-8"?>
<!-- Generator: Adobe Illustrator 16.0.0, SVG Export Plug-In . SVG Version: 6.00 Build 0)  -->
<!DOCTYPE svg PUBLIC "-//W3C//DTD SVG 1.1//EN" "http://www.w3.org/Graphics/SVG/1.1/DTD/svg11.dtd">
<svg version="1.1" id="Layer_1" xmlns="http://www.w3.org/2000/svg" xmlns:xlink="http://www.w3.org/1999/xlink" x="0px" y="0px"
	 width="25px" height="25px" viewBox="0 0 25 25" enable-background="new 0 0 25 25" xml:space="preserve">
<path fill="#00DDFF" d="M24.979,4.545l0.012-0.013l-4.534-4.529l0,0V0H2.444H2.097H0v25h1.311h1.134h20.108h1.14H25V5.77V5.596
	V4.545H24.979z M15.559,2.449v2.708h1.749V2.449h1.05v4.019H6.467V2.449H15.559z M19.402,13.11v9.44H5.592v-9.44H19.402z
	 M20.631,22.551v-9.44v-0.086v-1.138H4.37v1.138v0.086v9.44H2.444V2.449H5.42v5.067h1.047l0,0h11.891l0,0h1.045V2.449h0.068
	l3.148,3.146h-0.066v16.955H20.631z"/>
</svg>
