<?xml version="1.0" encoding="utf-8"?>
<!-- Generator: Adobe Illustrator 16.0.0, SVG Export Plug-In . SVG Version: 6.00 Build 0)  -->
<!DOCTYPE svg PUBLIC "-//W3C//DTD SVG 1.1//EN" "http://www.w3.org/Graphics/SVG/1.1/DTD/svg11.dtd">
<svg version="1.1" id="Layer_1" xmlns="http://www.w3.org/2000/svg" xmlns:xlink="http://www.w3.org/1999/xlink" x="0px" y="0px"
	 width="20px" height="80px" viewBox="0 0 20 80" enable-background="new 0 0 20 80" xml:space="preserve">
<g>
	<g>
		<polygon fill="#F2F2F2" points="5319.555,2570.153 5309.555,2570.153 5304.566,2565.148 5319.555,2560.153 		"/>
		<g>
			<polygon fill="#E0E0E0" points="5319.555,2570.153 5314.566,2565.148 5306.885,2527.899 5314.535,2493.164 5319.555,2498.153 			
				"/>
		</g>
		<g>
			<rect x="5304.551" y="2493.148" fill="#FAFAFA" width="10" height="72"/>
		</g>
	</g>
	<g>
		<g>
			<path fill="#E0E0E0" d="M5314.492,2509.508c0-1.323-0.523-2.518-1.363-3.411l0.018-0.018l-2.311-2.312l-0.797,0.796
				c-0.182-0.02-0.359-0.055-0.547-0.055c-1.381,0-2.631,0.56-3.535,1.465l7.07,7.07
				C5313.932,2512.138,5314.492,2510.888,5314.492,2509.508z"/>
			<path fill="#F2F2F2" d="M5304.492,2509.508c0,0.188,0.035,0.365,0.055,0.547l-0.793,0.793l2.311,2.312l0.016-0.015
				c0.895,0.839,2.088,1.362,3.412,1.362c1.381,0,2.631-0.56,3.535-1.465l-7.07-7.07
				C5305.051,2506.877,5304.492,2508.127,5304.492,2509.508z"/>
		</g>
		<circle fill="#FAFAFA" cx="5307.49" cy="2507.506" r="5"/>
	</g>
	<g>
		<g>
			<path fill="#E0E0E0" d="M5314.492,2549.378c0-1.323-0.523-2.518-1.363-3.411l0.018-0.018l-2.311-2.312l-0.797,0.796
				c-0.182-0.02-0.359-0.055-0.547-0.055c-1.381,0-2.631,0.56-3.535,1.465l7.07,7.07
				C5313.932,2552.008,5314.492,2550.758,5314.492,2549.378z"/>
			<path fill="#F2F2F2" d="M5304.492,2549.378c0,0.188,0.035,0.365,0.055,0.547l-0.793,0.793l2.311,2.312l0.016-0.015
				c0.895,0.839,2.088,1.362,3.412,1.362c1.381,0,2.631-0.56,3.535-1.465l-7.07-7.07
				C5305.051,2546.747,5304.492,2547.997,5304.492,2549.378z"/>
		</g>
		<circle fill="#FAFAFA" cx="5307.49" cy="2547.376" r="5"/>
	</g>
	<g>
		<g>
			<path fill="#E0E0E0" d="M5314.492,2529.443c0-1.324-0.523-2.518-1.363-3.412l0.018-0.018l-2.311-2.312l-0.797,0.797
				c-0.182-0.02-0.359-0.055-0.547-0.055c-1.381,0-2.631,0.559-3.535,1.465l7.07,7.07
				C5313.932,2532.072,5314.492,2530.822,5314.492,2529.443z"/>
			<path fill="#F2F2F2" d="M5304.492,2529.443c0,0.188,0.035,0.365,0.055,0.547l-0.793,0.793l2.311,2.312l0.016-0.016
				c0.895,0.84,2.088,1.363,3.412,1.363c1.381,0,2.631-0.561,3.535-1.465l-7.07-7.07
				C5305.051,2526.812,5304.492,2528.062,5304.492,2529.443z"/>
		</g>
		<circle fill="#FAFAFA" cx="5307.49" cy="2527.441" r="5"/>
	</g>
</g>
<g>
	<g>
		<polygon fill="#F2F2F2" points="18.064,78.005 8.064,78.005 3.076,73 18.064,68.005 		"/>
		<g>
			<polygon fill="#E0E0E0" points="18.064,78.005 13.076,73 5.395,35.751 13.045,1.016 18.064,6.005 			"/>
		</g>
		<g>
			<rect x="3.061" y="1" fill="#FAFAFA" width="10" height="72"/>
		</g>
	</g>
	<g>
		<g>
			<path fill="#E0E0E0" d="M13.002,17.359c0-1.323-0.523-2.518-1.363-3.411l0.018-0.018l-2.311-2.312l-0.797,0.796
				c-0.182-0.02-0.359-0.055-0.547-0.055c-1.381,0-2.631,0.56-3.535,1.465l7.07,7.07C12.441,19.989,13.002,18.739,13.002,17.359z"/>
			<path fill="#F2F2F2" d="M3.002,17.359c0,0.188,0.035,0.365,0.055,0.547l-0.793,0.793l2.311,2.312l0.016-0.015
				c0.895,0.839,2.088,1.362,3.412,1.362c1.381,0,2.631-0.56,3.535-1.465l-7.07-7.07C3.561,14.729,3.002,15.979,3.002,17.359z"/>
		</g>
		<circle fill="#FAFAFA" cx="6" cy="15.357" r="5"/>
	</g>
	<g>
		<g>
			<path fill="#E0E0E0" d="M13.002,57.229c0-1.323-0.523-2.518-1.363-3.411l0.018-0.018l-2.311-2.312l-0.797,0.796
				c-0.182-0.02-0.359-0.055-0.547-0.055c-1.381,0-2.631,0.56-3.535,1.465l7.07,7.07C12.441,59.859,13.002,58.609,13.002,57.229z"/>
			<path fill="#F2F2F2" d="M3.002,57.229c0,0.188,0.035,0.365,0.055,0.547l-0.793,0.793l2.311,2.312l0.016-0.015
				c0.895,0.839,2.088,1.362,3.412,1.362c1.381,0,2.631-0.56,3.535-1.465l-7.07-7.07C3.561,54.599,3.002,55.849,3.002,57.229z"/>
		</g>
		<circle fill="#FAFAFA" cx="6" cy="55.228" r="5"/>
	</g>
	<g>
		<g>
			<path fill="#E0E0E0" d="M13.002,37.295c0-1.324-0.523-2.518-1.363-3.412l0.018-0.018l-2.311-2.312L8.549,32.35
				c-0.182-0.02-0.359-0.055-0.547-0.055c-1.381,0-2.631,0.559-3.535,1.465l7.07,7.07C12.441,39.924,13.002,38.674,13.002,37.295z"
				/>
			<path fill="#F2F2F2" d="M3.002,37.295c0,0.188,0.035,0.365,0.055,0.547l-0.793,0.793l2.311,2.312l0.016-0.016
				c0.895,0.84,2.088,1.363,3.412,1.363c1.381,0,2.631-0.561,3.535-1.465l-7.07-7.07C3.561,34.664,3.002,35.914,3.002,37.295z"/>
		</g>
		<circle fill="#FAFAFA" cx="6" cy="35.293" r="5"/>
	</g>
</g>
</svg>
