<?xml version="1.0" encoding="utf-8"?>
<!-- Generator: Adobe Illustrator 16.0.0, SVG Export Plug-In . SVG Version: 6.00 Build 0)  -->
<!DOCTYPE svg PUBLIC "-//W3C//DTD SVG 1.1//EN" "http://www.w3.org/Graphics/SVG/1.1/DTD/svg11.dtd">
<svg version="1.1" id="Layer_1" xmlns="http://www.w3.org/2000/svg" xmlns:xlink="http://www.w3.org/1999/xlink" x="0px" y="0px"
	 width="53px" height="27px" viewBox="0 0 53 27" enable-background="new 0 0 53 27" xml:space="preserve">
<g>
	<circle fill="#B3B3B3" cx="25" cy="16.998" r="2"/>
	<circle fill="#B3B3B3" cx="49" cy="22.998" r="2"/>
	<circle fill="#B3B3B3" cx="43" cy="22.998" r="2"/>
	<circle fill="#B3B3B3" cx="49" cy="16.998" r="2"/>
	<circle fill="#B3B3B3" cx="43" cy="16.998" r="2"/>
	<circle fill="#B3B3B3" cx="49" cy="10.998" r="2"/>
	<circle fill="#B3B3B3" cx="43" cy="10.998" r="2"/>
	<circle fill="#B3B3B3" cx="49" cy="4.998" r="2"/>
	<circle fill="#B3B3B3" cx="43" cy="4.998" r="2"/>
	<circle fill="#B3B3B3" cx="37" cy="22.998" r="2"/>
	<circle fill="#B3B3B3" cx="31" cy="22.998" r="2"/>
	<circle fill="#B3B3B3" cx="37" cy="16.998" r="2"/>
	<circle fill="#B3B3B3" cx="31" cy="16.998" r="2"/>
	<circle fill="#B3B3B3" cx="8" cy="4.998" r="2"/>
	<circle fill="#B3B3B3" cx="14" cy="4.998" r="2"/>
	<g>
		<polyline fill="#FAFAFA" points="39,0 0,0 1,1 6,2 9,3 12,4 15,6 16,8 25,14 29,16 38,16 		"/>
		<path fill="#E0E0E0" d="M38,15.428c-0.981,0.129-1.975,0.203-2.979,0.203c-5.566,0-11.656-2.463-15.611-6.152
			c-0.256-0.271-2.244-2.211-2.244-2.211C12.621,2.576,6.552,0,0.021,0C0.014,0,0.008,0.001,0,0.001v2C0.008,2.001,0.014,2,0.021,2
			c5.965,0,11.541,2.363,15.697,6.655l2.318,2.282c4.623,4.316,10.656,6.693,16.984,6.693c1.688,0,3.354-0.176,4.979-0.506V17
			v-1.917V0h-2V15.428z"/>
	</g>
	<circle fill="#B3B3B3" cx="2" cy="4.998" r="2"/>
</g>
</svg>
