<?xml version="1.0" encoding="utf-8"?>
<!-- Generator: Adobe Illustrator 16.0.0, SVG Export Plug-In . SVG Version: 6.00 Build 0)  -->
<!DOCTYPE svg PUBLIC "-//W3C//DTD SVG 1.1//EN" "http://www.w3.org/Graphics/SVG/1.1/DTD/svg11.dtd">
<svg version="1.1" id="Layer_1" xmlns="http://www.w3.org/2000/svg" xmlns:xlink="http://www.w3.org/1999/xlink" x="0px" y="0px"
	 width="58px" height="26px" viewBox="0 0 58 26" enable-background="new 0 0 58 26" xml:space="preserve">
<g>
	<circle fill="#B3B3B3" cx="23.971" cy="22.998" r="2"/>
	<circle fill="#B3B3B3" cx="23.971" cy="16.998" r="2"/>
	<circle fill="#B3B3B3" cx="29.971" cy="22.998" r="2"/>
	<circle fill="#B3B3B3" cx="29.971" cy="16.998" r="2"/>
	<circle fill="#B3B3B3" cx="35.971" cy="22.998" r="2"/>
	<circle fill="#B3B3B3" cx="35.971" cy="16.998" r="2"/>
	<circle fill="#B3B3B3" cx="41.971" cy="16.998" r="2"/>
	<circle fill="#B3B3B3" cx="41.971" cy="10.998" r="2"/>
	<circle fill="#B3B3B3" cx="47.971" cy="10.998" r="2"/>
	<circle fill="#B3B3B3" cx="47.971" cy="4.998" r="2"/>
	<circle fill="#B3B3B3" cx="53.971" cy="10.998" r="2"/>
	<circle fill="#B3B3B3" cx="53.971" cy="4.998" r="2"/>
	<circle fill="#B3B3B3" cx="11.971" cy="16.998" r="2"/>
	<circle fill="#B3B3B3" cx="17.971" cy="22.998" r="2"/>
	<circle fill="#B3B3B3" cx="17.971" cy="16.998" r="2"/>
	<polyline fill="#FAFAFA" points="57.967,0.99 57.967,-0.009 1,0 2,2 2,4 5.357,8.99 10.311,12.959 19.217,16.412 27.982,15.928 
		39.779,10.412 42.67,5.787 49.076,2.787 	"/>
	<path fill="#E0E0E0" d="M22.967,15.621c-5.902,0-11.407-2.291-15.53-6.145C5.275,7.189,3.076,3.102,2,0H0l1.329,3.867
		c1.131,2.563,2.691,4.906,4.655,6.983l0.042,0.045l0.045,0.042c4.611,4.311,10.612,6.684,16.896,6.684V15.621z"/>
	<g>
		<path fill="#E0E0E0" d="M8.892,10.716c3.517,2.775,7.835,4.498,12.462,4.827C16.933,15.171,12.355,13.366,8.892,10.716z"/>
		<path fill="#E0E0E0" d="M57.967,1.99v-1.999C51.363,0,45.232,2.644,40.678,7.443l-0.271,0.176
			c-4.357,5.086-10.693,8.002-17.385,8.002c-0.042,0-0.083-0.003-0.125-0.003c0.023,0,0.046,0.003,0.07,0.003v1.997
			c0.019,0,0.036,0.003,0.055,0.003c7.047,0,13.73-2.973,18.449-8.178l0.668-0.627C46.316,4.414,51.949,1.99,58,1.99H57.967z"/>
		<path fill="#F806FF" d="M22.967,17.621v-0.003c-3.568-0.008-7.03-0.793-10.208-2.233C15.939,16.833,19.402,17.621,22.967,17.621z"
			/>
		<path fill="#E0E0E0" d="M22.896,15.618c-0.511-0.004-1.025-0.031-1.542-0.075c-4.627-0.329-8.946-2.052-12.462-4.827
			c-0.5-0.395-0.989-0.804-1.455-1.239C5.275,7.189,3.076,3.102,2,0H0l1.329,3.867c0.038,0.086,0.086,0.167,0.125,0.253
			c1.121,2.463,2.632,4.723,4.53,6.73l0.042,0.045l0.045,0.042c1.995,1.865,4.261,3.343,6.687,4.447
			c3.178,1.44,6.641,2.226,10.208,2.233v-1.997C22.943,15.621,22.92,15.618,22.896,15.618z"/>
	</g>
</g>
</svg>
