<?xml version="1.0" encoding="utf-8"?>
<!-- Generator: Adobe Illustrator 16.0.0, SVG Export Plug-In . SVG Version: 6.00 Build 0)  -->
<!DOCTYPE svg PUBLIC "-//W3C//DTD SVG 1.1//EN" "http://www.w3.org/Graphics/SVG/1.1/DTD/svg11.dtd">
<svg version="1.1" id="Layer_1" xmlns="http://www.w3.org/2000/svg" xmlns:xlink="http://www.w3.org/1999/xlink" x="0px" y="0px"
	 width="70px" height="27px" viewBox="0 0 70 27" enable-background="new 0 0 70 27" xml:space="preserve">
<g>
	<circle fill="#B3B3B3" cx="36.004" cy="23.008" r="2"/>
	<circle fill="#B3B3B3" cx="36.004" cy="17.008" r="2"/>
	<circle fill="#B3B3B3" cx="42.004" cy="23.008" r="2"/>
	<circle fill="#B3B3B3" cx="42.004" cy="17.008" r="2"/>
	<circle fill="#B3B3B3" cx="48.004" cy="23.008" r="2"/>
	<circle fill="#B3B3B3" cx="48.004" cy="17.008" r="2"/>
	<circle fill="#B3B3B3" cx="54.004" cy="17.008" r="2"/>
	<circle fill="#B3B3B3" cx="54.004" cy="11.008" r="2"/>
	<circle fill="#B3B3B3" cx="60.004" cy="11.008" r="2"/>
	<circle fill="#B3B3B3" cx="60.004" cy="5.008" r="2"/>
	<circle fill="#B3B3B3" cx="66.004" cy="11.008" r="2"/>
	<circle fill="#B3B3B3" cx="66.004" cy="5.008" r="2"/>
	<circle fill="#B3B3B3" cx="24.004" cy="17.008" r="2"/>
	<circle fill="#B3B3B3" cx="30.004" cy="23.008" r="2"/>
	<circle fill="#B3B3B3" cx="30.004" cy="17.008" r="2"/>
	<circle fill="#B3B3B3" cx="2.004" cy="5.008" r="2"/>
	<circle fill="#B3B3B3" cx="8.004" cy="5.008" r="2"/>
	<circle fill="#B3B3B3" cx="14.004" cy="5.008" r="2"/>
	<polyline fill="#FAFAFA" points="70,1 70,0.001 0,0.001 4,2 11,4 17.391,9 22.344,12.969 31.25,16.422 40.016,15.938 
		51.812,10.422 54.703,5.797 61.109,2.797 	"/>
	<path fill="#E0E0E0" d="M70,0.001C63.396,0.01,57.266,2.653,52.711,7.453l-0.271,0.176c-4.357,5.086-10.693,8.002-17.385,8.002
		c-5.566,0-11.656-2.463-15.611-6.152c-0.256-0.271-2.244-2.211-2.244-2.211C12.654,2.576,6.585,0,0.055,0
		C0.047,0,0.041,0.001,0.033,0.001H0V2c0.033,0,0.054,0,0.055,0C6.02,2,11.596,4.363,15.752,8.655l2.318,2.282
		c4.623,4.316,10.656,6.693,16.984,6.693c7.047,0,13.73-2.973,18.449-8.178l0.668-0.627C58.35,4.424,63.982,2,70.033,2H70V0.001z"/>
</g>
</svg>
