<?xml version="1.0" encoding="utf-8"?>
<!-- Generator: Adobe Illustrator 16.0.0, SVG Export Plug-In . SVG Version: 6.00 Build 0)  -->
<!DOCTYPE svg PUBLIC "-//W3C//DTD SVG 1.1//EN" "http://www.w3.org/Graphics/SVG/1.1/DTD/svg11.dtd">
<svg version="1.1" id="Layer_1" xmlns="http://www.w3.org/2000/svg" xmlns:xlink="http://www.w3.org/1999/xlink" x="0px" y="0px"
	 width="80px" height="80.001px" viewBox="0 0 80 80.001" enable-background="new 0 0 80 80.001" xml:space="preserve">
<g>
	<g>
		<path fill="#E0E0E0" d="M40.5,8.997c17.369,0,31.5,14.131,31.5,31.5s-14.131,31.5-31.5,31.5S9,57.866,9,40.497
			S23.13,8.997,40.5,8.997 M40.5,2.997C19.789,2.997,3,19.786,3,40.497s16.789,37.5,37.5,37.5S78,61.208,78,40.497
			S61.21,2.997,40.5,2.997L40.5,2.997z"/>
	</g>
	<g>
		<path fill="#FAFAFA" d="M39.5,7.997c17.369,0,31.5,14.131,31.5,31.5s-14.131,31.5-31.5,31.5S8,56.866,8,39.497
			S22.13,7.997,39.5,7.997 M39.5,1.997C18.789,1.997,2,18.786,2,39.497s16.789,37.5,37.5,37.5S77,60.208,77,39.497
			S60.21,1.997,39.5,1.997L39.5,1.997z"/>
	</g>
</g>
</svg>
