<?xml version="1.0" encoding="utf-8"?>
<!-- Generator: Adobe Illustrator 16.0.0, SVG Export Plug-In . SVG Version: 6.00 Build 0)  -->
<!DOCTYPE svg PUBLIC "-//W3C//DTD SVG 1.1//EN" "http://www.w3.org/Graphics/SVG/1.1/DTD/svg11.dtd">
<svg version="1.1" id="Layer_1" xmlns="http://www.w3.org/2000/svg" xmlns:xlink="http://www.w3.org/1999/xlink" x="0px" y="0px"
	 width="14px" height="14px" viewBox="0 0 14 14" enable-background="new 0 0 14 14" xml:space="preserve">
<path fill="#353535" d="M12.507,9.454L13,7.582l-1.353-0.584c0-0.01,0-0.02,0-0.028c0-0.357-0.044-0.706-0.117-1.04l1.197-1.04
	l-0.983-1.636L10.33,3.72c-0.261-0.267-0.551-0.503-0.867-0.703V1.562L7.666,1L7.007,2.308c0,0-0.002,0-0.003,0
	c-0.398,0-0.783,0.05-1.149,0.145l-0.884-1.09l-1.71,0.937L3.667,3.73C3.42,3.988,3.202,4.274,3.017,4.583L1.508,4.464L1,6.328
	l1.361,0.646c0,0.365,0.044,0.721,0.124,1.064L1.323,9.037l0.89,1.669l1.5-0.45c0.268,0.27,0.566,0.504,0.891,0.703l-0.062,1.504
	L6.318,13l0.657-1.369c0.01,0,0.019,0,0.029,0c0.36,0,0.708-0.044,1.047-0.121l0.994,1.149l1.761-0.955l-0.477-1.486
	c0.254-0.263,0.477-0.556,0.666-0.872L12.507,9.454z M4.345,6.969c0-1.48,1.191-2.677,2.66-2.677s2.658,1.197,2.658,2.677
	c0,1.477-1.189,2.677-2.658,2.677S4.345,8.446,4.345,6.969z"/>
</svg>
