<?xml version="1.0" encoding="utf-8"?>
<!-- Generator: Adobe Illustrator 16.0.0, SVG Export Plug-In . SVG Version: 6.00 Build 0)  -->
<!DOCTYPE svg PUBLIC "-//W3C//DTD SVG 1.1//EN" "http://www.w3.org/Graphics/SVG/1.1/DTD/svg11.dtd">
<svg version="1.1" id="Layer_1" xmlns="http://www.w3.org/2000/svg" xmlns:xlink="http://www.w3.org/1999/xlink" x="0px" y="0px"
	 width="12px" height="17px" viewBox="0 0 12 17" enable-background="new 0 0 12 17" xml:space="preserve">
<path fill="#00DDFF" d="M10.867,8.503l-4.44-7.228h-0.01C6.346,1.114,6.186,1,5.997,1C5.81,1,5.649,1.114,5.578,1.275h-0.01
	L1.096,8.548h0.007C1.043,8.63,1,8.724,1,8.833C1,9.102,1.22,9.32,1.489,9.32c0.048,0,0.092-0.014,0.135-0.026V9.32h1.871v6.113
	h0.016c-0.005,0.025-0.016,0.05-0.016,0.078c0,0.27,0.219,0.488,0.489,0.488h4.033c0.271,0,0.49-0.219,0.49-0.488
	c0-0.028-0.012-0.053-0.018-0.078h0.018V9.32h2.002c0.271,0,0.49-0.219,0.49-0.488C11,8.705,10.949,8.59,10.867,8.503z"/>
</svg>
