<?xml version="1.0" encoding="utf-8"?>
<!-- Generator: Adobe Illustrator 16.0.0, SVG Export Plug-In . SVG Version: 6.00 Build 0)  -->
<!DOCTYPE svg PUBLIC "-//W3C//DTD SVG 1.1//EN" "http://www.w3.org/Graphics/SVG/1.1/DTD/svg11.dtd">
<svg version="1.1" xmlns="http://www.w3.org/2000/svg" xmlns:xlink="http://www.w3.org/1999/xlink" x="0px" y="0px" width="17px"
	 height="18px" viewBox="0 -0.5 17 18" enable-background="new 0 -0.5 17 18" xml:space="preserve">
<g id="Layer_3_1_" display="none">
	<path display="inline" opacity="0.2" fill="#00DDFF" d="M16,2.5v-1h-1v-1h-1v-1H0v18h17v-15H16z M8,1.5v2h2v-2h1v3H5v-3H8z M2,1.5
		h2v4h8v-4h1v1h1v1h1v12h-2v-5h-1v5H5v-5h7v-1H4v6H2V1.5z"/>
</g>
<g id="Layer_4" display="none">
	<path display="inline" opacity="0.05" fill="#00DDFF" d="M17,1.5v-1h-1v-1h-1v-1H-1v20h19v-17H17z M17,17.5H0v-18h14v1h1v1h1v1h1
		V17.5z"/>
	<polygon display="inline" opacity="0.05" fill="#00DDFF" points="14,3.5 14,2.5 13,2.5 13,1.5 12,1.5 12,5.5 4,5.5 4,1.5 2,1.5 
		2,15.5 4,15.5 4,9.5 12,9.5 12,10.5 13,10.5 13,15.5 15,15.5 15,3.5 	"/>
	<polygon display="inline" opacity="0.05" fill="#00DDFF" points="10,1.5 10,3.5 8,3.5 8,1.5 5,1.5 5,4.5 11,4.5 11,1.5 	"/>
	<rect x="5" y="10.5" display="inline" opacity="0.05" fill="#00DDFF" width="8" height="5"/>
	<g id="Layer_5" display="inline">
	</g>
</g>
<g id="Layer_6" display="none">
	<g display="inline">
		<g id="Layer_1_1_">
			<g>
				<polyline fill="#FF0096" points="13,15.5 13,5.5 14,5.5 14,1.5 10,1.5 10,0.5 6,0.5 6,1.5 2,1.5 2,4.5 3,4.5 3,2.5 13,2.5 
					13,4.5 12.984,4.5 3,4.5 3,14.5 4,14.5 4,5.5 12,5.5 12,13.5 11,13.5 11,14.5 4,14.5 4,15.5 				"/>
				<rect x="5" y="7.5" fill="#FF0096" width="1" height="5"/>
				<rect x="7" y="7.5" fill="#FF0096" width="1" height="5"/>
				<rect x="9" y="7.5" fill="#FF0096" width="1" height="5"/>
			</g>
		</g>
		<g id="Layer_3">
			<rect x="3" y="2.5" opacity="0.11" fill="#FF0096" enable-background="new    " width="10" height="2"/>
			<rect x="4" y="5.5" opacity="0.11" fill="#FF0096" enable-background="new    " width="8" height="2"/>
			<rect x="4" y="12.5" opacity="0.11" fill="#FF0096" enable-background="new    " width="7" height="2"/>
			<rect x="11" y="7.5" opacity="0.11" fill="#FF0096" enable-background="new    " width="1" height="6"/>
			<rect x="10" y="7.5" opacity="0.11" fill="#FF0096" enable-background="new    " width="1" height="5"/>
			<rect x="8" y="7.5" opacity="0.11" fill="#FF0096" enable-background="new    " width="1" height="5"/>
			<rect x="4" y="7.5" opacity="0.11" fill="#FF0096" enable-background="new    " width="1" height="5"/>
			<rect x="6" y="7.5" opacity="0.11" fill="#FF0096" enable-background="new    " width="1" height="5"/>
		</g>
		<g id="Layer_2">
			<rect x="1" y="0.5" opacity="0.15" fill="#FF0096" enable-background="new    " width="5" height="1"/>
			<rect x="5" y="-0.5" opacity="0.15" fill="#FF0096" enable-background="new    " width="6" height="1"/>
			<rect x="10" y="0.5" opacity="0.15" fill="#FF0096" enable-background="new    " width="5" height="1"/>
			<rect x="1" y="1.5" opacity="0.15" fill="#FF0096" enable-background="new    " width="1" height="4"/>
			<rect x="2" y="4.5" opacity="0.15" fill="#FF0096" enable-background="new    " width="1" height="11"/>
			<rect x="3" y="14.5" opacity="0.15" fill="#FF0096" enable-background="new    " width="1" height="2"/>
			<rect x="4" y="15.5" opacity="0.15" fill="#FF0096" enable-background="new    " width="10" height="1"/>
			<rect x="13" y="5.5" opacity="0.15" fill="#FF0096" enable-background="new    " width="1" height="10"/>
			<rect x="14" y="1.5" opacity="0.15" fill="#FF0096" enable-background="new    " width="1" height="5"/>
		</g>
	</g>
</g>
<g id="Layer_7">
	<g>
		<path fill="#00DDFF" d="M14,3.5v11h-2v-5H5v5H3v-12h2v4h6v-1H6v-3h2v1h1v1h1v-2h1v3h1v-3h1v-1H2v14h13v-12H14z M6,14.5v-4h5v4H6z"
			/>
		<rect x="13" y="2.5" fill="#00DDFF" width="1" height="1"/>
	</g>
</g>
<g id="Layer_8">
	<g opacity="0.13">
		<path fill="#00DDFF" d="M15,2.5v-1h-1v-1H1v16h15v-14H15z M15,15.5H2v-14h11v1h1v1h1V15.5z"/>
		<polygon fill="#00DDFF" points="11,2.5 10,2.5 10,4.5 9,4.5 9,3.5 8,3.5 8,2.5 6,2.5 6,5.5 11,5.5 		"/>
	</g>
	<rect x="6" y="10.5" opacity="0.17" fill="#00DDFF" width="5" height="4"/>
	<polygon opacity="0.1" fill="#00DDFF" points="12,5.5 11,5.5 11,6.5 5,6.5 5,2.5 3,2.5 3,14.5 5,14.5 5,9.5 12,9.5 12,14.5 
		14,14.5 14,3.5 13,3.5 13,2.5 12,2.5 	"/>
</g>
</svg>
