<?xml version="1.0" encoding="utf-8"?>
<!-- Generator: Adobe Illustrator 16.0.0, SVG Export Plug-In . SVG Version: 6.00 Build 0)  -->
<!DOCTYPE svg PUBLIC "-//W3C//DTD SVG 1.1//EN" "http://www.w3.org/Graphics/SVG/1.1/DTD/svg11.dtd">
<svg version="1.1" id="Layer_1" xmlns="http://www.w3.org/2000/svg" xmlns:xlink="http://www.w3.org/1999/xlink" x="0px" y="0px"
	 width="219px" height="14px" viewBox="0 0 219 14" enable-background="new 0 0 219 14" xml:space="preserve">
<g>
	<path fill="#E0E0E0" d="M215.855,12c-2.734,0-5.338-1.031-7.334-2.905l-0.092-0.092c-0.115-0.121-0.719-0.713-0.721-0.714
		C206.295,6.793,204.463,6,202.494,6s-3.801,0.793-5.16,2.233c-0.055,0.056-0.666,0.657-0.787,0.781l-0.08,0.081
		c-1.996,1.873-4.602,2.904-7.332,2.904c-2.732,0-5.338-1.031-7.334-2.904l-0.092-0.093c-0.117-0.121-0.721-0.713-0.723-0.714
		C179.574,6.793,177.742,6,175.773,6s-3.801,0.793-5.162,2.234c-0.055,0.056-0.666,0.655-0.787,0.78l-0.08,0.08
		c-1.996,1.874-4.6,2.905-7.332,2.905c-2.73,0-5.334-1.031-7.332-2.904l-0.086-0.086c-0.115-0.119-0.727-0.721-0.729-0.722
		C152.854,6.793,151.02,6,149.051,6s-3.801,0.793-5.16,2.234c-0.055,0.056-0.658,0.647-0.781,0.775l-0.086,0.086
		c-1.996,1.873-4.6,2.904-7.332,2.904s-5.336-1.031-7.332-2.904l-0.086-0.086c-0.115-0.119-0.73-0.723-0.73-0.723
		C126.133,6.793,124.299,6,122.33,6c-1.967,0-3.801,0.793-5.162,2.234c-0.055,0.056-0.658,0.647-0.781,0.775l-0.086,0.086
		c-1.996,1.873-4.6,2.904-7.332,2.904c-2.731,0-5.335-1.031-7.331-2.904l-0.086-0.086c-0.116-0.12-0.728-0.72-0.729-0.721
		C99.41,6.793,97.577,6,95.609,6s-3.801,0.793-5.161,2.234c-0.054,0.055-0.667,0.656-0.786,0.78l-0.082,0.081
		C87.583,10.968,84.979,12,82.248,12c-2.73,0-5.334-1.031-7.332-2.904l-0.093-0.093c-0.116-0.121-0.721-0.716-0.721-0.716
		C72.69,6.793,70.856,6,68.887,6c-1.968,0-3.801,0.793-5.161,2.234c-0.054,0.055-0.658,0.647-0.781,0.775L62.86,9.095
		C60.864,10.968,58.259,12,55.527,12c-2.733,0-5.337-1.031-7.333-2.905l-0.092-0.092c-0.116-0.121-0.72-0.713-0.721-0.714
		C45.968,6.793,44.135,6,42.167,6c-1.969,0-3.802,0.793-5.161,2.233c-0.054,0.056-0.667,0.657-0.786,0.781l-0.081,0.081
		C34.142,10.968,31.538,12,28.806,12c-2.732,0-5.337-1.031-7.333-2.904L21.38,9.002c-0.116-0.121-0.72-0.713-0.721-0.714
		C19.246,6.793,17.414,6,15.446,6c-1.968,0-3.802,0.793-5.162,2.234c-0.055,0.056-0.667,0.655-0.787,0.78l-0.081,0.08
		C7.42,10.968,4.817,12,2.084,12V8c1.7,0,3.32-0.638,4.568-1.797c0.205-0.207,0.776-0.769,0.776-0.769C9.5,3.239,12.366,2,15.446,2
		c3.079,0,5.943,1.238,8.066,3.485c0.002,0.001,0.523,0.514,0.725,0.718C25.485,7.362,27.106,8,28.806,8
		c1.699,0,3.32-0.638,4.569-1.797c0.204-0.207,0.774-0.768,0.774-0.768C36.219,3.239,39.084,2,42.167,2
		c3.079,0,5.944,1.238,8.067,3.485c0.003,0.002,0.523,0.514,0.725,0.718C52.206,7.362,53.827,8,55.527,8s3.321-0.638,4.569-1.796
		c0.21-0.213,0.774-0.769,0.774-0.769C62.941,3.239,65.807,2,68.887,2c3.08,0,5.945,1.238,8.069,3.485
		c0.001,0,0.522,0.514,0.723,0.718C78.929,7.362,80.55,8,82.248,8c1.699,0,3.32-0.638,4.57-1.797
		c0.205-0.207,0.774-0.768,0.774-0.768C89.662,3.239,92.528,2,95.609,2c3.08,0,5.944,1.238,8.067,3.485
		c0.002,0,0.53,0.52,0.726,0.718C105.65,7.362,107.271,8,108.969,8c1.699,0,3.32-0.638,4.568-1.797
		c0.213-0.214,0.775-0.769,0.775-0.769C116.385,3.239,119.25,2,122.33,2s5.945,1.238,8.068,3.485l0,0
		c0.002,0,0.529,0.521,0.725,0.718C132.371,7.362,133.992,8,135.691,8s3.32-0.638,4.568-1.797c0.211-0.214,0.775-0.769,0.775-0.769
		C143.105,3.239,145.971,2,149.051,2s5.943,1.238,8.068,3.485c0.002,0,0.529,0.52,0.725,0.718C159.094,7.362,160.715,8,162.412,8
		c1.699,0,3.32-0.638,4.568-1.797c0.205-0.207,0.777-0.769,0.777-0.769C169.828,3.239,172.693,2,175.773,2s5.943,1.238,8.066,3.485
		c0.002,0.001,0.523,0.514,0.725,0.718C185.812,7.362,187.436,8,189.135,8s3.32-0.638,4.568-1.797
		c0.205-0.207,0.773-0.768,0.773-0.768C196.547,3.239,199.412,2,202.494,2c3.08,0,5.945,1.238,8.066,3.485
		c0.004,0.002,0.525,0.514,0.727,0.718C212.533,7.362,214.154,8,215.855,8V12z"/>
</g>
</svg>
