<?xml version="1.0" encoding="utf-8"?>
<!-- Generator: Adobe Illustrator 16.0.0, SVG Export Plug-In . SVG Version: 6.00 Build 0)  -->
<!DOCTYPE svg PUBLIC "-//W3C//DTD SVG 1.1//EN" "http://www.w3.org/Graphics/SVG/1.1/DTD/svg11.dtd">
<svg version="1.1" id="Layer_1" xmlns="http://www.w3.org/2000/svg" xmlns:xlink="http://www.w3.org/1999/xlink" x="0px" y="0px"
	 width="80px" height="80px" viewBox="0 0 80 80" enable-background="new 0 0 80 80" xml:space="preserve">
<g>
	<g>
		<path fill="#E0E0E0" d="M40.498,8.999c17.369,0,31.5,14.131,31.5,31.5s-14.131,31.5-31.5,31.5s-31.5-14.131-31.5-31.5
			S23.128,8.999,40.498,8.999 M40.498,2.999c-20.711,0-37.5,16.789-37.5,37.5s16.789,37.5,37.5,37.5s37.5-16.789,37.5-37.5
			S61.208,2.999,40.498,2.999L40.498,2.999z"/>
	</g>
	<g>
		<path fill="#FAFAFA" d="M39.498,7.999c17.369,0,31.5,14.131,31.5,31.5s-14.131,31.5-31.5,31.5s-31.5-14.131-31.5-31.5
			S22.128,7.999,39.498,7.999 M39.498,1.999c-20.711,0-37.5,16.789-37.5,37.5s16.789,37.5,37.5,37.5s37.5-16.789,37.5-37.5
			S60.208,1.999,39.498,1.999L39.498,1.999z"/>
	</g>
</g>
</svg>
