<?xml version="1.0" encoding="utf-8"?>
<!-- Generator: Adobe Illustrator 16.0.0, SVG Export Plug-In . SVG Version: 6.00 Build 0)  -->
<!DOCTYPE svg PUBLIC "-//W3C//DTD SVG 1.1//EN" "http://www.w3.org/Graphics/SVG/1.1/DTD/svg11.dtd">
<svg version="1.1" xmlns="http://www.w3.org/2000/svg" xmlns:xlink="http://www.w3.org/1999/xlink" x="0px" y="0px" width="14px"
	 height="17px" viewBox="-0.5 0 14 17" enable-background="new -0.5 0 14 17" xml:space="preserve">
<g id="Layer_1">
	<g>
		<polyline fill="#FF0096" points="11.5,16 11.5,6 12.5,6 12.5,2 8.5,2 8.5,1 4.5,1 4.5,2 0.5,2 0.5,5 1.5,5 1.5,3 11.5,3 11.5,5 
			11.484,5 1.5,5 1.5,15 2.5,15 2.5,6 10.5,6 10.5,14 9.5,14 9.5,15 2.5,15 2.5,16 		"/>
		<rect x="3.5" y="8" fill="#FF0096" width="1" height="5"/>
		<rect x="5.5" y="8" fill="#FF0096" width="1" height="5"/>
		<rect x="7.5" y="8" fill="#FF0096" width="1" height="5"/>
	</g>
</g>
<g id="Layer_3">
	<rect x="1.5" y="3" opacity="0.11" fill="#FF0096" width="10" height="2"/>
	<rect x="2.5" y="6" opacity="0.11" fill="#FF0096" width="8" height="2"/>
	<rect x="2.5" y="13" opacity="0.11" fill="#FF0096" width="7" height="2"/>
	<rect x="9.5" y="8" opacity="0.11" fill="#FF0096" width="1" height="6"/>
	<rect x="8.5" y="8" opacity="0.11" fill="#FF0096" width="1" height="5"/>
	<rect x="6.5" y="8" opacity="0.11" fill="#FF0096" width="1" height="5"/>
	<rect x="2.5" y="8" opacity="0.11" fill="#FF0096" width="1" height="5"/>
	<rect x="4.5" y="8" opacity="0.11" fill="#FF0096" width="1" height="5"/>
</g>
<g id="Layer_2">
	<rect x="-0.5" y="1" opacity="0.15" fill="#FF0096" width="5" height="1"/>
	<rect x="3.5" opacity="0.15" fill="#FF0096" width="6" height="1"/>
	<rect x="8.5" y="1" opacity="0.15" fill="#FF0096" width="5" height="1"/>
	<rect x="-0.5" y="2" opacity="0.15" fill="#FF0096" width="1" height="4"/>
	<rect x="0.5" y="5" opacity="0.15" fill="#FF0096" width="1" height="11"/>
	<rect x="1.5" y="15" opacity="0.15" fill="#FF0096" width="1" height="2"/>
	<rect x="2.5" y="16" opacity="0.15" fill="#FF0096" width="10" height="1"/>
	<rect x="11.5" y="6" opacity="0.15" fill="#FF0096" width="1" height="10"/>
	<rect x="12.5" y="2" opacity="0.15" fill="#FF0096" width="1" height="5"/>
</g>
</svg>
