<?xml version="1.0" encoding="utf-8"?>
<!-- Generator: Adobe Illustrator 16.0.0, SVG Export Plug-In . SVG Version: 6.00 Build 0)  -->
<!DOCTYPE svg PUBLIC "-//W3C//DTD SVG 1.1//EN" "http://www.w3.org/Graphics/SVG/1.1/DTD/svg11.dtd">
<svg version="1.1" id="Layer_1" xmlns="http://www.w3.org/2000/svg" xmlns:xlink="http://www.w3.org/1999/xlink" x="0px" y="0px"
	 width="26.137px" height="26.287px" viewBox="0 0 26.137 26.287" enable-background="new 0 0 26.137 26.287" xml:space="preserve">
<g>
	<g>
		<path d="M9.649,20.578c0,2.039-1.654,3.693-3.695,3.693c-2.042,0-3.695-1.654-3.695-3.693c0-2.043,1.653-3.696,3.695-3.696
			C7.995,16.882,9.649,18.535,9.649,20.578z"/>
	</g>
	<g>
		<path d="M14.431,24.132c-1.104,0-2-0.896-2-2c0-4.581-3.727-8.309-8.308-8.309c-1.104,0-2-0.898-2-2.002s0.896-2,2-2
			c6.787,0,12.308,5.525,12.308,12.311C16.431,23.236,15.535,24.132,14.431,24.132z"/>
	</g>
	<g>
		<path d="M21.983,24.132c-1.104,0-2-0.896-2-2c0-8.748-7.115-15.864-15.86-15.864c-1.104,0-2-0.896-2-2s0.896-2,2-2
			c10.951,0,19.86,8.909,19.86,19.864C23.983,23.236,23.088,24.132,21.983,24.132z"/>
	</g>
</g>
</svg>
