<?xml version="1.0" encoding="utf-8"?>
<!-- Generator: Adobe Illustrator 16.0.0, SVG Export Plug-In . SVG Version: 6.00 Build 0)  -->
<!DOCTYPE svg PUBLIC "-//W3C//DTD SVG 1.1//EN" "http://www.w3.org/Graphics/SVG/1.1/DTD/svg11.dtd">
<svg version="1.1" id="Layer_1" xmlns="http://www.w3.org/2000/svg" xmlns:xlink="http://www.w3.org/1999/xlink" x="0px" y="0px"
	 width="8px" height="8px" viewBox="0 0 8 8" enable-background="new 0 0 8 8" xml:space="preserve">
<g opacity="0.3">
	<rect width="1" height="0.99"/>
	<rect x="1" y="1" width="1" height="1"/>
	<rect x="2" y="2" width="1" height="1"/>
	<rect x="3" y="3" width="1" height="1"/>
	<rect x="4" y="4" width="1" height="1"/>
	<rect x="5" y="5" width="1" height="1"/>
	<rect x="6" y="6" width="1" height="1"/>
	<rect x="7" y="7" width="1" height="1"/>
</g>
<g opacity="0.1">
	<rect x="7" width="1" height="1"/>
	<rect y="7" width="1" height="1"/>
	<rect x="1" width="1" height="0.99"/>
	<polygon points="3,2 3,1 2,1 2,1.999 1,1.999 1,2.999 2,2.999 2,2 	"/>
	<polygon points="4,3 4,2 3,2 3,2.999 2,2.999 2,3.999 3,3.999 3,3 	"/>
	<polygon points="5,4 5,3 4,3 4,3.999 3,3.999 3,4.999 4,4.999 4,4 	"/>
	<polygon points="6,5 6,4 5,4 5,4.999 4,4.999 4,6 5,6 5,5 	"/>
	<polygon points="6,5 6,6 5,6 5,7 6,7 6,6 7,6 7,5 	"/>
	<rect y="1" width="1" height="0.99"/>
	<rect x="6" y="7" width="1" height="1"/>
	<rect x="7" y="6" width="1" height="1"/>
</g>
</svg>
