<?xml version="1.0" encoding="utf-8"?>
<!-- Generator: Adobe Illustrator 16.0.0, SVG Export Plug-In . SVG Version: 6.00 Build 0)  -->
<!DOCTYPE svg PUBLIC "-//W3C//DTD SVG 1.1//EN" "http://www.w3.org/Graphics/SVG/1.1/DTD/svg11.dtd">
<svg version="1.1" id="Layer_1" xmlns="http://www.w3.org/2000/svg" xmlns:xlink="http://www.w3.org/1999/xlink" x="0px" y="0px"
	 width="13px" height="50px" viewBox="0 0 13 50" enable-background="new 0 0 13 50" xml:space="preserve">
<g>
	<path fill="#FFFFFF" d="M3.94,45.283V48H1.73v-7.969h2.21v2.73h6.891v2.521H3.94z"/>
	<path fill="#FFFFFF" d="M7.347,40.08H7.321c-2.002,0-3.68-1.639-3.68-3.888s1.651-3.874,3.653-3.874h0.026
		c2.002,0,3.679,1.638,3.679,3.9C11,38.455,9.349,40.08,7.347,40.08z M7.347,34.711H7.321c-0.871,0-1.6,0.637-1.6,1.508
		c0,0.896,0.715,1.469,1.573,1.469h0.026c0.857,0,1.586-0.624,1.586-1.495C8.907,35.296,8.192,34.711,7.347,34.711z"/>
	<path fill="#FFFFFF" d="M9.479,28.224l-1.678-1.404c0.715-0.909,1.092-1.897,1.092-2.95c0-0.689-0.233-1.054-0.624-1.054H8.244
		c-0.391,0-0.585,0.299-0.884,1.547c-0.442,1.938-0.988,3.433-2.848,3.433H4.487c-1.69,0-2.912-1.339-2.912-3.523
		c0-1.547,0.416-2.756,1.209-3.744l1.78,1.262c-0.598,0.832-0.896,1.741-0.896,2.548c0,0.61,0.247,0.91,0.585,0.91h0.025
		c0.416,0,0.599-0.312,0.885-1.587c0.455-2.08,1.131-3.38,2.834-3.38h0.025c1.859,0,2.965,1.47,2.965,3.68
		C10.987,25.571,10.48,27.093,9.479,28.224z"/>
	<path fill="#FFFFFF" d="M1.341,19.095v-2.562h1.82v2.562H1.341z M3.798,19.043v-2.458h7.033v2.458H3.798z"/>
	<path fill="#FFFFFF" d="M8.647,14.713H5.773v0.832H3.798v-0.832H2.017v-2.457h1.781v-1.638h1.976v1.638h2.393
		c0.494,0,0.702-0.221,0.702-0.676c0-0.325-0.091-0.637-0.234-0.936h1.924c0.247,0.441,0.416,1.026,0.416,1.716
		C10.974,13.842,10.324,14.713,8.647,14.713z"/>
	<path fill="#FFFFFF" d="M7.347,9.786H7.321c-2.055,0-3.68-1.47-3.68-3.55C3.642,3.818,5.423,2.7,7.49,2.7
		c0.155,0,0.338,0,0.507,0.014V7.42c0.767-0.195,1.157-0.754,1.157-1.521c0-0.598-0.222-1.053-0.716-1.56L9.57,2.974
		C10.428,3.649,11,4.625,11,6.016C11,8.226,9.518,9.786,7.347,9.786z M6.736,5.002c-0.78,0.091-1.274,0.559-1.274,1.234
		c0,0.65,0.494,1.093,1.274,1.223V5.002z"/>
</g>
</svg>
