<?xml version="1.0" encoding="utf-8"?>
<!-- Generator: Adobe Illustrator 16.0.0, SVG Export Plug-In . SVG Version: 6.00 Build 0)  -->
<!DOCTYPE svg PUBLIC "-//W3C//DTD SVG 1.1//EN" "http://www.w3.org/Graphics/SVG/1.1/DTD/svg11.dtd">
<svg version="1.1" id="Layer_1" xmlns="http://www.w3.org/2000/svg" xmlns:xlink="http://www.w3.org/1999/xlink" x="0px" y="0px"
	 width="18px" height="78px" viewBox="0 0 18 78" enable-background="new 0 0 18 78" xml:space="preserve">
<g>
	<polygon fill="#FFFFFF" points="5.601,60.852 15.144,60.852 15.144,57.359 5.601,57.359 5.601,53.579 2.541,53.579 2.541,64.615 
		5.601,64.615 	"/>
	<path fill="#FFFFFF" d="M10.283,42.932h-0.036c-2.773,0-5.06,2.252-5.06,5.366s2.323,5.384,5.096,5.384h0.036
		c2.772,0,5.059-2.251,5.059-5.348C15.377,45.202,13.055,42.932,10.283,42.932z M10.283,50.37h-0.036
		c-1.188,0-2.179-0.793-2.179-2.035c0-1.207,1.008-2.089,2.215-2.089h0.036c1.17,0,2.16,0.811,2.16,2.053
		C12.479,49.504,11.471,50.37,10.283,50.37z"/>
	<path fill="#FFFFFF" d="M6.357,36.672h0.036c2.575,0,3.332-2.07,3.943-4.753c0.414-1.729,0.685-2.143,1.225-2.143h0.036
		c0.54,0,0.864,0.504,0.864,1.458c0,1.458-0.522,2.827-1.513,4.087l2.323,1.944c1.386-1.566,2.088-3.673,2.088-5.906
		c0-3.061-1.53-5.095-4.105-5.095h-0.035c-2.359,0-3.295,1.8-3.926,4.681c-0.396,1.765-0.648,2.197-1.224,2.197H6.033
		c-0.468,0-0.81-0.414-0.81-1.261c0-1.116,0.414-2.376,1.242-3.529l-2.467-1.747C2.9,27.976,2.324,29.65,2.324,31.793
		C2.324,34.818,4.017,36.672,6.357,36.672z"/>
	<rect x="2" y="21.103" fill="#FFFFFF" width="2.521" height="3.547"/>
	<rect x="5.403" y="21.175" fill="#FFFFFF" width="9.741" height="3.403"/>
	<path fill="#FFFFFF" d="M5.403,19.762H8.14v-1.152h3.979c2.322,0,3.223-1.207,3.223-3.259c0-0.954-0.234-1.764-0.576-2.376h-2.665
		c0.198,0.414,0.324,0.846,0.324,1.296c0,0.63-0.288,0.936-0.972,0.936H8.14v-2.269H5.403v2.269H2.937v3.403h2.467V19.762z"/>
	<path fill="#FFFFFF" d="M10.283,11.813h0.036c3.007,0,5.059-2.161,5.059-5.222c0-1.927-0.791-3.277-1.98-4.213l-1.566,1.891
		c0.685,0.702,0.99,1.333,0.99,2.161c0,1.062-0.539,1.836-1.602,2.107V2.018C10.985,2,10.733,2,10.516,2
		C7.654,2,5.187,3.548,5.187,6.897C5.187,9.778,7.438,11.813,10.283,11.813z M9.472,5.187V8.59c-1.08-0.18-1.764-0.792-1.764-1.692
		C7.708,5.961,8.392,5.313,9.472,5.187z"/>
	<polygon fill="#FFFFFF" points="12.002,70 4,70 4,74 12,74 12,76 16,72 12.002,68 	"/>
</g>
</svg>
