<?xml version="1.0" encoding="utf-8"?>
<!-- Generator: Adobe Illustrator 16.0.0, SVG Export Plug-In . SVG Version: 6.00 Build 0)  -->
<!DOCTYPE svg PUBLIC "-//W3C//DTD SVG 1.1//EN" "http://www.w3.org/Graphics/SVG/1.1/DTD/svg11.dtd">
<svg version="1.1" xmlns="http://www.w3.org/2000/svg" xmlns:xlink="http://www.w3.org/1999/xlink" x="0px" y="0px" width="47px"
	 height="39px" viewBox="0 0 47 39" enable-background="new 0 0 47 39" xml:space="preserve">
<g id="Layer_2">
	<rect x="0" y="0" fill="#FAFAFA" width="47" height="39"/>
</g>
<g id="Layer_1">
	<g>
		<path d="M10.324,36.174l-3.531-3.531l-0.814,0.814l-0.77-0.77l0.814-0.814l-1.766-1.766l0.871-0.871l1.766,1.766l1.857-1.855
			l0.77,0.77l-1.857,1.855l3.418,3.418c0.713,0.713,1.371,0.578,1.959-0.012c0.295-0.293,0.486-0.6,0.645-1.053l0.748,0.748
			c-0.147,0.463-0.385,0.883-0.805,1.301C12.689,37.113,11.513,37.363,10.324,36.174z"/>
		<path d="M12.71,31.094l-0.022-0.023c-1.652-1.652-1.766-4.346,0-6.111c1.755-1.754,4.425-1.662,6.077-0.01l0.023,0.021
			c1.652,1.652,1.754,4.357-0.012,6.123C17.023,32.848,14.363,32.746,12.71,31.094z M17.917,25.887l-0.023-0.021
			c-1.256-1.256-3.225-1.348-4.459-0.113c-1.268,1.268-1.109,3.17,0.125,4.402l0.021,0.023c1.257,1.256,3.203,1.346,4.438,0.113
			C19.287,29.021,19.151,27.121,17.917,25.887z"/>
		<path d="M25.427,21.07l-3.531-3.531l-0.814,0.815l-0.77-0.77l0.814-0.815l-1.766-1.766l0.872-0.872l1.766,1.766l1.856-1.856
			l0.769,0.77l-1.856,1.856l3.417,3.418c0.713,0.713,1.37,0.576,1.958-0.012c0.295-0.294,0.486-0.599,0.645-1.052l0.748,0.748
			c-0.147,0.462-0.385,0.882-0.805,1.3C27.793,22.01,26.616,22.26,25.427,21.07z"/>
		<path d="M27.813,15.991l-0.023-0.023c-1.652-1.652-1.765-4.346,0.001-6.112c1.755-1.754,4.425-1.664,6.077-0.011l0.023,0.022
			c1.652,1.653,1.754,4.358-0.012,6.123C32.126,17.746,29.466,17.644,27.813,15.991z M33.021,10.785l-0.023-0.023
			c-1.256-1.256-3.226-1.347-4.459-0.113c-1.268,1.268-1.109,3.169,0.125,4.403l0.021,0.022c1.257,1.256,3.203,1.347,4.438,0.113
			C34.39,13.919,34.253,12.018,33.021,10.785z"/>
		<path d="M32.53,5.366l0.871-0.872l1.178,1.177c-0.227-1.176-0.136-2.467,0.939-3.542c1.403-1.403,3.904-1.687,5.828,0.238
			l0.023,0.022c1.912,1.913,1.664,4.426,0.249,5.84c-1.087,1.087-2.376,1.2-3.486,0.996l2.932,2.932l-0.872,0.872L32.53,5.366z
			 M40.487,3.294l-0.022-0.022c-1.382-1.381-3.215-1.313-4.324-0.204c-1.087,1.086-1.199,3.033,0.136,4.369L36.3,7.459
			c1.357,1.358,3.293,1.234,4.38,0.148C41.812,6.476,41.901,4.709,40.487,3.294z"/>
	</g>
</g>
</svg>
