<?xml version="1.0" encoding="utf-8"?>
<!-- Generator: Adobe Illustrator 16.0.0, SVG Export Plug-In . SVG Version: 6.00 Build 0)  -->
<!DOCTYPE svg PUBLIC "-//W3C//DTD SVG 1.1//EN" "http://www.w3.org/Graphics/SVG/1.1/DTD/svg11.dtd">
<svg version="1.1" id="Layer_1" xmlns="http://www.w3.org/2000/svg" xmlns:xlink="http://www.w3.org/1999/xlink" x="0px" y="0px"
	 width="40px" height="32px" viewBox="0 0 40 32" enable-background="new 0 0 40 32" xml:space="preserve">
<rect fill="#FAFAFA" width="40" height="32"/>
<g>
	<path d="M9.295,29.576l-2.868-2.867l-0.662,0.662L5.14,26.746l0.662-0.662L4.367,24.65l0.708-0.709l1.435,1.436l1.508-1.508
		l0.625,0.625l-1.508,1.508l2.775,2.775c0.58,0.58,1.113,0.469,1.591-0.01c0.239-0.238,0.396-0.486,0.524-0.854l0.606,0.605
		c-0.119,0.377-0.312,0.717-0.653,1.059C11.217,30.34,10.26,30.543,9.295,29.576z"/>
	<path d="M11.234,25.449l-0.019-0.018c-1.342-1.342-1.435-3.529,0.001-4.965c1.424-1.424,3.594-1.352,4.936-0.008l0.019,0.018
		c1.343,1.342,1.425,3.539-0.009,4.973C14.736,26.875,12.576,26.791,11.234,25.449z M15.463,21.221l-0.019-0.018
		c-1.021-1.021-2.62-1.094-3.622-0.092c-1.029,1.029-0.9,2.574,0.102,3.576l0.018,0.018c1.021,1.021,2.602,1.094,3.604,0.092
		C16.575,23.768,16.465,22.223,15.463,21.221z"/>
	<path d="M21.566,17.305l-2.868-2.868l-0.662,0.662l-0.625-0.625l0.662-0.662l-1.435-1.434l0.708-0.708l1.435,1.434l1.508-1.508
		l0.625,0.625l-1.508,1.508l2.775,2.776c0.58,0.581,1.113,0.469,1.591-0.009c0.239-0.239,0.396-0.487,0.524-0.855l0.606,0.607
		c-0.119,0.377-0.312,0.717-0.653,1.058C23.488,18.068,22.531,18.271,21.566,17.305z"/>
	<path d="M23.506,13.178l-0.019-0.019c-1.342-1.342-1.435-3.53,0.001-4.964c1.424-1.424,3.594-1.351,4.936-0.009l0.019,0.018
		c1.343,1.342,1.425,3.54-0.009,4.974C27.008,14.604,24.848,14.52,23.506,13.178z M27.734,8.95l-0.019-0.019
		c-1.021-1.021-2.62-1.094-3.622-0.092c-1.029,1.03-0.9,2.574,0.102,3.577l0.018,0.018c1.021,1.021,2.602,1.094,3.604,0.091
		C28.847,11.496,28.736,9.952,27.734,8.95z"/>
	<path d="M27.339,4.546l0.708-0.708l0.956,0.956c-0.185-0.956-0.11-2.004,0.763-2.877c1.141-1.14,3.172-1.37,4.734,0.193
		l0.019,0.018c1.554,1.554,1.352,3.595,0.202,4.744c-0.883,0.883-1.931,0.974-2.831,0.809l2.381,2.381l-0.708,0.708L27.339,4.546z
		 M33.802,2.864l-0.019-0.019c-1.121-1.121-2.611-1.066-3.512-0.165c-0.883,0.882-0.975,2.464,0.11,3.549L30.4,6.247
		c1.104,1.104,2.676,1.002,3.558,0.12C34.877,5.448,34.951,4.013,33.802,2.864z"/>
</g>
</svg>
