<?xml version="1.0" encoding="utf-8"?>
<!-- Generator: Adobe Illustrator 16.0.0, SVG Export Plug-In . SVG Version: 6.00 Build 0)  -->
<!DOCTYPE svg PUBLIC "-//W3C//DTD SVG 1.1//EN" "http://www.w3.org/Graphics/SVG/1.1/DTD/svg11.dtd">
<svg version="1.1" id="Layer_1" xmlns="http://www.w3.org/2000/svg" xmlns:xlink="http://www.w3.org/1999/xlink" x="0px" y="0px"
	 width="26px" height="26px" viewBox="0 0 26 26" enable-background="new 0 0 26 26" xml:space="preserve">
<path fill="#FFFFFF" d="M20.75,9.207l-3.944-3.943L13.05,9.122L9.268,5.266L5.25,9.284l3.88,3.754l-3.854,3.752l3.399,3.4
	l0.546,0.544l3.753-3.855l3.754,3.855l3.475-3.475l0.547-0.545l-3.855-3.755L20.75,9.207z M16.738,19.476l-3.764-3.864l-3.762,3.864
	l-2.676-2.675l3.864-3.764L6.513,9.274l2.75-2.75l3.788,3.864l3.764-3.863l2.675,2.675l-3.862,3.763l3.862,3.763L16.738,19.476z"/>
</svg>
