<?xml version="1.0" encoding="utf-8"?>
<!-- Generator: Adobe Illustrator 16.0.0, SVG Export Plug-In . SVG Version: 6.00 Build 0)  -->
<!DOCTYPE svg PUBLIC "-//W3C//DTD SVG 1.1//EN" "http://www.w3.org/Graphics/SVG/1.1/DTD/svg11.dtd">
<svg version="1.1" id="Layer_1" xmlns="http://www.w3.org/2000/svg" xmlns:xlink="http://www.w3.org/1999/xlink" x="0px" y="0px"
	 width="26px" height="26px" viewBox="0 0 26 26" enable-background="new 0 0 26 26" xml:space="preserve">
<path fill="#FFFFFF" d="M23.333,7.942l-5.259-5.257l-5.008,5.144L8.024,2.688L2.667,8.046l5.174,5.006l-5.139,5.003l4.532,4.534
	l0.728,0.726l5.005-5.141l5.006,5.141l4.632-4.633l0.729-0.727l-5.141-5.007L23.333,7.942z M17.985,21.635l-5.019-5.152L7.95,21.635
	l-3.568-3.567l5.152-5.019L4.35,8.032l3.667-3.667l5.051,5.152l5.018-5.151l3.566,3.566l-5.15,5.017l5.151,5.018L17.985,21.635z"/>
</svg>
