<?xml version="1.0" encoding="utf-8"?>
<!-- Generator: Adobe Illustrator 16.0.0, SVG Export Plug-In . SVG Version: 6.00 Build 0)  -->
<!DOCTYPE svg PUBLIC "-//W3C//DTD SVG 1.1//EN" "http://www.w3.org/Graphics/SVG/1.1/DTD/svg11.dtd">
<svg version="1.1" id="Layer_1" xmlns="http://www.w3.org/2000/svg" xmlns:xlink="http://www.w3.org/1999/xlink" x="0px" y="0px"
	 width="500px" height="17px" viewBox="0 0 500 17" enable-background="new 0 0 500 17" xml:space="preserve">
<g>
	<path fill="#FAFAFA" d="M30.909,2.056c-0.11-0.017-0.223-0.023-0.333-0.038c0.112,0.014,0.222,0.035,0.333,0.051V2.056z"/>
	<path fill="#FAFAFA" d="M29.883,1.938c-0.499-0.046-0.999-0.077-1.5-0.077c-0.598,0-1.19,0.03-1.776,0.09
		c0.583-0.06,1.173-0.09,1.768-0.09C28.883,1.861,29.384,1.895,29.883,1.938z"/>
	<path fill="#FAFAFA" d="M2.292,13.584c0.001,0,0.002,0,0.003,0c-0.774,0-1.538-0.066-2.296-0.166v0.648L2.292,13.584z"/>
	<path fill="#FAFAFA" d="M15.731,7.451l0.163-0.12c2.863-3.086,6.617-4.959,10.713-5.379c-4.1,0.419-7.856,2.292-10.721,5.38
		l-0.163,0.12c-3.389,3.899-8.272,6.132-13.428,6.133c0.001,0,0.003,0,0.004,0C7.456,13.584,12.341,11.351,15.731,7.451z"/>
	<path fill="#FAFAFA" d="M29.883,1.938c0.232,0.021,0.462,0.049,0.692,0.08C30.345,1.988,30.115,1.958,29.883,1.938z"/>
	<path fill="#FAFAFA" d="M498.224,1.861c-4.781,0-9.217,1.942-12.487,5.47l-0.164,0.12c-3.39,3.9-8.273,6.133-13.43,6.133
		c-5.155,0-10.042-2.233-13.431-6.133h-0.075l-0.11-0.12c-3.272-3.527-7.708-5.47-12.489-5.47s-9.217,1.942-12.488,5.47l-0.111,0.12
		h-0.072c-3.392,3.9-8.275,6.133-13.432,6.133c-5.155,0-10.04-2.233-13.433-6.133h-0.088l-0.109-0.12
		c-3.273-3.527-7.709-5.47-12.49-5.47c-4.78,0-9.216,1.942-12.489,5.47l-0.162,0.12c-3.39,3.899-8.272,6.133-13.428,6.133h-0.001
		h-0.001c-5.156,0-10.041-2.234-13.43-6.133h-0.088l-0.111-0.12c-3.272-3.527-7.708-5.47-12.487-5.47
		c-4.781,0-9.217,1.942-12.49,5.47l-0.163,0.12c-3.391,3.9-8.274,6.133-13.43,6.133c-5.156,0-10.041-2.233-13.432-6.133h-0.074
		l-0.111-0.12c-3.271-3.527-7.707-5.47-12.488-5.47s-9.217,1.942-12.489,5.47l-0.11,0.12h-0.073c-3.39,3.9-8.274,6.133-13.431,6.133
		s-10.041-2.233-13.433-6.133h-0.088l-0.11-0.12c-3.272-3.527-7.708-5.47-12.489-5.47s-9.217,1.942-12.488,5.47l-0.163,0.12
		c-3.391,3.9-8.274,6.133-13.431,6.133c-5.155,0-10.041-2.233-13.432-6.133h-0.079l-0.111-0.12c-3.272-3.527-7.708-5.47-12.489-5.47
		s-9.217,1.942-12.488,5.47l-0.111,0.12h-0.072c-3.392,3.9-8.275,6.133-13.432,6.133c-5.155,0-10.04-2.233-13.433-6.133h-0.087
		l-0.11-0.12c-3.273-3.527-7.709-5.47-12.49-5.47c-4.78,0-9.216,1.942-12.489,5.47l-0.163,0.12c-3.39,3.9-8.275,6.133-13.431,6.133
		c-5.156,0-10.041-2.233-13.431-6.133h-0.075l-0.109-0.12c-3.273-3.527-7.709-5.47-12.49-5.47s-9.216,1.942-12.489,5.47L68,7.451
		h-0.073c-3.391,3.9-8.275,6.133-13.43,6.133c-5.156,0-10.041-2.233-13.434-6.133h-0.088l-0.111-0.12
		c-2.685-2.894-6.157-4.699-9.956-5.262V17H500V1.97C499.41,1.906,498.818,1.861,498.224,1.861z"/>
	<path fill="#FAFAFA" d="M30.575,2.018c-0.23-0.03-0.46-0.058-0.692-0.08c-0.499-0.043-1-0.077-1.508-0.077
		c-0.595,0-1.185,0.03-1.768,0.09c-4.097,0.42-7.85,2.293-10.713,5.379l-0.163,0.12c-3.39,3.9-8.275,6.133-13.431,6.133
		c-0.001,0-0.002,0-0.004,0c-0.001,0-0.002,0-0.003,0L0,14.066V17h30.909V2.069C30.797,2.053,30.687,2.032,30.575,2.018z"/>
</g>
</svg>
