<?xml version="1.0" encoding="utf-8"?>
<!-- Generator: Adobe Illustrator 16.0.0, SVG Export Plug-In . SVG Version: 6.00 Build 0)  -->
<!DOCTYPE svg PUBLIC "-//W3C//DTD SVG 1.1//EN" "http://www.w3.org/Graphics/SVG/1.1/DTD/svg11.dtd">
<svg version="1.1" xmlns="http://www.w3.org/2000/svg" xmlns:xlink="http://www.w3.org/1999/xlink" x="0px" y="0px" width="850px"
	 height="22px" viewBox="0 0 850 22" enable-background="new 0 0 850 22" xml:space="preserve">
<g id="Layer_1">
	<g>
		<path fill="#E0E0E0" d="M705.621,0v3.715c1.254-0.212,2.534-0.326,3.836-0.326c5.862,0,11.333,2.196,15.567,6.206l2.032,1.986
			c4.483,4.741,10.692,7.44,17.232,7.44c6.875,0,13.408-2.979,17.927-8.181l0.205-0.16c3.576-3.854,8.208-6.286,13.272-7.039V0
			H705.621z"/>
	</g>
	<g>
		<path fill="#E0E0E0" d="M635.938,0v3.715c1.254-0.212,2.534-0.326,3.836-0.326c5.862,0,11.333,2.196,15.567,6.206l2.032,1.986
			c4.483,4.741,10.692,7.44,17.232,7.44c6.875,0,13.408-2.979,17.927-8.181l0.205-0.16c4.363-4.702,10.297-7.292,16.672-7.292
			c0.802,0,1.593,0.055,2.376,0.141V0H635.938z"/>
	</g>
	<g>
		<path fill="#E0E0E0" d="M566.406,0v3.715c1.254-0.212,2.534-0.326,3.836-0.326c5.862,0,11.333,2.196,15.567,6.206l2.032,1.986
			c4.483,4.741,10.692,7.44,17.232,7.44c6.875,0,13.408-2.979,17.927-8.181l0.205-0.16c3.576-3.854,8.208-6.286,13.272-7.039V0
			H566.406z"/>
	</g>
	<g>
		<path fill="#E0E0E0" d="M496.764,0v3.715c1.254-0.212,2.534-0.326,3.836-0.326c5.862,0,11.333,2.196,15.567,6.206l2.032,1.986
			c4.483,4.741,10.692,7.44,17.232,7.44c6.875,0,13.408-2.979,17.927-8.181l0.205-0.16c4.363-4.702,10.297-7.292,16.672-7.292
			c0.802,0,1.593,0.055,2.376,0.141V0H496.764z"/>
	</g>
	<g>
		<path fill="#E0E0E0" d="M427.232,0v3.715c1.254-0.212,2.534-0.326,3.836-0.326c5.862,0,11.333,2.196,15.567,6.206l2.032,1.986
			c4.483,4.741,10.692,7.44,17.232,7.44c6.875,0,13.408-2.979,17.927-8.181l0.205-0.16c3.576-3.854,8.208-6.286,13.272-7.039V0
			H427.232z"/>
	</g>
	<g>
		<path fill="#E0E0E0" d="M357.512,0v3.715c1.254-0.212,2.534-0.326,3.836-0.326c5.862,0,11.333,2.196,15.567,6.206l2.032,1.986
			c4.483,4.741,10.692,7.44,17.232,7.44c6.875,0,13.408-2.979,17.927-8.181l0.205-0.16c4.366-4.702,10.329-7.292,16.708-7.292
			c0.802,0,1.593,0.055,2.376,0.141V0H357.512z"/>
	</g>
	<g>
		<path fill="#E0E0E0" d="M287.981,0v3.715c1.254-0.212,2.534-0.326,3.836-0.326c5.862,0,11.333,2.196,15.567,6.206l2.032,1.986
			c4.483,4.741,10.692,7.44,17.232,7.44c6.875,0,13.408-2.979,17.927-8.181l0.205-0.16c3.576-3.854,8.208-6.286,13.272-7.039V0
			H287.981z"/>
	</g>
	<g>
		<path fill="#E0E0E0" d="M218.322,0v3.715c1.254-0.212,2.534-0.326,3.836-0.326c5.862,0,11.333,2.196,15.567,6.206l2.032,1.986
			c4.483,4.741,10.692,7.44,17.232,7.44c6.875,0,13.408-2.979,17.927-8.181l0.205-0.16c4.363-4.702,10.297-7.292,16.672-7.292
			c0.802,0,1.593,0.055,2.376,0.141V0H218.322z"/>
	</g>
	<g>
		<path fill="#E0E0E0" d="M79.071,0v3.715c1.254-0.212,2.534-0.326,3.836-0.326c5.862,0,11.333,2.196,15.567,6.206l2.032,1.986
			c4.483,4.741,10.692,7.44,17.232,7.44c6.875,0,13.408-2.979,17.927-8.181l0.205-0.16c4.366-4.702,10.329-7.292,16.708-7.292
			c0.802,0,1.593,0.055,2.376,0.141V0H79.071z"/>
	</g>
	<g>
		<path fill="#E0E0E0" d="M9.54,0v3.715c1.254-0.212,2.534-0.326,3.836-0.326c5.862,0,11.333,2.196,15.567,6.206l2.032,1.986
			c4.483,4.741,10.692,7.44,17.232,7.44c6.875,0,13.408-2.979,17.927-8.181l0.205-0.16c3.576-3.854,8.208-6.286,13.272-7.039V0H9.54
			z"/>
	</g>
	<g>
		<path fill="#E0E0E0" d="M149.025,0v3.715c1.254-0.212,2.534-0.326,3.836-0.326c5.862,0,11.333,2.196,15.567,6.206l2.032,1.986
			c4.483,4.741,10.692,7.44,17.232,7.44c6.875,0,13.408-2.979,17.927-8.181l0.205-0.16c3.576-3.854,8.208-6.286,13.272-7.039V0
			H149.025z"/>
	</g>
	<g>
		<path fill="#E0E0E0" d="M847.631,1.389c-6.582,0-12.695,2.645-17.235,7.453h-0.094l-0.149,0.176
			c-4.334,5.088-10.64,8.004-17.298,8.004c-5.806,0-11.341-2.219-15.538-6.159c-0.259-0.274-0.514-0.556-0.76-0.845l-0.149-0.176
			h-0.108c-0.252-0.269-0.502-0.542-0.742-0.824l-0.15-0.176h-0.123c-4.541-4.809-10.652-7.453-17.236-7.453
			c-0.977,0-1.941,0.065-2.895,0.18v2.146c1.254-0.212,2.534-0.326,3.836-0.326c5.862,0,11.333,2.196,15.567,6.206l2.032,1.986
			c4.483,4.741,10.692,7.44,17.232,7.44c6.875,0,13.408-2.979,17.927-8.181l0.205-0.16c4.363-4.702,10.297-7.292,16.672-7.292
			c0.462,0,0.92,0.022,1.376,0.054V1.526C849.214,1.444,848.423,1.389,847.631,1.389z"/>
		<path fill="#FAFAFA" d="M165.764,0v2.78l0.117-0.04c1.075,3.102,2.792,5.847,4.953,8.136c4.123,3.854,9.629,6.146,15.53,6.146
			c6.658,0,12.964-2.916,17.298-8.004l0.15-0.176h0.092c4.541-4.809,10.654-7.453,17.236-7.453c6.5,0,12.538,2.576,17.061,7.268
			l0.48,0.375c0.219,0.256,0.445,0.502,0.674,0.746l0.328,0.255c0.243,0.286,0.496,0.563,0.752,0.836
			c4.199,3.938,9.732,6.153,15.535,6.153c6.658,0,12.963-2.916,17.299-8.004l0.148-0.176h0.122
			c4.54-4.809,10.653-7.453,17.236-7.453s12.696,2.645,17.235,7.453h0.124l0.149,0.176c0.242,0.282,0.49,0.556,0.744,0.824h0.107
			l0.15,0.176c0.246,0.289,0.501,0.571,0.76,0.847c4.197,3.938,9.732,6.157,15.537,6.157c6.658,0,12.963-2.916,17.299-8.004
			l0.148-0.176h0.094c4.541-4.809,10.652-7.453,17.236-7.453c6.52,0,12.578,2.595,17.105,7.314l0.44,0.334
			c0.226,0.264,0.458,0.518,0.694,0.77l0.307,0.232c0.242,0.283,0.492,0.558,0.746,0.828c4.199,3.938,9.732,6.154,15.536,6.154
			c6.658,0,12.964-2.916,17.298-8.004l0.15-0.176h0.121c4.541-4.809,10.652-7.453,17.236-7.453s12.695,2.645,17.236,7.453h0.133
			l0.15,0.176c0.24,0.282,0.49,0.556,0.742,0.824h0.109l0.148,0.176c0.247,0.289,0.502,0.571,0.762,0.847
			c4.196,3.938,9.731,6.157,15.536,6.157c6.658,0,12.964-2.916,17.298-8.004l0.149-0.176h0.094
			c4.54-4.809,10.653-7.453,17.235-7.453c6.521,0,12.58,2.595,17.105,7.314l0.438,0.33c0.226,0.264,0.46,0.519,0.695,0.771
			l0.305,0.229c0.244,0.284,0.495,0.561,0.75,0.832c4.199,3.938,9.733,6.155,15.537,6.155c6.658,0,12.963-2.916,17.299-8.004
			l0.148-0.176h0.122c4.54-4.809,10.653-7.453,17.236-7.453s12.695,2.645,17.236,7.453h0.124l0.15,0.176
			c0.24,0.282,0.49,0.556,0.742,0.824h0.107l0.15,0.176c0.247,0.29,0.502,0.571,0.762,0.847c4.196,3.939,9.73,6.157,15.535,6.157
			c6.658,0,12.963-2.916,17.299-8.004l0.148-0.176h0.094c4.541-4.809,10.652-7.453,17.236-7.453c6.52,0,12.578,2.595,17.105,7.314
			l0.432,0.324c0,0,0.008,0.009,0.011,0.013l0.923,0.862l-0.108-0.006l0.177,0.133c0.002,0.004,0.006,0.008,0.01,0.012l0.924,0.862
			l-0.143-0.006c4.193,3.917,9.709,6.124,15.496,6.124c6.658,0,12.962-2.917,17.297-8.004l0.148-0.176h0.094
			c4.541-4.809,10.652-7.453,17.236-7.453c6.498,0,12.537,2.576,17.06,7.268l0.481,0.375c0.218,0.256,0.443,0.501,0.672,0.745
			l0.328,0.257c0.244,0.285,0.496,0.562,0.751,0.833c4.198,3.938,9.733,6.155,15.537,6.155c6.657,0,12.962-2.916,17.298-8.004
			l0.15-0.176h0.121c3.867-4.095,8.875-6.613,14.342-7.273V0H165.764z"/>
		<path fill="#FAFAFA" d="M795.283,8.842h0.123l0.15,0.176c0.24,0.282,0.49,0.556,0.742,0.824h0.108l0.149,0.176
			c0.246,0.289,0.501,0.57,0.76,0.845c4.197,3.94,9.732,6.159,15.538,6.159c6.658,0,12.964-2.916,17.298-8.004l0.149-0.176h0.094
			c4.54-4.809,10.653-7.453,17.235-7.453c0.792,0,1.583,0.055,2.369,0.138V0h-74.848v1.569c0.953-0.115,1.918-0.18,2.895-0.18
			C784.631,1.389,790.742,4.033,795.283,8.842z"/>
	</g>
	<g>
		<path fill="#E0E0E0" d="M0,7.475c2.858-2.001,6.107-3.318,9.569-3.833V1.558C6.145,1.957,2.9,3.086,0,4.876V7.475z"/>
		<path fill="#FAFAFA" d="M224.062,0H9.569v1.558c0.923-0.108,1.858-0.169,2.804-0.169c6.52,0,12.578,2.595,17.105,7.314
			l0.432,0.324c0,0,0.008,0.009,0.011,0.013l0.923,0.863l-0.108-0.006l0.177,0.133c0.002,0.004,0.006,0.008,0.01,0.012l0.924,0.861
			l-0.143-0.006c4.193,3.916,9.709,6.123,15.496,6.123c6.658,0,12.962-2.918,17.297-8.002l0.148-0.176h0.094
			c4.541-4.809,10.652-7.453,17.236-7.453c6.498,0,12.537,2.576,17.06,7.268l0.481,0.375c0.218,0.256,0.443,0.5,0.672,0.745
			l0.328,0.258c0.244,0.285,0.496,0.561,0.751,0.832c4.198,3.937,9.733,6.154,15.537,6.154c6.657,0,12.962-2.916,17.298-8.002
			l0.15-0.176h0.121c4.541-4.809,10.652-7.453,17.236-7.453s12.695,2.645,17.236,7.453h0.123l0.15,0.176
			c0.24,0.282,0.49,0.555,0.742,0.825h0.108l0.149,0.176c0.246,0.289,0.501,0.568,0.76,0.844c4.197,3.939,9.732,6.158,15.538,6.158
			c6.658,0,12.964-2.916,17.298-8.002l0.149-0.176h0.094c4.54-4.809,10.653-7.453,17.235-7.453c0.947,0,1.895,0.066,2.832,0.182
			C224.204,1.592,224.062,0,224.062,0z"/>
		<path fill="#FAFAFA" d="M0,0v4.876c2.9-1.79,6.145-2.919,9.569-3.318V0H0z"/>
	</g>
</g>
<g id="Layer_2">
</g>
</svg>
