<?xml version="1.0" encoding="utf-8"?>
<!-- Generator: Adobe Illustrator 16.0.0, SVG Export Plug-In . SVG Version: 6.00 Build 0)  -->
<!DOCTYPE svg PUBLIC "-//W3C//DTD SVG 1.1//EN" "http://www.w3.org/Graphics/SVG/1.1/DTD/svg11.dtd">
<svg version="1.1" id="Layer_1" xmlns="http://www.w3.org/2000/svg" xmlns:xlink="http://www.w3.org/1999/xlink" x="0px" y="0px"
	 width="500px" height="17px" viewBox="0 0 500 17" enable-background="new 0 0 500 17" xml:space="preserve">
<g>
	<path fill="none" d="M485.294,6.631h0.003c3.404-3.605,7.988-5.589,12.925-5.589h-0.001C493.284,1.042,488.699,3.024,485.294,6.631
		z"/>
	<path fill="none" d="M485.112,6.763c-3.25,3.816-7.98,6.002-12.975,6.002c0.001,0,0.001,0,0.001,0
		c4.993,0,9.725-2.188,12.976-6.002l0.109-0.132h-0.002L485.112,6.763z"/>
	<path fill="none" d="M444.269,1.139L444.269,1.139c0.583-0.058,1.173-0.097,1.768-0.097h-0.001
		C445.438,1.042,444.852,1.081,444.269,1.139z"/>
	<path fill="#EDD9E6" d="M443.865,1.176c0.134-0.016,0.27-0.024,0.401-0.037l0,0c-0.135,0.014-0.271,0.021-0.404,0.038V0h-0.006
		v1.173C439.756,1.668,436,3.557,433.1,6.628h-0.091l-0.11,0.132c-3.254,3.816-7.98,6.002-12.975,6.002
		c-4.354,0-8.505-1.662-11.651-4.615c-0.191-0.204-0.382-0.412-0.563-0.625l-0.246-0.192c-0.172-0.183-0.34-0.367-0.504-0.559
		l-0.36-0.281c-2.794-2.898-6.363-4.699-10.259-5.251v1.396c3.73,0.377,7.179,1.957,9.93,4.562l1.523,1.489
		c3.362,3.556,8.021,5.58,12.924,5.58c5.156,0,10.059-2.232,13.445-6.136l0.154-0.12c2.666-2.874,6.114-4.691,9.89-5.267
		c-0.112,0.017-0.227,0.024-0.339,0.043L443.865,1.176L443.865,1.176z"/>
	<path fill="#E0E0E0" d="M394.291,2.555c0.098-0.002,0.193-0.013,0.292-0.013c-0.009,0-0.019-0.001-0.027-0.001
		C394.467,2.541,394.38,2.553,394.291,2.555z"/>
	<path fill="#E0E0E0" d="M394.583,2.542c0.018,0,0.035,0.001,0.053,0.001c-0.015,0-0.027-0.002-0.044-0.002
		C394.589,2.542,394.586,2.542,394.583,2.542z"/>
	<path fill="#E0E0E0" d="M396.338,2.646V2.634c-0.189-0.02-0.385-0.025-0.577-0.038C395.953,2.612,396.146,2.625,396.338,2.646z"/>
	<path fill="#EDD9E6" d="M391.715,1.169c-4.133,0.479-7.921,2.367-10.841,5.459h-0.07l-0.109,0.132
		c-3.251,3.816-7.979,6.002-12.975,6.002c-4.34,0-8.477-1.654-11.622-4.592l0.108,0.004l-0.693-0.646
		c-0.004-0.003-0.007-0.006-0.008-0.009l-0.133-0.1l0.081,0.004l-0.691-0.646c-0.003-0.003-0.009-0.01-0.009-0.01l-0.324-0.243
		c-3.396-3.54-7.938-5.486-12.829-5.486c-0.587,0-1.168,0.032-1.741,0.088V2.73c-0.021,0.003-0.042,0.009-0.062,0.012
		c0.832-0.125,1.676-0.201,2.536-0.201c4.396,0,8.5,1.647,11.675,4.655l1.524,1.489c3.359,3.556,8.019,5.581,12.924,5.581
		c5.156,0,10.056-2.233,13.445-6.137l0.151-0.12c2.699-2.908,6.205-4.718,10.031-5.271c-0.122,0.018-0.247,0.026-0.368,0.047V1.169
		L391.715,1.169z"/>
	<path fill="#EDD9E6" d="M393.802,1.038c-0.704,0-1.397,0.051-2.087,0.131v1.617c0.121-0.021,0.246-0.029,0.368-0.047
		c0.312-0.045,0.624-0.092,0.94-0.12c0.419-0.039,0.843-0.057,1.268-0.064c0.089-0.001,0.176-0.014,0.265-0.014
		c0.011,0,0.021,0.001,0.027,0.001c0.003,0,0.006,0,0.009,0c0.017,0,0.029,0.002,0.044,0.002c0.378,0.002,0.753,0.023,1.125,0.053
		c0.192,0.013,0.388,0.019,0.577,0.038V1.238C395.504,1.119,394.661,1.038,393.802,1.038z"/>
	<path fill="#EDD9E6" d="M339.452,1.179c-4.108,0.491-7.874,2.373-10.779,5.45h-0.07l-0.109,0.132
		c-3.252,3.816-7.98,6.003-12.976,6.003c-4.354,0-8.504-1.664-11.649-4.619c-0.195-0.206-0.388-0.417-0.571-0.634l-0.111-0.132
		h-0.08c-0.189-0.201-0.377-0.406-0.558-0.618l-0.112-0.132h-0.094c-2.812-2.976-6.43-4.825-10.382-5.389v1.398
		c3.72,0.383,7.155,1.959,9.896,4.558l1.524,1.489c3.362,3.556,8.021,5.581,12.924,5.581c5.156,0,10.059-2.233,13.445-6.137
		l0.154-0.12c2.667-2.875,6.115-4.691,9.891-5.267c-0.113,0.017-0.229,0.024-0.342,0.043V1.179z"/>
	<path fill="#E0E0E0" d="M290.086,2.545c0.031,0,0.062-0.004,0.096-0.004c0.416,0,0.825,0.029,1.235,0.058
		c-0.411-0.034-0.823-0.059-1.241-0.059C290.146,2.541,290.116,2.545,290.086,2.545z"/>
	<path fill="#EDD9E6" d="M339.856,1.127c-0.138,0.013-0.271,0.036-0.404,0.052v1.607c0.112-0.019,0.229-0.027,0.342-0.043
		c0.021-0.003,0.041-0.009,0.062-0.012V1.127L339.856,1.127z"/>
	<path fill="#EDD9E6" d="M287.305,1.173c-4.123,0.483-7.904,2.369-10.818,5.456h-0.092l-0.109,0.132
		c-3.252,3.816-7.979,6.003-12.977,6.003c-4.353,0-8.502-1.664-11.65-4.617c-0.191-0.203-0.381-0.41-0.562-0.624l-0.229-0.172
		c-0.178-0.189-0.354-0.38-0.521-0.578l-0.329-0.248c-3.394-3.54-7.938-5.485-12.828-5.485c-0.575,0-1.146,0.033-1.71,0.086V2.73
		c-0.021,0.003-0.041,0.009-0.062,0.012c0.832-0.125,1.676-0.201,2.535-0.201c4.396,0,8.499,1.647,11.675,4.655l1.523,1.489
		c3.361,3.556,8.02,5.581,12.925,5.581c5.155,0,10.056-2.233,13.444-6.137l0.152-0.12c2.734-2.946,6.296-4.768,10.18-5.293
		c-0.182,0.025-0.365,0.039-0.547,0.07V1.173L287.305,1.173z"/>
	<path fill="#E0E0E0" d="M291.958,2.646V2.639c-0.181-0.019-0.36-0.026-0.541-0.039C291.598,2.614,291.777,2.627,291.958,2.646z"/>
	<path fill="#EDD9E6" d="M289.412,1.039c-0.712,0-1.414,0.053-2.107,0.134v1.613c0.18-0.031,0.364-0.045,0.547-0.07
		c0.246-0.034,0.491-0.072,0.74-0.095c0.493-0.046,0.991-0.073,1.494-0.076c0.03,0,0.061-0.004,0.09-0.004
		c0.418,0,0.83,0.025,1.241,0.059c0.181,0.013,0.36,0.021,0.541,0.039V1.24C291.121,1.121,290.275,1.039,289.412,1.039z"/>
	<path fill="#E0E0E0" d="M185.486,2.555c0.102-0.002,0.202-0.013,0.305-0.013c-0.01,0-0.019-0.001-0.028-0.001
		C185.67,2.541,185.579,2.554,185.486,2.555z"/>
	<path fill="#EDD9E6" d="M235.072,1.176c-4.121,0.484-7.899,2.369-10.812,5.454h-0.07l-0.111,0.132
		c-3.25,3.816-7.98,6.003-12.974,6.003c-4.354,0-8.505-1.666-11.651-4.62c-0.196-0.207-0.387-0.418-0.572-0.635l-0.11-0.132h-0.082
		c-0.189-0.201-0.377-0.407-0.557-0.618L198.02,6.63h-0.101c-2.809-2.974-6.424-4.823-10.374-5.387v1.391
		c3.73,0.377,7.18,1.957,9.931,4.562l1.523,1.489c3.363,3.556,8.02,5.581,12.925,5.581c5.156,0,10.056-2.233,13.445-6.137
		l0.153-0.12c2.668-2.875,6.118-4.691,9.892-5.267c-0.113,0.017-0.229,0.024-0.342,0.043L235.072,1.176L235.072,1.176z"/>
	<path fill="#EDD9E6" d="M235.477,1.127c-0.136,0.013-0.27,0.033-0.404,0.049v1.61c0.113-0.019,0.229-0.027,0.342-0.043
		c0.021-0.003,0.041-0.009,0.062-0.012V1.127L235.477,1.127z"/>
	<path fill="#E0E0E0" d="M185.791,2.542c0.02,0,0.038,0.001,0.058,0.002c-0.016,0-0.031-0.002-0.048-0.002
		C185.798,2.542,185.794,2.542,185.791,2.542z"/>
	<path fill="#EDD9E6" d="M182.924,1.169c-4.139,0.476-7.934,2.365-10.858,5.461h-0.091l-0.112,0.132
		c-3.25,3.816-7.98,6.003-12.974,6.003c-4.353,0-8.503-1.662-11.652-4.617c-0.19-0.202-0.378-0.409-0.56-0.621l-0.229-0.174
		c-0.178-0.189-0.352-0.379-0.521-0.578l-0.33-0.25c-3.395-3.54-7.938-5.486-12.829-5.486c-0.582,0-1.158,0.032-1.729,0.087V2.73
		c-0.021,0.003-0.041,0.009-0.062,0.012c0.831-0.124,1.675-0.201,2.534-0.201c4.396,0,8.5,1.647,11.675,4.655l1.523,1.489
		c3.363,3.556,8.02,5.581,12.924,5.581c5.156,0,10.056-2.233,13.446-6.137l0.153-0.12c2.696-2.902,6.208-4.71,10.032-5.267
		c-0.113,0.017-0.228,0.024-0.34,0.043V1.169z"/>
	<path fill="#E0E0E0" d="M187.545,2.646V2.634c-0.191-0.019-0.386-0.024-0.579-0.038C187.159,2.612,187.354,2.625,187.545,2.646z"/>
	<path fill="#EDD9E6" d="M184.992,1.041c-0.698,0-1.387,0.05-2.068,0.128v1.617c0.112-0.019,0.227-0.026,0.34-0.043
		c0.322-0.047,0.645-0.095,0.971-0.124c0.413-0.039,0.831-0.056,1.252-0.063c0.093-0.001,0.184-0.014,0.276-0.014
		c0.01,0,0.019,0.001,0.028,0.001c0.003,0,0.007,0,0.01,0c0.017,0,0.032,0.002,0.048,0.002c0.376,0.002,0.748,0.022,1.117,0.052
		c0.193,0.013,0.388,0.019,0.579,0.038V1.243C186.706,1.124,185.857,1.041,184.992,1.041z"/>
	<path fill="#EDD9E6" d="M130.633,1.18c-4.114,0.488-7.884,2.371-10.792,5.451h-0.071l-0.111,0.132
		c-3.252,3.816-7.981,6.002-12.974,6.002c-4.354,0-8.505-1.664-11.653-4.619c-0.194-0.207-0.386-0.419-0.57-0.635L94.35,7.381h-0.08
		c-0.19-0.2-0.377-0.406-0.558-0.618L93.6,6.631h-0.093c-2.809-2.976-6.428-4.825-10.38-5.388v1.394
		c3.724,0.38,7.165,1.958,9.911,4.56l1.524,1.489c3.362,3.556,8.019,5.58,12.924,5.58c5.156,0,10.056-2.232,13.445-6.136l0.153-0.12
		c2.667-2.875,6.119-4.692,9.893-5.268c-0.114,0.017-0.23,0.025-0.343,0.044L130.633,1.18L130.633,1.18z"/>
	<path fill="#E0E0E0" d="M81.18,2.549c0.061,0,0.12-0.008,0.181-0.008c-0.006,0-0.011,0-0.017,0
		C81.289,2.541,81.235,2.549,81.18,2.549z"/>
	<path fill="#EDD9E6" d="M131.038,1.128c-0.136,0.013-0.27,0.035-0.405,0.051v1.606c0.113-0.019,0.229-0.027,0.343-0.044
		c0.021-0.003,0.041-0.009,0.062-0.012V1.128z"/>
	<path fill="#EDD9E6" d="M78.485,1.174c-4.128,0.48-7.914,2.367-10.832,5.457h-0.091l-0.111,0.132
		c-3.252,3.816-7.981,6.002-12.975,6.002c-4.352,0-8.502-1.662-11.651-4.616c-0.191-0.205-0.382-0.412-0.563-0.627l-0.246-0.191
		c-0.172-0.183-0.342-0.367-0.506-0.559l-0.36-0.281c-2.905-3.013-6.645-4.852-10.72-5.321c-0.195-0.023-0.392-0.039-0.588-0.056
		c-0.481-0.039-0.964-0.071-1.453-0.072c-0.527,0-1.048,0.034-1.567,0.079v1.59c0.755-0.103,1.519-0.17,2.296-0.17
		c4.396,0,8.5,1.647,11.675,4.655l1.524,1.489c3.362,3.556,8.019,5.582,12.924,5.582c5.156,0,10.056-2.234,13.445-6.138l0.154-0.12
		c2.719-2.93,6.257-4.747,10.116-5.284c-0.156,0.022-0.315,0.034-0.471,0.06V1.174L78.485,1.174z"/>
	<polygon fill="#E0E0E0" points="81.361,2.542 81.368,2.542 81.362,2.542 	"/>
	<path fill="#E0E0E0" d="M83.126,2.646v-0.01c-0.184-0.019-0.371-0.025-0.557-0.039C82.755,2.613,82.941,2.626,83.126,2.646z"/>
	<path fill="#EDD9E6" d="M80.58,1.042c-0.708,0-1.405,0.052-2.095,0.132v1.612c0.156-0.026,0.315-0.038,0.471-0.06
		c0.275-0.039,0.548-0.081,0.826-0.105c0.462-0.043,0.928-0.066,1.397-0.071c0.055,0,0.109-0.008,0.164-0.008
		c0.006,0,0.011,0,0.017,0c0,0,0,0,0.001,0c0.002,0,0.004,0,0.006,0c0.404,0,0.804,0.024,1.202,0.056
		c0.186,0.013,0.373,0.02,0.557,0.039V1.243C82.289,1.124,81.443,1.042,80.58,1.042z"/>
	<path fill="#EDD9E6" d="M26.24,1.184c-4.106,0.492-7.871,2.374-10.774,5.449h-0.071l-0.112,0.132c-3.25,3.814-7.979,6-12.973,6
		c-0.007,0-0.014,0-0.021,0c-0.006,0-0.012,0-0.018,0c-0.77,0-1.525-0.07-2.272-0.17v1.353c1.07,0.2,2.161,0.317,3.268,0.317
		c5.156,0,10.056-2.233,13.445-6.137l0.154-0.12c2.682-2.891,6.156-4.714,9.954-5.279V2.712c-0.193,0.026-0.389,0.042-0.581,0.074
		V1.184H26.24z"/>
	<path fill="#EDD9E6" d="M26.24,1.184v1.602c0.192-0.032,0.388-0.048,0.581-0.074v-1.59C26.626,1.139,26.434,1.161,26.24,1.184z"/>
	<path fill="#EDD9E6" d="M499.998,1.144L499.998,1.144c-0.59-0.062-1.183-0.103-1.776-0.103c-4.937,0-9.521,1.984-12.925,5.589
		h-0.003h-0.068l-0.109,0.132c-3.251,3.816-7.98,6.001-12.976,6.001c0,0,0,0-0.001,0c-4.354,0-8.507-1.664-11.652-4.619
		c-0.194-0.207-0.388-0.418-0.57-0.634l-0.111-0.132h-0.08h-0.001c-0.188-0.2-0.377-0.406-0.557-0.618l-0.112-0.132h-0.091h-0.001
		c-3.406-3.606-7.988-5.589-12.928-5.589c-0.595,0-1.185,0.04-1.768,0.098V2.73c-0.021,0.003-0.043,0.009-0.062,0.012
		c0.833-0.125,1.677-0.201,2.538-0.201c4.396,0,8.499,1.647,11.675,4.655l1.523,1.489c3.361,3.556,8.02,5.581,12.925,5.581
		c5.156,0,10.056-2.233,13.443-6.137l0.153-0.12c3.272-3.526,7.724-5.469,12.504-5.469c0.349,0,0.69,0.017,1.032,0.04V1.144
		C499.999,1.144,499.999,1.144,499.998,1.144z"/>
	<path fill="#EDD9E6" d="M444.269,1.139c-0.134,0.013-0.27,0.021-0.401,0.037v1.61c0.11-0.019,0.227-0.026,0.339-0.043
		c0.021-0.003,0.043-0.009,0.062-0.012V1.139L444.269,1.139z"/>
	<path fill="#FFE6F6" d="M406.597,6.489l0.36,0.281c0.164,0.192,0.332,0.376,0.504,0.559l0.246,0.192
		c0.184,0.213,0.372,0.421,0.562,0.625c3.148,2.954,7.302,4.615,11.653,4.615c4.992,0,9.721-2.187,12.973-6.002l0.112-0.132h0.091
		c2.9-3.071,6.656-4.959,10.758-5.455V0h-47.52v1.238C400.231,1.79,403.803,3.591,406.597,6.489z"/>
	<path fill="#FFE6F6" d="M341.6,1.039c4.893,0,9.436,1.946,12.829,5.486l0.324,0.243c0,0,0.006,0.007,0.009,0.01l0.691,0.646
		l-0.081-0.004l0.133,0.1c0.001,0.003,0.004,0.006,0.008,0.009l0.693,0.646l-0.108-0.004c3.146,2.937,7.282,4.593,11.622,4.593
		c4.994,0,9.724-2.188,12.975-6.003l0.109-0.132h0.07c2.92-3.092,6.708-4.98,10.841-5.459V0h-51.856v1.127
		C340.432,1.071,341.013,1.039,341.6,1.039z"/>
	<path fill="#FFE6F6" d="M393.802,1.038c0.859,0,1.702,0.081,2.536,0.2V0h-4.623v1.169C392.402,1.089,393.098,1.038,393.802,1.038z"
		/>
	<path fill="#FFE6F6" d="M302.34,6.629h0.094l0.112,0.132c0.179,0.211,0.366,0.417,0.556,0.618h0.08l0.113,0.132
		c0.186,0.217,0.376,0.428,0.571,0.634c3.146,2.955,7.297,4.619,11.649,4.619c4.993,0,9.724-2.188,12.976-6.003l0.109-0.132h0.07
		c2.905-3.077,6.671-4.959,10.779-5.45V0h-47.494v1.24C295.91,1.804,299.529,3.653,302.34,6.629z"/>
	<path fill="#FFE6F6" d="M339.856,1.127V0h-0.404v1.179C339.588,1.163,339.721,1.14,339.856,1.127z"/>
	<path fill="#FFE6F6" d="M237.187,1.041c4.891,0,9.435,1.946,12.828,5.485l0.329,0.248c0.17,0.198,0.346,0.389,0.521,0.578
		l0.229,0.172c0.184,0.213,0.371,0.42,0.562,0.624c3.148,2.954,7.3,4.618,11.652,4.618c4.992,0,9.723-2.188,12.975-6.002
		l0.111-0.132h0.092c2.912-3.087,6.693-4.973,10.815-5.456V0h-51.827v1.127C236.041,1.074,236.611,1.041,237.187,1.041z"/>
	<path fill="#FFE6F6" d="M289.412,1.039c0.863,0,1.709,0.082,2.546,0.201V0h-4.653v1.173C287.998,1.092,288.7,1.039,289.412,1.039z"
		/>
	<path fill="#FFE6F6" d="M197.919,6.63h0.101l0.112,0.132c0.18,0.211,0.367,0.417,0.557,0.618h0.082l0.11,0.132
		c0.186,0.217,0.376,0.428,0.572,0.635c3.146,2.953,7.298,4.619,11.651,4.619c4.993,0,9.724-2.188,12.974-6.002l0.111-0.132h0.07
		c2.913-3.085,6.691-4.97,10.812-5.454V0h-47.527v1.243C191.495,1.808,195.11,3.656,197.919,6.63z"/>
	<path fill="#FFE6F6" d="M235.477,1.127V0h-0.404v1.176C235.207,1.16,235.341,1.14,235.477,1.127z"/>
	<path fill="#FFE6F6" d="M132.768,1.042c4.89,0,9.434,1.946,12.829,5.486l0.33,0.25c0.169,0.198,0.343,0.389,0.521,0.578
		l0.229,0.174c0.182,0.212,0.369,0.419,0.56,0.621c3.149,2.953,7.299,4.615,11.652,4.615c4.993,0,9.723-2.187,12.974-6.001
		l0.112-0.132h0.091c2.924-3.097,6.719-4.986,10.858-5.461V0h-51.886v1.128C131.609,1.074,132.186,1.042,132.768,1.042z"/>
	<path fill="#FFE6F6" d="M184.992,1.041c0.865,0,1.714,0.083,2.553,0.202V0h-4.621v1.169C183.605,1.091,184.294,1.041,184.992,1.041
		z"/>
	<path fill="#FFE6F6" d="M93.506,6.631H93.6l0.112,0.132c0.181,0.211,0.368,0.417,0.558,0.618h0.08l0.113,0.132
		c0.184,0.216,0.375,0.428,0.57,0.635c3.148,2.954,7.299,4.618,11.653,4.618c4.993,0,9.722-2.188,12.974-6.001l0.111-0.132h0.071
		c2.909-3.08,6.679-4.963,10.792-5.451V0H83.126v1.243C87.078,1.806,90.697,3.655,93.506,6.631z"/>
	<path fill="#FFE6F6" d="M131.038,1.128V0h-0.405v1.18C130.769,1.164,130.902,1.142,131.038,1.128z"/>
	<path fill="#FFE6F6" d="M30.517,1.18c-0.029-0.003-0.058-0.005-0.087-0.008c4.075,0.47,7.815,2.308,10.72,5.321l0.36,0.281
		c0.164,0.192,0.334,0.376,0.506,0.559l0.246,0.191c0.182,0.215,0.372,0.422,0.563,0.627c3.149,2.953,7.299,4.615,11.651,4.615
		c4.994,0,9.723-2.188,12.975-6.001l0.111-0.132h0.091c2.917-3.09,6.703-4.977,10.832-5.457V0H30.546
		C30.546,0,30.652,1.193,30.517,1.18z"/>
	<path fill="#FAFAFA" d="M28.388,1.043c0.489,0.001,0.972,0.033,1.453,0.072c-0.482-0.042-0.965-0.072-1.449-0.072
		C28.391,1.043,28.39,1.043,28.388,1.043z"/>
	<path fill="#FFE6F6" d="M80.58,1.042c0.863,0,1.709,0.082,2.546,0.201V0h-4.641v1.174C79.175,1.093,79.873,1.042,80.58,1.042z"/>
	<path fill="#FAFAFA" d="M0,12.596c0.748,0.1,1.503,0.17,2.272,0.17c0.006,0,0.012,0,0.018,0C1.518,12.764,0.755,12.691,0,12.589
		V12.596z"/>
	<path fill="#FFE6F6" d="M446.033,1.042L446.033,1.042c0.002,0,0.002,0,0.003,0c4.938,0,9.521,1.983,12.927,5.589h0.091h0.002
		l0.111,0.132c0.181,0.211,0.368,0.417,0.557,0.618h0.08h0.002l0.111,0.132c0.185,0.216,0.375,0.428,0.57,0.634
		c3.146,2.955,7.299,4.619,11.65,4.619c4.992,0,9.725-2.188,12.975-6.001l0.109-0.132h0.002h0.068
		c3.405-3.606,7.99-5.589,12.927-5.589h0.001c0.001,0,0.001,0,0.001,0c0.595,0,1.188,0.041,1.775,0.103V0h-55.729v1.139
		C444.852,1.081,445.438,1.042,446.033,1.042z"/>
	<path fill="#FFE6F6" d="M444.269,1.139V0h-0.404v1.176C443.997,1.16,444.134,1.152,444.269,1.139z"/>
	<path fill="#FAFAFA" d="M459.056,6.631h-0.002l0.112,0.132c0.18,0.211,0.367,0.417,0.557,0.618h0.001
		c-0.188-0.201-0.376-0.406-0.557-0.618L459.056,6.631z"/>
	<path fill="#FAFAFA" d="M446.034,1.042c4.938,0,9.521,1.983,12.928,5.589h0.001c-3.405-3.606-7.989-5.589-12.927-5.589
		C446.035,1.042,446.035,1.042,446.034,1.042z"/>
	<path fill="#FAFAFA" d="M459.917,7.513l-0.111-0.132h-0.002l0.111,0.132c0.185,0.216,0.376,0.427,0.57,0.634
		c3.146,2.955,7.299,4.619,11.652,4.619c-4.354,0-8.505-1.664-11.65-4.619C460.292,7.941,460.102,7.729,459.917,7.513z"/>
	<path fill="#FAFAFA" d="M498.222,1.042c0.596,0,1.188,0.041,1.776,0.104V1.144C499.408,1.083,498.815,1.042,498.222,1.042
		C498.223,1.042,498.223,1.042,498.222,1.042z"/>
	<path fill="#FAFAFA" d="M26.821,1.119v0.003c0.519-0.045,1.04-0.079,1.567-0.079c-0.011,0-0.022-0.001-0.034-0.001
		C27.838,1.042,27.329,1.076,26.821,1.119z"/>
	<path fill="#FAFAFA" d="M15.427,6.631h-0.068l-0.113,0.132c-3.247,3.811-7.969,5.997-12.956,6c0.007,0,0.014,0.002,0.021,0.002
		c4.994,0,9.723-2.188,12.973-6.001l0.112-0.132h0.071c2.903-3.075,6.668-4.957,10.774-5.449V1.177
		C22.12,1.661,18.34,3.546,15.427,6.631z"/>
	<path fill="#FAFAFA" d="M26.24,1.177v0.007c0.193-0.023,0.386-0.045,0.581-0.062V1.119C26.627,1.135,26.433,1.154,26.24,1.177z"/>
	<path fill="#FFE6F6" d="M28.354,1.042c0.011,0,0.022,0.001,0.034,0.001c0.001,0,0.003,0,0.004,0c0.484,0,0.967,0.03,1.449,0.072
		c0.196,0.017,0.393,0.033,0.588,0.056c0.029,0.003,0.058,0.005,0.087,0.008C30.652,1.193,30.546,0,30.546,0h-3.725v1.119
		C27.329,1.076,27.838,1.042,28.354,1.042z"/>
	<path fill="#FFE6F6" d="M2.29,12.766c4.987-0.006,9.709-2.189,12.956-6l0.113-0.132h0.068c2.914-3.085,6.693-4.97,10.813-5.454V0H0
		v12.589C0.755,12.691,1.518,12.764,2.29,12.766z"/>
	<path fill="#FFE6F6" d="M26.821,1.119V0H26.24v1.177C26.433,1.154,26.627,1.135,26.821,1.119z"/>
</g>
</svg>
