<?xml version="1.0" encoding="utf-8"?>
<!-- Generator: Adobe Illustrator 16.0.0, SVG Export Plug-In . SVG Version: 6.00 Build 0)  -->
<!DOCTYPE svg PUBLIC "-//W3C//DTD SVG 1.1//EN" "http://www.w3.org/Graphics/SVG/1.1/DTD/svg11.dtd">
<svg version="1.1" id="Layer_1" xmlns="http://www.w3.org/2000/svg" xmlns:xlink="http://www.w3.org/1999/xlink" x="0px" y="0px"
	 width="850px" height="22px" viewBox="0 0 850 22" enable-background="new 0 0 850 22" xml:space="preserve">
<g>
	<path fill="#FAFAFA" d="M224.545,2.074c-1.108-0.166-2.239-0.26-3.368-0.26c-6.375,0-12.289,2.59-16.652,7.293l-0.217,0.16
		c-4.52,5.201-11.033,8.178-17.908,8.178c-6.873,0-13.387-2.978-17.907-8.178h-0.099l-0.148-0.16
		c-4.364-4.703-10.278-7.293-16.652-7.293c-6.375,0-12.289,2.59-16.653,7.293l-0.148,0.16h-0.097
		c-4.521,5.201-11.034,8.178-17.908,8.178s-13.387-2.978-17.91-8.178h-0.117l-0.148-0.16C94.25,4.404,88.335,1.814,81.96,1.814
		c-6.374,0-12.288,2.59-16.653,7.293l-0.216,0.16c-4.519,5.199-11.03,8.178-17.903,8.178h-0.002h-0.002
		c-6.875,0-13.386-2.979-17.906-8.178h-0.117l-0.148-0.16c-4.368-4.703-10.282-7.293-16.656-7.293c-3.854,0-7.536,0.953-10.812,2.74
		V22h223V2.074z"/>
</g>
<g>
	<path fill="#FAFAFA" d="M847.632,1.815c-6.375,0-12.289,2.59-16.651,7.293l-0.218,0.16c-4.52,5.201-11.032,8.177-17.907,8.177
		c-6.873,0-13.388-2.978-17.907-8.177h-0.1l-0.147-0.16c-4.364-4.703-10.278-7.293-16.652-7.293c-6.375,0-12.289,2.59-16.652,7.293
		l-0.148,0.16h-0.097c-4.521,5.201-11.034,8.177-17.908,8.177s-13.387-2.978-17.91-8.177h-0.117l-0.147-0.16
		c-4.364-4.703-10.278-7.293-16.653-7.293c-6.374,0-12.288,2.59-16.653,7.293l-0.216,0.16c-4.519,5.199-11.03,8.177-17.903,8.177
		h-0.002h-0.002c-6.875,0-13.386-2.979-17.905-8.177h-0.117l-0.148-0.16c-4.364-4.703-10.278-7.293-16.651-7.293
		c-6.375,0-12.289,2.59-16.653,7.293l-0.217,0.16c-4.521,5.201-11.033,8.177-17.907,8.177s-13.388-2.978-17.908-8.177h-0.099
		l-0.148-0.16c-4.364-4.703-10.278-7.293-16.653-7.293s-12.288,2.59-16.651,7.293l-0.148,0.16h-0.097
		c-4.52,5.201-11.033,8.177-17.907,8.177c-6.875,0-13.388-2.978-17.911-8.177h-0.117l-0.147-0.16
		c-4.364-4.703-10.278-7.293-16.653-7.293s-12.289,2.59-16.651,7.293l-0.218,0.16c-4.52,5.201-11.032,8.177-17.907,8.177
		c-6.873,0-13.388-2.978-17.908-8.177h-0.107l-0.147-0.16c-4.363-4.703-10.277-7.293-16.652-7.293s-12.289,2.59-16.652,7.293
		l-0.148,0.16h-0.097c-4.521,5.201-11.033,8.177-17.908,8.177c-6.874,0-13.387-2.978-17.91-8.177h-0.117l-0.147-0.16
		c-4.364-4.703-10.278-7.293-16.653-7.293c-6.374,0-12.288,2.59-16.652,7.293l-0.217,0.16c-4.52,5.201-11.033,8.177-17.907,8.177
		c-6.875,0-13.388-2.978-17.908-8.177h-0.1l-0.146-0.16c-4.364-4.703-10.278-7.293-16.653-7.293s-12.289,2.59-16.652,7.293
		l-0.148,0.16h-0.097c-4.521,5.201-11.034,8.177-17.907,8.177c-6.875,0-13.388-2.978-17.911-8.177h-0.118l-0.148-0.16
		c-4.363-4.703-10.277-7.293-16.652-7.293s-12.289,2.59-16.652,7.293l-0.217,0.16c-4.52,5.201-11.033,8.177-17.908,8.177L164.764,22
		H850V1.96C849.214,1.875,848.424,1.815,847.632,1.815z"/>
</g>
<g>
	<path fill="#FAFAFA" d="M15.545,2.074c-1.108-0.166-2.239-0.26-3.368-0.26C7.779,1.814,3.601,3.047,0,5.356V22h15.545V2.074z"/>
</g>
</svg>
